<?xml version="1.0" encoding="UTF-8"?>
<svg id="Layer_1" data-name="Layer 1" xmlns="http://www.w3.org/2000/svg" xmlns:xlink="http://www.w3.org/1999/xlink" viewBox="0 0 657.02 579.81">
  <defs>
    <style>
      .cls-1 {
        fill: none;
      }

      .cls-2 {
        fill: #70574b;
      }

      .cls-3 {
        opacity: .15;
      }

      .cls-4 {
        fill: #f5d43c;
      }

      .cls-5 {
        clip-path: url(#clippath);
      }
    </style>
    <clipPath id="clippath">
      <rect class="cls-1" width="657.02" height="579.81"/>
    </clipPath>
  </defs>
  <g class="cls-5">
    <g class="cls-3">
      <path class="cls-4" d="M311,390.28c27.68,35.53,55.72,98.96,30.77,141.78-14.13,12.93-37.29,1.93-40.59-16.57-4.75-19.93-4.02-41.47-11.78-60.75-8.03-22.07-27.8-37.06-44.32-54.76-14.64-16.36-34.32-25.88-56.03-28.63-63.74-9.02-130.68,2.31-188.31,30.28-24.71,17.94-41.26,45.34-49.9,74.98-5.48,17.69-11.03,38.99-26.73,50.14-12.71,7.83-19.74-2.74-15.88-16.55,17.51-88.14,55.09-155.56,148.83-175.47,49.38-12.93,102.93-14.74,154.41-10.85,40.83,5.74,73.51,32.35,98.31,64.8l1.22,1.59Z"/>
      <path class="cls-2" d="M622.3,559.26c-42.13,6.67-28.68-79.32-38.8-106.2-10.55-56.99-30.53-111.92-50.48-166.39-14.75-37.88-21.82-77.61-45.29-112.49-33.35-48.71-95.49-62.97-147.41-82.9-13.16-4.97-27.2-8.08-40.72-11.34-70.21-21.23-145.67-38.01-218.49-25.1-34.03,6.92-70.49,4.38-103.1,17.02-89.45,33.99-167.61,94.42-233.12,164.42-37.23,43.19-57.84,96.87-61.32,153.41-1.56,34.17-1.2,69.45-1.86,103.58-1.29,15.19,4.03,62.01-16.72,57.37-15.78-14.32-10.43-40.24-16.61-61.91-18.04-79.48,4.02-163.51,43.13-233.34,41.5-81.51,117.36-132.11,193.52-178.33C-65.37,47.26-11.44,26.11,47.17,22.36c18.46-1.1,36.54-3.5,54.67-6.88,29.66-4.07,59.47,7.63,89.89,7.22,64.39,3.65,123.79,20.22,183.23,44.68,42.44,13.66,90.01,31.45,122.8,62.11,11.15,10.75,21.94,24.23,29.5,38.33,35.02,67.03,58.72,138.57,78.13,212.06,5.82,30.69,54.58,170,18.44,178.96l-1.52.43Z"/>
      <path class="cls-2" d="M226.29,534.69c-8.12,9.38-28.35,10.38-37.27.72-3.88-4.07-5.05-9.96-4.51-16.63,3.52-19.79,3.79-39.42-11.6-53.58-57.4-57.8-151.28-16.03-162.13,61.87-7.21,20.16-28.14-3.59-24.06-16.67,22.46-89,114.22-136.54,195-92.9,34.11,13.77,45.22,49.66,49.9,85.86,1.07,12.69.87,23.1-4.36,30.13l-.97,1.19Z"/>
      <path class="cls-4" d="M403.4,480.06c-2.17,24.39-15.15,11.56-17.16-4.16-15.94-70.07-61.81-128.39-117.67-169.76-8.3-4.31-17.85-6.58-27.54-8.29-72.06-11.12-143.87-19.91-215.42-4.55-72.51,15.39-118.26,92.37-129.22,161.77-3.7,20.98-6.4,42.22-9.91,63.37-1.8,12.02-6.21,23.64-15.89,25.84-29.17,2.74-22.01-39.94-21.29-59.85,7.66-81.9,37.85-153.29,104.07-204.62,12.5-9.83,27.16-14.99,42.42-18.25,20.07-4.38,39.44-13.91,61.73-13.13,13.65.31,27.25,2.67,40.91,1.97,55.37-7.06,110.02,2.49,163.89,15.05,35.25,10.31,58.48,40.03,79.29,68.39,14.9,21.02,34.52,40.94,44.84,65.28,10.64,24.69,14.95,52.62,16.97,79.09v1.84Z"/>
      <path class="cls-2" d="M488.31,524.45c5.41,17.3-8.72,33.73-26.56,26.41-10.81-5.28-13.76-17.94-15.05-29.16-1.14-11.43-.02-23.23-.07-34.78.49-50.75-23.53-95.91-44.54-140.43-46.42-115.78-166.37-158.71-283.93-151.45-64.73,3.99-125.18,26.23-182.75,58.12-52.62,27.29-72.53,56.99-88.61,112.79-17.17,44.58-40.31,88.9-38.67,137.95.06,12.08-4.74,23.28-11.45,22.36-18.59-5.91-18.24-31.93-18.9-48.78,2.78-47.67,19.02-95.3,41.02-137.46,16.93-35.79,31.33-75.67,65.8-99,134.48-99.83,340.52-122.91,480.75-18.48,46.9,40.13,74.07,99.32,98.41,155.32,13.93,34.43,22.7,70.35,21.32,107.98-.72,12.33-.06,24.99,2.88,36.79l.34,1.79Z"/>
      <path class="cls-2" d="M541.87,529.46c-1.12,12.08-10.79,20.84-18.61,15.62-6.84-4.68-8.22-13.59-9.82-21.33-18.09-81-32.82-163.22-55.64-243.07-38.45-104.54-199.54-148.44-301.95-142.25-41.98,4.73-81.27-8.76-123.47-10.42-32.67-.1-62.97,11.78-90.66,28.04-108.31,62.9-191.72,176.87-197.03,303.61-4.71,25.29,26.1,101.06-12.56,104.04-19.65-3.7-20.19-29.18-21.57-45.33-35.83-153.12,61.99-309.37,190.74-387.38C-28.31,89.2,56.47,83.69,136.28,89.22c91.92,7.29,184.5,13.16,266.74,62,83.13,47.31,95.69,122.93,115.52,208.39,7.1,56.11,29.46,111.19,23.57,168.04l-.24,1.81Z"/>
      <path class="cls-2" d="M161.44,529.64c.12,11.21-.58,24.58-12.02,27.94-6.84,2.1-16.24,2.98-21.63-2.47-6.39-8.21-3.98-21.12-8.42-30.21-2.68-6.75-5.97-13.56-11.34-17.64-13.22-9.7-24.18,6.3-29.46,17.04-4.27,10.06-16.6,18.67-24.44,7.31-3.96-6.58-1.63-17.81-.91-26.27,2.67-24.3,14.94-37.79,38.95-42.11,35.67-9.42,70.14,27.73,69.23,64.51l.03,1.91Z"/>
    </g>
  </g>
</svg>