<?xml version="1.0" encoding="UTF-8"?>
<svg id="Layer_1" data-name="Layer 1" xmlns="http://www.w3.org/2000/svg" viewBox="0 0 485.74 68.92">
  <defs>
    <style>
      .cls-1 {
        fill: #fff;
      }

      .cls-2 {
        fill: #f5d43c;
      }
    </style>
  </defs>
  <path class="cls-1" d="M47.4,40.94c3.2-10.79,6.25-20.89,9.19-31.03,1.99-6.85,1.92-6.87,8.04-3.15q6.54,3.97,4.09,11.25c-5.14,15.25-9.94,30.61-15.8,45.6-.47,1.21-.61,3.06-1.89,3.3-1.43.27-1.88-1.61-2.61-2.63-3.99-5.58-7.94-11.18-11.79-16.85-1.31-1.93-2.08-2.01-3.32.06-3.62,6.05-7.24,12.1-11.51,17.72-.49.65-.81,1.78-1.74,1.71-.99-.07-1.04-1.24-1.31-1.99C12.59,47.83,6.48,30.7.3,13.6c-.59-1.62-.36-2.68,1.11-3.61,2.17-1.38,4.31-2.82,6.38-4.34,1.94-1.42,2.88-1.33,3.65,1.29,3.14,10.68,6.51,21.3,9.81,31.93.27.87.23,2.23,1.25,2.37,1.11.15,1.27-1.24,1.65-2.03,3.08-6.34,6.08-12.71,9.15-19.06.48-.99.57-2.64,1.78-2.7,1.31-.07,1.33,1.62,1.81,2.58,3.11,6.32,6.18,12.66,9.28,18.99.24.49.59.93,1.23,1.93Z"/>
  <path class="cls-1" d="M102.52,2.89c4.95.02,9.9-.28,14.85.19,2.06.2,3.11.82,2.64,3.23-.49,2.51-.19,5.11-.52,7.68-.25,1.95-1.25,2.6-2.94,2.76-4.45.43-8.89.98-13.35,1.24-2.04.12-2.85.75-2.86,2.87-.03,6.29-.1,6.28,6.01,6.07,2.66-.09,5.34-.04,7.99-.25,1.85-.15,2.67.44,2.62,2.33-.08,3.14-.1,6.28-.08,9.43.01,1.81-.76,2.6-2.6,2.47-3.61-.24-7.22-.36-10.83-.6-1.83-.12-2.58.55-2.53,2.44.29,10.49-1.06,8.61,8.6,8.6,2.83,0,5.67-.59,8.47-1.09,1.69-.3,2.52-.06,2.4,1.88-.27,4.27-.45,8.55-.65,12.83-.07,1.51-.79,2.24-2.34,2.23-9.32-.1-18.66.51-27.97-.52-1.67-.19-2.52-.76-2.6-2.63-.83-19.5-.92-39.01-.56-58.52.04-2.08,1.05-2.65,2.83-2.64,4.48,0,8.95,0,13.43,0Z"/>
  <path class="cls-1" d="M318,38.09c-.93-11.16.26-21.83-.03-32.49-.05-2.03.9-2.73,2.74-2.72,9.15.03,18.3.04,27.45.1,2.7.02,4.21.9,3.51,4.12-.5,2.29-.23,4.73-.54,7.11-.24,1.83-1.17,2.42-2.78,2.57-4.45.41-8.9.97-13.36,1.23-2.23.13-2.96.99-2.94,3.16.04,5.98-.03,5.97,5.82,5.8,2.86-.08,5.72-.06,8.58-.18,1.59-.07,2.26.55,2.22,2.15-.08,3.24-.09,6.48-.09,9.72,0,1.73-.88,2.36-2.52,2.26-3.42-.22-6.85-.32-10.26-.61-2.28-.19-3.29.47-3.18,2.97.44,9.95-1.26,8.09,8.44,8.07,2.93,0,5.86-.62,8.77-1.11,1.57-.27,2.37-.02,2.27,1.75-.25,4.37-.46,8.75-.67,13.13-.07,1.41-.81,2.08-2.18,2.07-9.43-.06-18.86.53-28.28-.51-1.82-.2-2.35-1.09-2.41-2.81-.33-8.75-.68-17.5-.53-25.77Z"/>
  <path class="cls-1" d="M459.16,24c5.09-5.78,10.2-11.53,15.25-17.34,3.19-3.68,3.16-3.73,5.03.62,1.32,3.06,2.5,6.18,3.9,9.21.79,1.71.44,2.72-1.04,3.85-4.17,3.17-8.16,6.57-12.33,9.75-1.83,1.39-2.32,2.45-.79,4.57,5.3,7.33,10.32,14.87,15.56,22.24,1.26,1.77,1.48,3-.24,4.61-2.08,1.95-3.94,4.14-5.8,6.3-1.43,1.66-2.35,1.36-3.4-.42-4.07-6.89-8.21-13.74-12.37-20.57-.53-.87-.75-2.58-2.24-1.99-1.35.54-2.53,1.45-2.4,3.44.36,5.32.41,10.66.72,15.98.13,2.23-.61,3.15-2.89,3.01-2.37-.15-4.77-.17-7.14-.04-2.39.13-3.25-.93-3.19-3.2.15-5.81.3-11.62.32-17.43.05-13.53.08-27.06-.03-40.59-.02-2.68.75-3.88,3.53-3.71,2.09.13,4.19.03,6.28-.09,2.01-.12,2.68.75,2.66,2.69-.07,6.27-.03,12.55-.03,18.83.21.09.42.19.63.28Z"/>
  <path class="cls-1" d="M413.12,68.56c-1.93.67-2.96-.77-3.48-3.38-.71-3.54-1.75-7.01-2.6-10.53-.39-1.62-1.23-2.39-3.01-2.31-3.61.15-7.22.15-10.83.16-1.44,0-1.96.81-2.31,2.04-.99,3.48-2.23,6.89-3.04,10.41-.56,2.42-1.78,2.8-3.88,2.2-2.01-.58-4.04-1.14-6.09-1.53-2.32-.45-2.89-1.49-2.12-3.8,6.29-18.78,12.55-37.57,20.09-55.9.58-1.41,1.1-2.84,1.71-4.24.29-.65.29-1.7,1.25-1.69.93,0,1.02,1.02,1.3,1.69,2.69,6.51,5.41,13.01,8.01,19.56,5.61,14.16,11.04,28.39,16.14,42.74.92,2.58.28,3.44-2.25,3.63-2.65.2-5.3.55-8.88.94ZM398.59,23.79c-.21.02-.42.05-.63.07-.75,2.35-1.53,4.69-2.24,7.05q-1.87,6.18,4.65,5.68c.19-.01.38-.02.57-.03,1.44-.03,1.83-.7,1.35-2.04-1.26-3.57-2.47-7.15-3.7-10.73Z"/>
  <path class="cls-1" d="M264.44,67.71c-5.18.16-5.3.15-5.12-4.98.66-18.66.2-37.33.31-56,.01-2.35.8-3.4,3.05-3.94,7.91-1.9,15.49-1.83,22.36,3.25,3.59,2.65,5.89,6.28,7.18,10.43,2.45,7.84,2.6,15.78-.43,23.51-3.1,7.93-9.1,12.28-17.59,12.91-2.62.19-3.82,1.05-3.69,3.79.11,2.37-.16,4.75-.22,7.13-.09,3.8-.07,3.8-3.85,3.9-.67.02-1.33,0-2,0ZM281.39,28.19c.18-1.9-.17-3.97-.76-5.98-1.21-4.18-4.45-6.52-8.64-6.51-1.57,0-2.29.44-2.12,2.13.67,6.54.3,13.12.46,19.67.1,3.89,1.31,4.66,4.91,3.14,1.72-.73,3.05-1.89,4.01-3.51,1.6-2.7,2.31-5.61,2.13-8.95Z"/>
  <path class="cls-2" d="M163.19,67.2c-4.09,0-8.19-.03-12.28.01-4.88.05-4.33-3.52.4-20.03,1.23-4.28,1.5-8.78.8-13.17-4.99-31.51-8.97-32.48.59-30.9.61.1,1.24.1,1.85,0,3.87-.63,5.53-.74,5.44,1.92-.4,11.02-.73,22.05-1.06,33.08-.09,3.04-.12,6.09-.15,9.14-.04,3.7.37,3.99,4.17,3.47,4.71-.65,9.44-1.14,14.14-1.82,1.67-.24,2.32.37,2.29,1.95-.11,4.56.09,9.13-.41,13.69-.22,2.01-1.13,2.62-2.91,2.62-4.28-.02-8.57,0-12.85,0,0,.01,0,.03,0,.04Z"/>
  <path class="cls-2" d="M218.19,67.21c-3.91,0-7.81.04-11.72-.01-3.73-.05-3.89-.25-3.93-3.89-.22-19.52-.42-39.04-.7-58.57-.02-1.48.34-2.08,1.83-2.04,2.88.06,5.76.23,8.63.08,1.89-.1,2.7.58,2.65,2.37-.29,10.37-.53,20.75-.8,31.12-.1,3.71-.3,7.41-.38,11.12-.07,3.55.37,3.85,4.02,3.35,4.71-.64,9.45-1.14,14.15-1.84,1.8-.26,2.51.33,2.44,2.08-.18,4.47.05,8.94-.35,13.42-.21,2.38-1.29,2.81-3.27,2.79-4.19-.05-8.38-.02-12.58-.02,0,.01,0,.02,0,.04Z"/>
</svg>