<?xml version="1.0" encoding="UTF-8"?>
<svg id="Layer_1" data-name="Layer 1" xmlns="http://www.w3.org/2000/svg" viewBox="0 0 400 300">
  <defs>
    <style>
      .cls-1 {
        fill: #fff;
      }

      .cls-2 {
        fill: #70574b;
      }

      .cls-3 {
        fill: #f5d43c;
      }
    </style>
  </defs>
  <rect class="cls-1" x=".5" y=".5" width="400" height="300"/>
  <g>
    <path class="cls-2" d="M59.6,154.65c2.3-7.75,4.49-15.01,6.6-22.29,1.42-4.92,1.38-4.93,5.78-2.26,3.13,1.9,4.11,4.59,2.94,8.08-3.69,10.95-7.14,21.98-11.36,32.76-.34.87-.44,2.19-1.36,2.38-1.03.2-1.36-1.16-1.88-1.89-2.86-4.01-5.7-8.03-8.47-12.1-.94-1.38-1.5-1.45-2.39.04-2.6,4.35-5.21,8.69-8.28,12.73-.35.47-.59,1.28-1.25,1.23-.7-.05-.74-.89-.94-1.44-4.4-12.28-8.8-24.59-13.22-36.87-.42-1.16-.26-1.92.8-2.6,1.55-.99,3.09-2.02,4.58-3.12,1.4-1.02,2.08-.95,2.62.93,2.26,7.67,4.67,15.3,7.05,22.93.2.63.17,1.61.9,1.7.8.1.91-.89,1.19-1.46,2.21-4.56,4.37-9.14,6.58-13.69.34-.7.42-1.89,1.28-1.94.94-.05.95,1.16,1.29,1.85,2.23,4.54,4.44,9.1,6.66,13.64.17.35.42.67.89,1.38v.03Z"/>
    <path class="cls-2" d="M99.2,127.31c3.55.01,7.11-.2,10.66.14,1.47.14,2.23.59,1.89,2.32-.35,1.8-.13,3.67-.38,5.52-.18,1.4-.9,1.87-2.11,1.98-3.2.31-6.38.7-9.59.89-1.46.09-2.05.54-2.05,2.06-.03,4.52-.08,4.52,4.32,4.36,1.92-.07,3.84-.03,5.74-.18,1.33-.1,1.92.31,1.88,1.67-.05,2.26-.08,4.52-.07,6.77,0,1.31-.55,1.87-1.87,1.78-2.6-.17-5.18-.26-7.78-.43-1.32-.09-1.85.39-1.81,1.76.21,7.53-.77,6.19,6.17,6.17,2.04,0,4.07-.43,6.08-.78,1.21-.22,1.81-.04,1.72,1.34-.2,3.07-.33,6.15-.47,9.22-.05,1.08-.57,1.61-1.68,1.61-6.7-.07-13.4.37-20.09-.38-1.2-.13-1.81-.55-1.87-1.89-.6-14.01-.67-28.02-.4-42.03.03-1.49.76-1.91,2.04-1.89h9.66Z"/>
    <path class="cls-2" d="M253.96,152.6c-.67-8.01.18-15.68-.01-23.34-.04-1.45.64-1.96,1.97-1.96,6.57.03,13.14.03,19.71.07,1.93,0,3.03.64,2.52,2.96-.37,1.64-.17,3.39-.39,5.1-.17,1.32-.84,1.74-2,1.84-3.2.3-6.4.69-9.59.87-1.61.09-2.13.72-2.11,2.27.03,4.29-.03,4.28,4.18,4.16,2.05-.07,4.11-.04,6.16-.13,1.15-.05,1.62.39,1.59,1.54-.05,2.32-.07,4.66-.07,6.98,0,1.24-.63,1.7-1.81,1.62-2.45-.16-4.92-.23-7.37-.43-1.63-.14-2.36.34-2.28,2.14.31,7.15-.9,5.81,6.06,5.8,2.1,0,4.22-.44,6.29-.8,1.12-.2,1.71,0,1.63,1.25-.18,3.15-.33,6.29-.48,9.42-.05,1.01-.59,1.49-1.57,1.49-6.77-.04-13.55.38-20.31-.37-1.31-.14-1.68-.78-1.74-2.02-.23-6.29-.48-12.57-.38-18.51v.03Z"/>
    <path class="cls-2" d="M355.35,142.48c3.65-4.15,7.34-8.28,10.95-12.45,2.3-2.64,2.27-2.68,3.62.44.94,2.19,1.79,4.44,2.79,6.62.56,1.23.31,1.96-.74,2.77-2.99,2.28-5.86,4.73-8.85,7-1.32,1.01-1.67,1.76-.57,3.29,3.81,5.27,7.41,10.68,11.17,15.98.9,1.27,1.07,2.15-.17,3.32-1.49,1.4-2.83,2.98-4.16,4.53-1.03,1.19-1.68.98-2.44-.3-2.92-4.95-5.9-9.87-8.88-14.78-.38-.63-.54-1.85-1.61-1.42-.97.38-1.81,1.04-1.72,2.47.26,3.82.3,7.65.52,11.47.09,1.59-.43,2.26-2.08,2.17-1.71-.1-3.42-.12-5.13-.03-1.72.09-2.34-.67-2.3-2.3.1-4.18.22-8.34.23-12.52.04-9.72.05-19.44-.03-29.16-.01-1.93.54-2.79,2.53-2.66,1.5.09,3.02.03,4.52-.07,1.44-.09,1.93.54,1.91,1.93-.05,4.5-.01,9.02-.01,13.52.16.07.3.13.46.21v-.03Z"/>
    <path class="cls-2" d="M322.28,174.49c-1.38.48-2.13-.56-2.51-2.43-.51-2.55-1.25-5.04-1.87-7.56-.29-1.16-.87-1.71-2.15-1.66-2.6.1-5.18.1-7.78.12-1.03,0-1.41.59-1.66,1.46-.72,2.49-1.59,4.95-2.18,7.48-.4,1.74-1.28,2.01-2.78,1.58-1.45-.42-2.9-.82-4.37-1.1-1.66-.33-2.08-1.07-1.53-2.73,4.52-13.48,9.01-26.98,14.42-40.15.42-1.02.8-2.04,1.23-3.04.21-.47.21-1.21.9-1.21s.73.73.93,1.21c1.93,4.67,3.89,9.35,5.76,14.04,4.03,10.17,7.92,20.39,11.59,30.7.67,1.85.2,2.47-1.62,2.61-1.91.14-3.8.39-6.38.68h0ZM311.85,142.32c-.16.01-.3.04-.46.05-.54,1.68-1.1,3.37-1.61,5.06-.9,2.96.22,4.32,3.34,4.07.13,0,.27-.01.4-.03,1.03-.01,1.32-.5.98-1.46-.9-2.56-1.78-5.14-2.65-7.71h-.01Z"/>
    <path class="cls-2" d="M215.5,173.87c-3.72.12-3.81.1-3.68-3.58.47-13.4.14-26.81.22-40.23,0-1.68.57-2.44,2.19-2.83,5.68-1.36,11.12-1.32,16.05,2.34,2.57,1.91,4.23,4.52,5.16,7.49,1.76,5.63,1.87,11.33-.31,16.89-2.23,5.69-6.54,8.81-12.63,9.27-1.88.14-2.74.76-2.65,2.71.08,1.7-.12,3.42-.16,5.13-.07,2.73-.05,2.73-2.77,2.79h-1.44.01ZM227.67,145.48c.13-1.37-.12-2.85-.55-4.29-.87-3-3.2-4.69-6.2-4.67-1.12,0-1.64.31-1.53,1.53.48,4.7.21,9.42.33,14.14.07,2.79.94,3.35,3.52,2.26,1.24-.52,2.19-1.36,2.88-2.52,1.15-1.93,1.66-4.03,1.53-6.42h.01Z"/>
    <path class="cls-3" d="M142.74,173.51c-2.94,0-5.89-.03-8.82,0-1.66.01-2.44-.55-2.45-2.39-.09-14.08-.25-28.17-.44-42.24-.01-1.4.5-1.79,1.79-1.72,1.98.09,3.97.09,5.95.05,1.2-.03,1.74.35,1.68,1.64-.29,7.92-.52,15.83-.76,23.76-.07,2.19-.09,4.37-.12,6.57-.03,2.66.27,2.86,2.99,2.49,3.38-.47,6.77-.82,10.15-1.31,1.2-.17,1.67.27,1.64,1.41-.08,3.28.07,6.55-.3,9.83-.16,1.44-.81,1.88-2.09,1.88h-9.23s0,.01,0,.03Z"/>
    <path class="cls-3" d="M182.59,173.51c-2.81,0-5.61.03-8.42,0-2.68-.04-2.79-.18-2.82-2.79-.16-14.02-.3-28.05-.5-42.07-.01-1.07.25-1.5,1.34-1.46,2.11.07,4.24.08,6.37.05,1.21-.01,1.74.48,1.71,1.71-.21,7.45-.38,14.91-.57,22.36-.07,2.66-.22,5.33-.27,7.99-.05,2.56.26,2.77,2.88,2.4,3.38-.46,6.79-.82,10.17-1.32,1.29-.2,1.8.23,1.75,1.49-.13,3.21.04,6.42-.25,9.63-.16,1.71-.93,2.02-2.35,2-3.02-.04-6.02,0-9.03,0v.03h-.01Z"/>
  </g>
</svg>