<?xml version="1.0" encoding="UTF-8"?>
<svg id="Layer_1" data-name="Layer 1" xmlns="http://www.w3.org/2000/svg" viewBox="0 0 185.27 157.94">
  <defs>
    <style>
      .cls-1 {
        fill: #70574b;
      }

      .cls-2 {
        fill: #f5d43c;
      }
    </style>
  </defs>
  <g>
    <path class="cls-2" d="M.46,59.17v-3.62c.09.12.22.14.27.01.06-.16.09-.35.07-.53-.13-2.07.6-3.82,1.97-5.32.45-.49.82-1.09,1.66-1.08,3.71.03,7.43.03,11.14.04,2.23,0,4.46,0,6.69,0,1.53-.01,2.31-.83,2.26-2.38-.05-1.67-.25-3.35-.13-5.01.17-2.38-.05-4.75.11-7.11.13-1.94-.89-3.52-3.42-3.42-3.85.15-7.72.03-11.57.05-.68,0-.82-.14-.57-.8.57-1.45,1.52-2.52,2.93-3.12,1.23-.52,2.56-.62,3.87-.62,6.12-.02,12.23-.01,18.35-.01,4.16,0,8.32,0,12.48,0,6.63,0,13.26,0,19.89,0,1.29,0,2.58,0,3.87.16,2.03.25,3.39,1.65,3.39,3.71,0,6.56-.02,13.13-.03,19.69,0,4.22.03,8.44.03,12.66,0,2.01-1.26,3.23-3.27,3.24-.93,0-1.87-.06-2.8.02-.79.07-1.15-.17-1.37-.96-.48-1.67-1.35-3.17-2.76-4.23-4.64-3.49-11.53-1.15-13.15,4.46-.14.49-.32.72-.91.72-6.9-.02-13.8-.01-20.7,0-.52,0-.68-.17-.85-.66-1.26-3.85-4.35-6.42-8.75-6.08-3.2.25-6.42,2.91-7.32,6.13-.12.45-.3.64-.8.61-.87-.05-1.75.04-2.62-.02-2.66-.2-5.38.53-7.98-.54v-2.71c1.65,0,3.29.01,4.94-.02.98-.02,1.79-.88,1.74-1.79-.04-.86-.69-1.46-1.66-1.39-1.68.12-3.35-.01-5.03-.05ZM40.09,48.68s0-.01,0-.02c2.83,0,5.66.01,8.49,0,1.44,0,2.64-1,2.86-2.38.09-.56.07-1.14.07-1.71-.04-3.36-.07-6.71.06-10.07.09-2.36-1.19-3.73-3.52-3.73-5.33,0-10.66.06-15.99-.04-1.74-.03-3.05,1.63-3.03,2.99.05,4-.02,8.01.06,12.01.04,1.79.94,3,2.96,2.96,2.68-.05,5.36-.01,8.04-.01ZM69.93,39.82c0-2.14,0-4.28,0-6.42,0-1.47-1.13-2.61-2.62-2.62-3.16-.02-6.32-.02-9.48,0-1.64,0-2.76,1.02-2.93,2.64-.21,1.96.02,3.93-.03,5.9-.06,2.28-.03,4.55.03,6.83.04,1.47,1.16,2.53,2.62,2.54,3.34.02,6.69.02,10.03,0,1.53-.01,2.38-.9,2.39-2.44.01-2.14,0-4.28,0-6.42Z"/>
    <path class="cls-1" d="M.46,65.14v3.62c.25.03.49.07.74.1v-3.46c-.25-.07-.49-.16-.74-.26Z"/>
    <path class="cls-1" d="M185.74,65.75v-.06c-.06.02-.11.06-.17.06-3.3,0-6.6.01-9.91.02-.47,0-.41-.31-.41-.62,0-1.41.02-2.83-.01-4.24-.01-.56.04-.91.76-.81.52.07.99-.13,1.27-.65.35-.64.2-1.59-.42-2.21-1.09-1.11-2.2-2.2-3.3-3.31-2.58-2.6-5.14-5.22-7.72-7.82-3.06-3.09-6.15-6.15-9.18-9.27-.49-.51-1.26-.92-1.3-1.76-.05-1.14,0-2.29-.01-3.43,0-.3.03-.49.41-.54,1.98-.29,3.92-.41,5.77.63,1.13.64,2.26,1.33,3.51,1.73,2.19.69,4.39.44,6.56-.07.96-.23,1.55-1.03,1.53-2.04-.07-2.68-.05-5.36-.04-8.04.01-1.95-.35-2.36-2.34-2.31-1.81.05-3.6.06-5.26-.81-.84-.44-1.64-.98-2.5-1.36-2.43-1.06-5-.97-7.59-.85,0-.4,0-.79,0-1.18,0-.39,0-.79-.04-1.17-.08-.8-.89-1.57-1.75-1.68-.89-.12-1.79.41-2.05,1.25-.12.39-.18.81-.18,1.24,0,5.56-.14,11.13.21,16.68.12,1.89-.32,3.3-1.83,4.41-.45.33-.81.79-1.21,1.2-6.13,6.16-12.3,12.28-18.33,18.53-.6.62-.75,1.3-.54,2.05.21.74.91.83,1.54.82.39,0,.44.09.44.43.02,1.98.05,3.96.11,5.94.06,1.77-.03,3.57-.06,5.35-.1,6.07-.06,12.15-.07,18.22,0,1.29.84,2.07,2.1,2.04,2.71-.05,5.42-.13,8.13-.13,2.94,0,5.88.07,8.82.05,3.89-.03,7.78.02,11.67-.03,3.23-.04,6.46-.01,9.7,0,3.26.02,6.52-.09,9.78.02.92.03,1.84,0,2.75-.05h1.16c.33,0,.6-.27.6-.6v-25.01c0-.33-.27-.6-.6-.6h0ZM155.94,21.15c2.76-.35,5.34.1,7.73,1.57,1.7,1.04,3.55,1.56,5.54,1.52.47,0,.68.05.68.62-.02,1.6.03,3.19.07,4.79.01.47-.08.69-.65.81-2.14.47-4.01-.11-5.82-1.17-1.7-1-3.53-1.63-5.53-1.57-.69.02-1.38.08-2.05.23-.49.11-.58-.02-.57-.46.02-.96,0-1.92,0-2.88h0c0-.93.02-1.86,0-2.79-.01-.45.14-.61.61-.66ZM158.37,87.32c-.03.41-.02.83,0,1.25.02.37-.24.27-.42.27-2.89,0-5.78,0-8.67.01-.45,0-.47-.21-.46-.55.01-1.55,0-3.11,0-4.95.14-1.52-.17-3.32.16-5.12.43-2.37,2.32-3.51,3.82-3.69,2.73-.32,4.9,1.43,5.3,3.4.3,1.5.38,3.04.25,4.55-.14,1.62.11,3.22.01,4.82ZM172.18,73.11c0,5,0,10.01.01,15.01,0,.57-.11.76-.72.75-3.13-.03-6.26-.03-9.38.01-.68,0-.74-.2-.73-.81.09-3.17.07-6.34-.06-9.5-.16-3.76-3.63-6.95-7.39-7.12-3.65-.17-7.08,2.45-7.88,5.59-.47,1.83-.25,3.71-.27,5.57-.03,1.84-.01,3.68.02,5.51.01.57-.13.77-.74.77-3.25-.04-6.5-.04-9.75-.03-.45,0-.52-.13-.52-.56,0-5.93-.05-11.85-.06-17.78,0-2.67.04-5.34.04-8,0-1.55,0-3.1-.05-4.65-.01-.54.26-.9.6-1.25,5.04-5.09,10.09-10.19,15.13-15.29.85-.86,1.68-1.72,2.5-2.61.33-.36.55-.37.91,0,3.47,3.52,6.97,7.01,10.45,10.52,2.4,2.42,4.78,4.87,7.19,7.28.5.5.71,1.03.71,1.74-.03,4.94-.01,9.88-.01,14.83ZM183.67,88.95c-1.31,0-2.61-.08-3.92-.05-1.28.03-2.57-.03-3.86-.02-.51,0-.65-.16-.65-.67.01-6.17.01-12.33-.02-18.5,0-.76.21-.93.97-.91,2.49.07,4.98.07,7.48.08v20.06Z"/>
    <path class="cls-1" d="M183.67,68.89v20.06c-1.31,0-2.61-.08-3.92-.05-1.28.03-2.57-.03-3.86-.02-.51,0-.65-.16-.65-.67.01-6.17.01-12.33-.02-18.5,0-.76.21-.93.97-.91,2.49.07,4.98.07,7.48.08Z"/>
    <path class="cls-2" d="M184.11,88.84c-2,.23-2.37,0-4.37.05-1.28.03-2.57-.03-3.86-.02-.51,0-.65-.16-.65-.67.01-6.16.01-12.33-.02-18.49,0-.76.21-.93.97-.91,3.03.08,4.44.07,7.48.09.15,0,.3.03.44.04v19.9Z"/>
    <path class="cls-1" d="M.46,59.17c1.67.04,3.35.17,5.03.05.97-.07,1.62.54,1.66,1.39.04.91-.76,1.77-1.74,1.79-1.65.03-3.29.01-4.94.02v-3.26Z"/>
    <path class="cls-1" d="M103.41,143.94c-3.94,0-7.88.05-11.82-.03-1.26-.03-2.51.11-3.77-.04-1.03-.13-1.4-.38-1.45-1.4-.08-1.56.03-3.12.21-4.67.06-.51-.05-.75-.65-.9-3.61-.94-6.56-2.93-8.94-5.8-.61-.73-.98-1.54-.71-2.47.18-.63-.13-.83-.55-1.08-1.4-.82-2.69-1.78-3.73-3.05-1.72-2.1-2.68-4.36-1.73-7.1.11-.31.19-.64.47-.84.48-.36.56-.87.65-1.41.23-1.34.69-2.54,2.18-2.97.29-.08.39-.35.51-.6,1.07-2.13,2.78-3.03,5.1-2.66.39.06.6-.11.83-.37,2.05-2.32,4.11-4.64,6.18-6.94,1.58-1.76,3.42-3.2,5.63-4.08.62-.25.81-.62.72-1.23,0-.03,0-.06,0-.09-.11-2.16-.25-2.3-2.37-2.29-3.18.01-6.09-.71-8.51-2.92-1.68-1.54-2.59-3.49-3.03-5.67-.27-1.35-.33-2.74-.2-4.12.04-.43-.13-.61-.51-.81-1.09-.57-2.11-1.21-2.64-2.45-.62-1.44-.2-2.8,1.03-3.82.55-.46,1.14-.87,1.73-1.27,1.11-.73,1.19-1.9,1.25-3.03.09-1.59.34-3.16.63-4.71.19-1.01.09-1.94-.16-2.92-.51-2,.12-3.84,1.07-5.55,2.66-4.79,6.98-7.28,12.09-8.71,3.55-.99,7.18-1.23,10.78-.84,4.87.52,9.51,1.98,13.47,5.02,2.36,1.81,4.31,4,5.56,6.78,1.29,2.89,2.1,5.85,2.24,9.02.15,3.41-.57,6.62-1.96,9.69-2.52,5.56-6.67,9.45-12.31,11.74-.29.12-.56.19-.58.57-.04,1.21.01,2.4.42,3.55.12.34.31.57.7.6,1.76.16,3.25.94,4.64,1.96.45.33.92.46,1.5.43,1.97-.09,3.97-.3,5.93-.15,4.43.34,7.96,2.32,10.38,6.15,1.57,2.48,2.23,5.25,2.65,8.09.44,2.94.6,5.91.56,8.89,0,.18.04.38,0,.54-.94,3.02-.13,6.11-.33,9.16-.1,1.55,0,3.13-.4,4.65-.72,2.71-2.7,4.03-5.29,4.61-1.58.36-3.19.47-4.81.6-1.53.12-3.05.13-4.58.22-.34.02-.54.15-.52.55.04.75.03,1.51.03,2.26,0,1.54-.53,2.06-2.07,1.96-4.17-.26-8.35-.07-12.52-.15-.99-.02-1.99,0-2.98,0,0,.03,0,.06,0,.09ZM96.72,130.81c-.42-.49-.02-.89.15-1.31.77-1.9,1.07-3.87.82-5.92-.61,1.15-1.18,2.31-1.68,3.5-1.56,3.68-3.22,7.29-7.03,9.59,2.06-.22,3.66-.93,5.05-2.15.52-.45.85-1.1,1.51-1.38,1.98,1.53,4.22,2.47,6.68,2.9,1.46.25,1.64.1,1.37-1.31-.03-.18-.16-.35-.14-.52.08-.62-.31-.76-.79-.84-2.19-.37-4.19-1.16-5.93-2.56ZM83.91,61.38c-.79,2.05-1.2,4-1.48,5.98-.22,1.54-.31,3.1-.57,4.63-.29,1.7-1.57,2.69-2.88,3.64-1.36.98-1.27,1.62.3,2.35.19.09.39.14.6.19,1,.22,1.31.57,1.31,1.59,0,.93-.04,1.86-.05,2.79,0,.3-.03.65.4.67,1.62.08,3.21-.04,4.36-1.36.52-.6,1.01-.83,1.7-.41.71.44.76,1.11.47,1.81-.39.96-1.15,1.55-2.08,1.98-1.19.55-2.44.81-3.73.78-.67-.02-.54.24-.36.61.4.77.79,1.56,1.44,2.15,1.84,1.65,4.04,2.36,6.5,2.29.63-.02,1.27-.06,1.9-.03,1.12.05,2.04.31,2.64,1.47.53,1.03.64,2.1.86,3.17.05.24-.05.63.39.55,1.32-.23,2.68-.36,3.95-.77,2.4-.77,4.82-1.39,7.34-1.55.57-.03.74-.29.65-.8-.19-1.01-.2-2.04-.21-3.06,0-.43-.18-.68-.61-.87-1.29-.57-2.45-1.3-3.47-2.34-1.34-1.38-2.1-3.1-3.08-4.7-.51-.84-.07-1.48.94-1.44,2.73.1,5.75-1.79,6.14-5.1.19-1.64-.24-2.94-1.5-3.87-1.31-.97-2.79-.96-4.18-.07-.79.51-1.41,1.22-1.91,2.02-.39.62-.87.95-1.62.88-.75-.07-1.11-.63-1.31-1.21-.43-1.22-1.14-2.29-1.74-3.41-.45-.83-1.1-1.34-2.12-1.59-2.84-.69-5.18-2.23-7.06-4.49-.63-.75-1.2-1.56-1.95-2.47ZM113.86,99.68c1.21.57,2.28,1.32,3.22,2.23,2.51,2.46,3.62,5.6,4.05,8.99.3,2.35.39,4.73.55,7.1.1,1.39.41,1.73,1.79,1.8.57.03,1.14.03,1.71,0,.68-.03,1.56.28,2-.14.46-.43.07-1.31.1-1.99.05-1.05.34-1.31,1.66-1.32q1.4,0,1.43,1.22.04,1.9,1.95,1.86c1.88-.03,1.95-.12,1.71-1.94-.02-.18-.03-.36-.03-.54-.12-3.42-.36-6.82-1.48-10.08-1.01-2.94-2.55-5.46-5.65-6.7-1.68-.67-3.36-.91-5.16-.87-2.61.06-5.22.11-7.86.38ZM133.64,127.44s-.01,0-.02,0c0-1.11,0-2.23,0-3.34q0-1.8-1.76-1.79-1.31,0-1.31,1.34,0,1.7-1.7,1.98c-.09.01-.18.01-.25.06-.73.46-.97-.12-1.09-.6-.15-.6-.19-1.25-.17-1.87.01-.5-.17-.58-.61-.58-1.44.01-2.89.04-4.33-.06-.57-.04-.72-.02-.71.58.07,4.04.13,8.09.12,12.13,0,.89.4,1,1.07.92,2.32-.26,4.66-.24,6.97-.67,2.62-.49,3.66-1.39,3.78-4.41.05-1.23,0-2.47,0-3.7ZM111.39,124.77h0c0-3.68-.01-7.35.01-11.03,0-.64-.11-.9-.83-.85-1.2.09-2.41.12-3.61.06-.82-.04-1.03.24-1.03,1.02.06,6.38-.21,12.76.2,19.14.12,1.78.29,2.76,2.64,3.25.63.13,1.26.01,1.89.09.6.07.74-.16.73-.75-.03-3.65-.01-7.29-.01-10.94ZM114.44,124.68h0c0,3.7.02,7.4-.02,11.09,0,.59.18.71.71.68.9-.05,1.81-.09,2.71-.05.88.04,1.12-.37,1.1-1.16-.06-2.37-.12-4.74-.13-7.11-.02-4.82.07-9.63-.3-14.44-.04-.57-.16-.88-.83-.81-.72.07-1.45.08-2.16.01-.84-.08-1.11.14-1.1,1.05.06,3.58.03,7.16.03,10.74ZM83.87,117.81c.09-.76-.03-1.47-.42-2.14-.69-1.23-1.72-2.14-2.78-3.03-.6-.5-1.27-.87-2.05-1.01-1.07-.18-2.03.66-2,1.74.02.79-.7,1.49-1.57,1.52-.84.03-1.14.4-.8,1.16.39.86-.03,1.49-.55,1.99-1,.97-1.18,1.74-.58,3.02.82,1.73,2.25,2.83,3.77,3.87.57.39.87.36,1.22-.28,1.09-1.98,2.8-3.35,4.75-4.37.71-.37.91-.84.98-1.49.04-.33,0-.66,0-.99ZM112.5,110.11c0-.07,0-.15,0-.22,1.67,0,3.35,0,5.02,0,.37,0,.67-.05.53-.54-.68-2.47-1.64-4.77-3.8-6.35-2.46-1.79-5.38-1.12-6.88,1.55-.85,1.51-1.12,3.11-1.13,4.82,0,.74.28.76.83.75,1.8-.02,3.61,0,5.42,0ZM106.71,100.89c-.76-.68-1.67-.91-2.52-1.25-4.19-1.67-8.2-1.18-12.11.9-2.12,1.13-3.72,2.82-5.26,4.61-1.39,1.62-2.87,3.17-4.17,4.87-.14.19-.37.35-.06.59.25.19.39-.02.53-.16.43-.42.86-.85,1.27-1.29,1.84-1.98,3.58-4.02,5.81-5.62,4.13-2.96,8.48-3.3,13.1-1.47.57.23,1.14.95,1.6.87.44-.08.73-.93,1.11-1.42.18-.23.44-.41.69-.64ZM86.71,111.23c-.59.2-.81.58-1.12.85-.93.82-.92.83.04,1.75.35-.84.69-1.66,1.08-2.6Z"/>
    <path class="cls-1" d="M15.15,100.85c-.67.38-1.06,1.18-1.98.91-1.32-.39-1.7-1.72-.69-2.72,1.55-1.54,3.16-3.01,4.73-4.54,2.62-2.56,5.22-5.15,7.85-7.71,2.51-2.45,5.05-4.88,7.58-7.32.86-.83,1.73-1.67,2.59-2.51.87-.85,1.97-.83,2.86,0,2.67,2.47,5.17,5.11,7.81,7.61,3.84,3.62,7.56,7.37,11.37,11.02,1.15,1.1,2.34,2.16,3.46,3.31.84.86.94,1.73.25,2.44-.69.71-1.52.63-2.43-.21-.06-.06-.14-.1-.26-.18-.19.31-.11.64-.11.95,0,7.02,0,14.03,0,21.05,0,1.44-.49,1.91-1.96,1.91-5.23,0-10.45,0-15.68.01-7.58,0-15.16,0-22.75,0-.18,0-.36-.01-.54-.02-1.4-.05-1.97-.62-1.97-1.99-.01-3.94-.01-7.88-.01-11.82,0-3.09.01-6.17.01-9.26,0-.29.1-.6-.14-.93ZM18.31,99.63c-.07.2-.11.25-.11.3,0,7.05,0,14.1-.02,21.15,0,.55.14.71.71.7,3.25-.03,6.51-.05,9.76.02.89.02.95-.32.94-1.04-.05-2.35-.1-4.69-.06-7.04.08-4.58,3.83-7.7,8.15-7.18,3.62.44,6.39,3.42,6.39,7.08,0,2.5,0,5,0,7.5,0,.41.02.65.56.65,3.34-.02,6.69-.02,10.03,0,.43,0,.58-.13.56-.57-.05-1.05-.08-2.09-.07-3.14.02-1.7.21-3.41.09-5.1-.18-2.53-.06-5.05-.06-7.58,0-1.97-.1-3.93-.09-5.92-.35.06-.41.31-.57.48-.6.67-1.23,1.3-2.05,1.74-2.96,1.6-6.89,1.12-9.21-1.56-.35-.4-.53-.32-.79.02-.63.82-1.41,1.5-2.36,1.87-2.94,1.13-6.54.99-8.88-1.72-.58-.67-.88-.46-1.35.04-1.25,1.33-2.81,2.12-4.64,2.23-2.74.17-5.13-.61-6.93-2.95ZM49.27,99.73c1.45-.09,2.71-.88,3.55-2.42.42-.77.47-1.28-.25-1.97-5.18-4.99-10.32-10.02-15.45-15.06-.37-.36-.58-.37-.94,0-2.34,2.33-4.71,4.64-7.07,6.95-2.86,2.8-5.72,5.59-8.57,8.4-.24.24-.61.4-.43.96.56,1.75,2.25,3.1,4.07,3.12,2.58.04,4.13-1.11,4.95-3.7.21-.67.51-1.21,1.34-1.21.81,0,1.17.49,1.43,1.14.14.36.24.74.43,1.08,1.4,2.48,4.42,3.56,6.9,1.99,1.21-.77,1.81-1.95,2.39-3.18.31-.67.83-1.08,1.64-1.01.77.07.92.66,1.08,1.25.58,2.18,2.41,3.62,4.94,3.67ZM36.72,121.78h0c1.3,0,2.59,0,3.89,0,.27,0,.51.08.49-.39-.06-1.39-.06-2.79-.09-4.18-.02-1.5.12-3-.17-4.49-.41-2.07-2.2-3.47-4.48-3.21-2.02.23-3.48,1.52-3.7,3.63-.28,2.69-.08,5.4-.18,8.1-.02.41.07.58.54.57,1.23-.04,2.47-.01,3.7-.01Z"/>
    <path class="cls-1" d="M118.6,32.12c-2.36-1.23-4.74-2.11-7.26-2.61-2.41-.49-4.84-.82-7.29-.81-3.99,0-7.91.52-11.66,1.97-2.03.78-4.03,1.63-5.82,2.91-1.22.87-2.1.87-2.81.08-.63-.7-.64-1.61.08-2.22,1.34-1.16,2.85-2.03,4.42-2.85,3.1-1.63,6.45-2.46,9.87-2.96,2.53-.37,5.11-.46,7.7-.31,2.54.15,5.06.37,7.49,1.13,1.87.58,3.76,1.1,5.53,1.98.15.07.28.25.58.07-.83-1.52-1.67-3.04-2.5-4.56-.32-.58-.65-1.14-.95-1.73-.53-1.05-.28-2,.62-2.48.85-.45,1.74-.15,2.33.86.88,1.52,1.72,3.07,2.58,4.6,1.14,2.02,2.15,4.11,3.41,6.06.66,1.02.29,2.2-.88,2.62-3.72,1.33-7.45,2.65-11.19,3.9-1.63.54-2.69-.27-2.56-1.79.07-.79.63-1.16,1.25-1.37,2.21-.77,4.44-1.49,6.66-2.23.11-.04.2-.12.41-.25Z"/>
    <path class="cls-1" d="M147.06,124.25c2.54-.8,4.84-1.86,6.98-3.28,2.05-1.36,4-2.84,5.73-4.58,2.82-2.83,5.22-5.96,6.86-9.64.89-1.99,1.69-4,2.05-6.17.25-1.48.87-2.1,1.92-2.04.95.05,1.59.69,1.52,1.63-.13,1.76-.58,3.45-1.11,5.14-1.04,3.35-2.83,6.3-4.88,9.07-1.53,2.06-3.29,3.94-5.22,5.66-1.9,1.69-3.84,3.31-6.1,4.5-1.73.91-3.44,1.88-5.31,2.51-.16.05-.38.02-.46.36,1.66.49,3.33.97,5,1.46.63.18,1.27.34,1.89.55,1.11.37,1.61,1.22,1.31,2.19-.28.92-1.13,1.34-2.26,1.04-1.7-.45-3.38-.95-5.07-1.43-2.23-.62-4.43-1.39-6.7-1.87-1.19-.25-1.76-1.35-1.23-2.47,1.69-3.57,3.39-7.14,5.16-10.67.77-1.54,2.09-1.71,3.07-.54.51.6.37,1.27.09,1.86-1.02,2.11-2.09,4.19-3.13,6.28-.05.1-.06.23-.11.47Z"/>
    <path class="cls-1" d="M179.55,108.43c.57.03.84.28.93.82.18,1.18.15,2.38.46,3.55.6,2.29,1.98,3.68,4.29,4.16.26.05.52.13.77.22.47.18,1.04.34.94,1.01-.08.55-.45.84-1.04.95-1.08.21-2.12.52-3.03,1.23-1.49,1.16-2,2.77-2.25,4.53-.1.68-.15,1.38-.18,2.06-.02.57-.27.95-.82.99-.57.04-.88-.26-1.03-.88-.24-1-.15-2.02-.29-3.02-.36-2.59-1.93-3.99-4.26-4.74-.45-.15-.91-.26-1.38-.38-.45-.11-.75-.34-.74-.86.01-.53.34-.72.78-.83.4-.1.81-.19,1.2-.33,3.21-1.09,4.14-2.84,4.54-5.96.07-.54.1-1.08.18-1.61.08-.55.45-.8.91-.92Z"/>
    <path class="cls-1" d="M40.09,48.68c-2.68,0-5.36-.04-8.04.01-2.03.04-2.93-1.17-2.96-2.96-.08-4-.02-8.01-.06-12.01-.02-1.36,1.3-3.03,3.03-2.99,5.33.1,10.66.04,15.99.04,2.33,0,3.62,1.37,3.52,3.73-.13,3.35-.1,6.71-.06,10.07,0,.57.02,1.15-.07,1.71-.23,1.38-1.42,2.37-2.86,2.38-2.83.02-5.66,0-8.49,0,0,0,0,.01,0,.02ZM41.71,39.73s-.01,0-.02,0c0,1.74.02,3.48,0,5.22,0,.5.14.66.65.66,1.84-.03,3.67-.02,5.51,0,.54,0,.57-.27.56-.68,0-3.5,0-7,.02-10.5,0-.49-.15-.61-.61-.6-1.88.03-3.77.02-5.65.04-.31,0-.46.19-.46.53.01,1.77,0,3.55,0,5.32ZM32.12,39.64c0,1.75.01,3.49,0,5.24,0,.53.12.73.71.71,1.53-.04,3.06-.01,4.59.01,1.16.02,1.2-.01,1.2-1.19,0-3.32-.02-6.64,0-9.96,0-.44-.04-.63-.56-.62-1.77.04-3.55.04-5.33,0-.54-.01-.64.18-.63.66.03,1.71.01,3.43.01,5.14Z"/>
    <path class="cls-1" d="M69.93,39.82c0,2.14,0,4.28,0,6.42,0,1.54-.85,2.42-2.39,2.44-3.34.03-6.69.03-10.03,0-1.46,0-2.58-1.07-2.62-2.54-.06-2.28-.09-4.55-.03-6.83.05-1.97-.18-3.94.03-5.9.17-1.62,1.29-2.63,2.93-2.64,3.16-.01,6.32-.01,9.48,0,1.49,0,2.61,1.15,2.62,2.62,0,2.14,0,4.28,0,6.42ZM58,39.63s0,0,.01,0c0,1.69.04,3.37-.02,5.06-.02.71.15.94.89.92,2.1-.05,4.2-.02,6.31-.01,1.73.01,1.73.02,1.66-1.73,0-.15,0-.3,0-.45,0-2.98,0-5.96.02-8.94,0-.51-.14-.66-.65-.65-2.53.03-5.06.03-7.6,0-.53,0-.65.16-.64.66.03,1.72.01,3.43.01,5.15Z"/>
    <path class="cls-2" d="M172.18,73.11c0,5,0,10.01.01,15.01,0,.57-.11.76-.72.75-3.13-.03-6.26-.03-9.38.01-.68.01-.74-.2-.73-.81.08-3.17.07-6.34-.06-9.5-.16-3.76-3.63-6.95-7.39-7.12-3.65-.17-7.08,2.45-7.88,5.59-.47,1.83-.25,3.71-.27,5.57-.03,1.84-.01,3.68.02,5.51.01.57-.13.77-.74.77-3.25-.04-6.5-.04-9.75-.03-.45,0-.52-.13-.52-.56,0-5.93-.05-11.85-.06-17.78,0-2.67.04-5.34.04-8,0-1.55,0-3.1-.04-4.65-.01-.55.26-.9.6-1.25,5.04-5.09,10.09-10.19,15.13-15.28.85-.86,1.68-1.72,2.5-2.61.34-.36.55-.37.91,0,3.47,3.52,6.97,7.01,10.45,10.52,2.4,2.42,4.77,4.87,7.18,7.28.5.5.71,1.03.71,1.75-.03,4.94-.02,9.88-.01,14.83ZM141.04,59.98s-.02,0-.03,0c0,1.17-.02,2.35,0,3.52.02,1.1.63,1.74,1.73,1.79,1.02.04,2.05.04,3.07,0,1.14-.04,1.86-.77,1.87-1.87.01-2.25,0-4.51-.03-6.76-.02-1.19-.88-1.99-2.08-2.01-.9-.01-1.81-.02-2.71,0-1.12.03-1.79.69-1.82,1.8-.03,1.17,0,2.34,0,3.51ZM166.23,59.98s-.02,0-.03,0c0-1.23.03-2.47,0-3.7-.04-1.14-.58-1.62-1.7-1.62-.96,0-1.93,0-2.89,0-1.16.01-2.02.77-2.04,1.94-.05,2.26-.05,4.52,0,6.77.03,1.18.79,1.89,1.96,1.92.99.03,1.99.01,2.97-.04,1.19-.07,1.73-.66,1.74-1.84.01-1.14,0-2.29,0-3.43ZM156.96,59.93c0-1.11.01-2.23,0-3.34-.02-1.26-.7-1.93-1.96-1.95-.93-.01-1.86-.02-2.8,0-1.05.02-1.9.82-1.91,1.86-.03,2.26-.04,4.51,0,6.77.02,1.32.8,2.02,2.11,2.03.78,0,1.56-.01,2.35,0,1.47,0,2.19-.7,2.21-2.2,0-1.05,0-2.11,0-3.16Z"/>
    <path class="cls-2" d="M155.34,24.61c0-.93.02-1.86,0-2.79-.01-.45.14-.6.61-.66,2.76-.35,5.34.11,7.73,1.57,1.7,1.03,3.55,1.56,5.54,1.52.47,0,.68.05.68.62-.02,1.6.03,3.19.07,4.79.01.48-.08.69-.65.81-2.14.47-4.01-.11-5.82-1.17-1.7-1-3.53-1.63-5.53-1.57-.69.02-1.38.08-2.05.23-.49.11-.58-.02-.57-.46.02-.96,0-1.92,0-2.88,0,0,0,0,0,0Z"/>
    <path class="cls-2" d="M113.86,99.68c2.64-.27,5.25-.32,7.86-.38,1.8-.04,3.48.2,5.16.87,3.1,1.24,4.64,3.76,5.65,6.7,1.12,3.26,1.36,6.67,1.48,10.08,0,.18,0,.36.03.54.24,1.82.17,1.91-1.71,1.94q-1.92.03-1.95-1.86-.02-1.23-1.43-1.22c-1.32,0-1.61.27-1.66,1.32-.03.68.36,1.56-.1,1.99-.45.42-1.32.11-2,.14-.57.02-1.14.02-1.71,0-1.38-.06-1.7-.4-1.79-1.8-.16-2.37-.25-4.75-.55-7.1-.43-3.38-1.55-6.52-4.05-8.99-.93-.92-2.01-1.66-3.22-2.23Z"/>
    <path class="cls-2" d="M133.64,127.44c0,1.23.04,2.47,0,3.7-.12,3.02-1.16,3.92-3.78,4.41-2.31.43-4.65.41-6.97.67-.67.07-1.07-.03-1.07-.92.01-4.04-.05-8.09-.12-12.13,0-.6.14-.62.71-.58,1.44.11,2.88.07,4.33.06.44,0,.62.08.61.58-.02.62.02,1.27.17,1.87.12.48.37,1.06,1.09.6.07-.04.17-.04.25-.06q1.69-.28,1.7-1.98,0-1.34,1.31-1.34,1.76-.01,1.76,1.79c0,1.11,0,2.23,0,3.34,0,0,.01,0,.02,0Z"/>
    <path class="cls-2" d="M111.39,124.77c0,3.65-.01,7.29.01,10.94,0,.59-.13.82-.73.75-.62-.08-1.25.04-1.89-.09-2.35-.48-2.53-1.47-2.64-3.25-.42-6.37-.14-12.76-.2-19.14,0-.78.2-1.07,1.03-1.02,1.2.06,2.41.03,3.61-.06.72-.05.84.21.83.85-.03,3.68-.01,7.35-.01,11.03h0Z"/>
    <path class="cls-2" d="M114.44,124.68c0-3.58.04-7.16-.03-10.74-.02-.91.26-1.13,1.1-1.05.72.07,1.45.06,2.16-.01.68-.07.79.24.83.81.38,4.81.29,9.63.3,14.44,0,2.37.06,4.74.13,7.11.02.8-.22,1.21-1.1,1.16-.9-.04-1.81,0-2.71.05-.53.03-.71-.09-.71-.68.03-3.7.02-7.4.02-11.09h0Z"/>
    <path class="cls-2" d="M112.5,110.11c-1.81,0-3.61-.01-5.42,0-.55,0-.83-.01-.83-.75,0-1.71.28-3.31,1.13-4.82,1.5-2.66,4.41-3.34,6.88-1.55,2.16,1.58,3.12,3.88,3.8,6.35.14.5-.16.55-.53.54-1.67,0-3.35,0-5.02,0,0,.07,0,.15,0,.22Z"/>
    <path class="cls-2" d="M106.71,100.89c-.26.23-.51.41-.69.64-.39.49-.67,1.33-1.11,1.42-.46.08-1.02-.64-1.6-.87-4.62-1.83-8.97-1.5-13.1,1.47-2.23,1.6-3.97,3.64-5.81,5.62-.41.44-.84.87-1.27,1.29-.14.13-.27.35-.53.16-.31-.24-.08-.41.06-.59,1.3-1.7,2.78-3.25,4.17-4.87,1.53-1.79,3.13-3.48,5.26-4.61,3.92-2.08,7.93-2.57,12.11-.9.85.34,1.76.56,2.52,1.25Z"/>
    <path class="cls-2" d="M95.53,133.14c.24-.85.79-1.55,1.19-2.32,1.74,1.4,3.74,2.2,5.93,2.56.48.08.87.21.79.84-.02.16.11.34.14.52.27,1.41.09,1.56-1.37,1.31-2.46-.43-4.7-1.37-6.68-2.9Z"/>
    <path class="cls-2" d="M49.27,99.73c-2.53-.05-4.36-1.49-4.94-3.67-.16-.59-.3-1.18-1.08-1.25-.81-.07-1.32.34-1.64,1.01-.58,1.23-1.17,2.42-2.39,3.18-2.48,1.57-5.5.5-6.9-1.99-.19-.33-.28-.72-.43-1.08-.26-.65-.62-1.15-1.43-1.14-.84,0-1.13.54-1.34,1.21-.82,2.58-2.37,3.73-4.95,3.7-1.82-.03-3.51-1.37-4.07-3.12-.18-.55.19-.72.43-.96,2.85-2.81,5.72-5.6,8.57-8.4,2.36-2.31,4.72-4.62,7.07-6.95.36-.36.58-.35.94,0,5.14,5.04,10.27,10.07,15.45,15.06.72.69.67,1.2.25,1.97-.84,1.54-2.1,2.33-3.55,2.42Z"/>
    <path class="cls-1" d="M141.04,59.98c0-1.17-.02-2.34,0-3.51.03-1.11.7-1.77,1.82-1.8.9-.03,1.81-.01,2.71,0,1.2.01,2.06.81,2.08,2.01.04,2.25.04,4.51.03,6.76,0,1.11-.73,1.83-1.87,1.87-1.02.04-2.05.04-3.07,0-1.09-.05-1.7-.69-1.73-1.79-.03-1.17,0-2.35,0-3.52,0,0,.02,0,.03,0ZM144.67,60.13c0-.71,0-1.34,0-1.97,0-.21.12-.52-.28-.53-.34-.01-.45.16-.45.5,0,1.25-.11,2.5.01,3.75.02.2-.12.49.31.48.41,0,.42-.23.41-.52-.04-.59.14-1.19,0-1.7Z"/>
    <path class="cls-1" d="M166.23,59.98c0,1.14,0,2.29,0,3.43-.01,1.18-.55,1.78-1.74,1.84-.99.06-1.98.07-2.97.04-1.18-.04-1.94-.74-1.96-1.92-.05-2.26-.04-4.52,0-6.77.02-1.17.89-1.93,2.04-1.94.96,0,1.93,0,2.89,0,1.13,0,1.67.48,1.7,1.62.04,1.23,0,2.47,0,3.7.01,0,.02,0,.03,0ZM163.27,60.05s.02,0,.03,0c0-.6.02-1.2-.01-1.8-.01-.23.22-.62-.35-.63-.57,0-.52.31-.51.7.05,1.2.08,2.39.11,3.59,0,.24-.04.47.34.47.35,0,.39-.17.39-.44,0-.63,0-1.26,0-1.89Z"/>
    <path class="cls-1" d="M156.96,59.93c0,1.05,0,2.11,0,3.16-.01,1.5-.74,2.21-2.21,2.2-.78,0-1.56.01-2.35,0-1.31,0-2.08-.7-2.11-2.03-.04-2.26-.03-4.51,0-6.77.01-1.04.86-1.84,1.91-1.86.93-.02,1.86,0,2.8,0,1.26.02,1.94.68,1.96,1.95.02,1.11,0,2.23,0,3.34ZM153.29,59.85s.01,0,.02,0c0,.69,0,1.37,0,2.06,0,.24.07.39.36.39.31,0,.4-.12.4-.43-.01-1.23,0-2.46.01-3.68,0-.27.03-.55-.38-.57-.49-.02-.4.33-.41.62,0,.54,0,1.08,0,1.62Z"/>
    <path class="cls-1" d="M84.41,73.3c.06-.36.04-.77.12-1.18.16-.86.64-1.21,1.42-1.17.85.05,1.22.65,1.35,1.42.05.32.03.66,0,.99-.07,1.08-.72,1.75-1.65,1.73-.97-.02-1.24-.39-1.24-1.79Z"/>
  </g>
  <path class="cls-1" d="M76.83,38.6c-.05-3.23.35-6.51-.08-9.72-.46-2.87-2.75-5.31-5.72-5.62-10.76-.38-21.55.13-32.3-.22-4,.04-7.99.15-11.99-.03-.89-.04-1.78,0-2.67.04-1.63.04-3.26-.08-4.89.08-2.12.02-4.25-.15-6.37.15-5.15,1-7.34,5.46-8.15,10.22-.75,3.28-1.45,6.58-2.09,9.89-.64,4.64-3.61,3.63-4.19,6.73-.12,3.98.02,13.33-.03,15.81-.09,1.64,1.23,3.04,2.93,3.01,2.87.1,5.73.05,8.61.03.71-.01,1.46.1,1.88.74,1.43,3.12,3.5,5.41,7.1,5.86,3.72.59,7.47-1.56,8.77-5.08.2-.5.42-1.08.92-1.33,1.19-.4,2.58-.09,3.83-.18,5.72.15,11.54-.29,17.23.16.69.27.96,1.03,1.27,1.66,1.65,3.69,5.75,5.69,9.72,4.63,5.66-1.57,4.98-6.11,7.02-6.39,1.7-.11,3.54.09,5.17-.49,1.92-.63,3.34-2.17,3.78-4.19.45-2.32.22-4.73.29-7.08-.01-6.21-.04-12.42-.03-18.63v-.04ZM7.43,35.49c.38-1.94,1.32-1.6,2.93-1.66,3.15,0,6.28,0,9.44,0,.41,0,.91.03,1.2.28.44.37.39,1.07.39,1.61-.02,2.38-.02,4.76.01,7.14-.03.96.48,2.58-.93,2.71-4.62.09-9.24,0-13.9.03-.31,0-.73-.02-.94-.2-.28-.21-.23-.65-.16-1,.66-3.02,1.29-5.93,1.95-8.88v-.03ZM19.92,70.25c-2.22.1-3.55-2.6-2.41-4.4.99-1.73,3.59-1.94,4.78-.31,1.44,1.87.04,4.68-2.33,4.7h-.04ZM58.41,70.21c-1.57.02-2.9-1.53-2.76-3.08.1-1.34,1.33-2.6,2.64-2.7,1.24-.09,2.48.76,2.94,1.89.71,1.83-.84,3.92-2.78,3.89h-.03ZM70.48,65.66c-5.05.31-3.32-.46-5.66-3.82-2.51-3.24-7.49-3.79-10.85-1.57-3.62,2.14-2.8,5.48-5.21,5.43-6.24.02-12.47,0-18.71.02-.93.05-1.85-.12-2.26-1.09-2.26-6.47-10.71-7.68-14.7-1.97-1.97,3.41-1.12,3.11-5.29,3.01-1.72-.05-3.47.18-5.18-.02-.44-.06-1.07-.1-1.33-.4-.25-.74,0-1.58-.09-3.05-.02-2.42.02-7.61,0-9.44.07-1.29,1.06-2.44,1.91-3.36.62-.61,1.49-.79,2.34-.77,5.17.03,10.32.04,15.48.03,1.37.03,3.22-.05,3.48-1.75.21-1.18,0-2.41-.02-3.6.02-2.83.08-5.68.09-8.52.3-3.35-1.7-4.29-4.73-4.03-2.97.07-5.93.01-8.9.01-1.14.07-2.33-.12-1.51-1.54,1.33-2.63,4.5-3.09,7.17-3,10.02-.03,20.46,0,30.44-.01,7.29.03,14.6-.08,21.89.05,1.17.05,2.52.21,3.46.93,1.08.76,1.46,2.18,1.44,3.47.01,9.12-.05,18.24,0,27.37-.12,2.85.94,7.48-3.22,7.62h-.04Z"/>
  <path class="cls-1" d="M1.2,65.4v3.46c-.25-.03-.49-.07-.74-.1v-3.62c.24.1.49.19.74.26Z"/>
</svg>