<?xml version="1.0" encoding="UTF-8"?>
<svg id="Layer_1" data-name="Layer 1" xmlns="http://www.w3.org/2000/svg" viewBox="0 0 185.27 157.94">
  <defs>
    <style>
      .cls-1 {
        fill: #70574b;
      }

      .cls-2 {
        fill: #f5d43c;
      }
    </style>
  </defs>
  <path class="cls-1" d="M41.31,91.74c-.18-5.95.58-11.59,2.37-17.02,2.37-7.2,5.98-13.75,11.07-19.46,4.25-4.77,9.17-8.66,14.79-11.67,5.17-2.77,10.68-4.54,16.46-5.38,4.48-.65,9.03-.72,13.54-.26,4.22.43,8.32,1.46,12.36,2.83,4.14,1.41,7.97,3.39,11.58,5.76,4.29,2.82,8.01,6.32,11.05,10.51,3.11,4.29,5.74,8.84,7.38,13.9,1,3.09,1.79,6.24,2.25,9.48.38,2.67.45,5.35.56,8.01.11,2.56-.23,5.14-.6,7.69-.69,4.82-2.04,9.45-3.98,13.91-1.68,3.85-3.94,7.38-6.49,10.68-3.6,4.67-7.88,8.68-12.8,11.95-5.38,3.57-11.21,6.14-17.54,7.47-2.46.52-4.99.76-7.53.83-3.15.08-6.29.12-9.41-.28-3.34-.43-6.62-1.16-9.85-2.19-3.36-1.07-6.65-2.35-9.74-4-5.29-2.81-10.12-6.27-13.92-11.04-2.26-2.84-4.36-5.75-6.03-8.96-2.22-4.29-3.78-8.8-4.65-13.58-.56-3.12-1.02-6.23-.89-9.18ZM132.49,85.81c.2-2.6-.24-5.17-.56-7.72-.49-3.9-1.77-7.61-3.4-11.18-3.52-7.68-9.03-13.54-16.37-17.69-6.87-3.88-14.28-5.35-22.11-5.03-3.85.16-7.58.98-11.25,2.11-5.82,1.8-10.95,4.84-15.53,8.83-5.41,4.72-9.48,10.44-12.31,16.99-3.51,8.14-4.64,16.66-3.42,25.49.76,5.45,2.49,10.56,5.2,15.29,2.36,4.1,5.37,7.69,9.04,10.77,3.35,2.81,7.06,4.96,11.09,6.51,5.87,2.26,11.97,2.83,18.25,2.27,4.35-.39,8.47-1.45,12.47-3.1,9.75-4.01,17.05-10.9,22.42-19.8,2.27-3.76,3.92-7.86,4.95-12.21.9-3.81,1.33-7.65,1.52-11.53ZM129.88,118.43c.51.09.8-.16,1.07-.54,1.49-2.14,3.02-4.27,4.17-6.63,1.11-2.28,1.12-2.26-1.35-2.84-.7-.16-1.16-.03-1.47.68-.65,1.49-1.54,2.84-2.47,4.16-.73,1.04-1.46,2.07-2.13,3.14-.16.26-.71.71-.21.97.77.41,1.51.92,2.39,1.06ZM137.66,94.43c-.47.01-.67.35-.81.93-.52,2.24-1.07,4.47-1.68,6.68-.74,2.69-.96,2.21,1.83,2.92.54.14.88.1,1.04-.46.69-2.43,1.54-4.83,1.89-7.35.1-.75.55-1.69.25-2.2-.39-.68-1.52-.11-2.27-.46-.03-.02-.08-.02-.26-.06ZM127.11,122.23c.01-.27-.13-.34-.27-.41-.69-.34-1.38-.66-2.06-1.02-.38-.2-.58.03-.79.26-2.07,2.31-4.28,4.46-6.78,6.31-.17.13-.44.22-.22.52.46.64,2.46,1.12,3.03.67,2.29-1.77,4.55-3.58,6.57-5.66.21-.22.36-.48.51-.67ZM140.86,88.38s.04,0,.06,0c-.17-2.14-.36-4.29-.51-6.43-.15-2.04-.13-2.02-2.1-1.94-.61.02-.8.19-.72.81.33,2.77.3,5.55.21,8.32-.03.92.32,1.2,1.1,1.32,1.78.28,2,.1,1.97-1.73,0-.12,0-.23,0-.35ZM137.84,75.58c1.21.28,1.25-.25.92-1.21-.92-2.68-1.78-5.37-2.96-7.95-.34-.76-.77-1.06-1.47-.74-.75.34-.24.92-.07,1.37.9,2.39,1.84,4.77,2.21,7.33.1.67.26,1.56,1.37,1.21ZM104.57,134.53c.83.86,1.69,1.11,2.74.6.58-.28,1.23-.44,1.83-.69,1.99-.84,4.05-1.53,5.94-2.7-1.32-1.16-2.53-1.39-3.92-.26-.64.52-1.49.78-2.26,1.13-1.42.65-2.86,1.27-4.33,1.92ZM127.85,55.37c-.15.57.24.78.44,1.09,1.01,1.49,2.04,2.97,3,4.49.34.54.81.61,1.26.52.36-.08.13-.41-.03-.64-1.37-1.94-2.9-3.73-4.67-5.46Z"/>
  <path class="cls-1" d="M172.69,139.48c-.15,1.43-1.25,1.88-2.35,2.21-1.19.36-2.37.74-3.5,1.27-2.83,1.34-3.71,3.89-4.17,6.69-.25,1.53-.4,3.07-.61,4.61-.18,1.32-.86,2.11-2.29,2.02-1.4-.08-1.84-1.06-2-2.23-.25-1.78-.19-3.6-.73-5.35-.95-3.05-2.63-5.38-5.89-6.25-.87-.23-1.71-.55-2.56-.84-.82-.28-1.36-.78-1.41-1.72-.05-.98.37-1.66,1.23-2.04.59-.26,1.22-.41,1.84-.58,5.29-1.5,7.19-5.37,7.56-10.63.05-.7.06-1.38.23-2.08.3-1.27,1.04-1.77,2.28-1.67,1.29.1,1.69.99,1.74,2.08.1,2.05.48,4.04.9,6.04.68,3.23,2.79,4.95,5.77,5.86.81.25,1.66.36,2.47.6.97.29,1.41,1.03,1.51,2Z"/>
  <path class="cls-1" d="M20.5,45.34c-.05-.59-.01-1.16.28-1.68.38-.66.95-1.07,1.71-.89.7.16,1.29.62,1.29,1.42-.01,1.76.65,3.37,1.05,5.03.67,2.84,2.25,3.69,5.1,4.19.9.16,1.69.31,1.75,1.42.06,1.05-.42,1.67-1.46,1.86-3.85.71-5.63,3.2-6.01,6.93-.08.8-.23,1.58-.24,2.4-.02,1.16-.86,2.02-1.8,1.99-.94-.02-1.67-.78-1.65-1.96.02-1.4-.29-2.75-.53-4.1-.43-2.43-2.34-4.29-4.82-4.79-.6-.12-1.22-.18-1.75-.52-.54-.35-.96-.77-.85-1.51.1-.7.55-1.09,1.15-1.32.46-.17.95-.26,1.43-.39,3.05-.8,4.49-3,5.09-5.9.14-.71.35-1.43.24-2.18Z"/>
  <path class="cls-1" d="M90.96,16.87c0-3.44,0-6.87,0-10.31,0-.96.03-1.92.09-2.88.06-1.06,1.02-2.02,1.99-2.04,1.21-.02,2.21.93,2.22,2.16.02,4.44,0,8.88.05,13.32.02,2.75.11,5.51.2,8.26.06,1.98-.64,2.97-2.17,2.98-1.41.01-2.23-.8-2.24-2.33-.02-3.06,0-6.12,0-9.17-.04,0-.08,0-.13,0Z"/>
  <path class="cls-1" d="M126.69,10.97c.07.69-.49,1.34-.87,2.02-2.4,4.31-4.85,8.6-7.27,12.9-.73,1.3-1.41,2.62-2.16,3.91-.64,1.09-1.78,1.53-2.81,1.19-1.32-.43-1.92-1.84-1.24-3.04,3.04-5.4,6.1-10.8,9.16-16.19.39-.69.8-1.38,1.2-2.07.5-.86,1.25-1.22,2.23-.99,1.09.25,1.73.91,1.78,2.27Z"/>
  <path class="cls-1" d="M73.87,29.05c.09.92-.31,1.54-1.09,1.87-.96.41-1.87.3-2.61-.51-1.04-1.15-1.58-2.61-2.33-3.93-2.65-4.73-5.22-9.5-7.83-14.25-.88-1.6-.75-2.75.41-3.38,1.33-.73,2.59-.23,3.45,1.34,2.41,4.41,4.82,8.82,7.24,13.22.81,1.47,1.66,2.92,2.49,4.38.23.41.35.84.28,1.27Z"/>
  <path class="cls-2" d="M132.49,85.81c-.18,3.88-.61,7.72-1.52,11.53-1.03,4.35-2.68,8.46-4.95,12.21-5.38,8.9-12.67,15.79-22.42,19.8-4,1.65-8.12,2.71-12.47,3.1-6.28.56-12.38-.01-18.25-2.27-4.03-1.55-7.74-3.7-11.09-6.51-3.67-3.07-6.69-6.67-9.04-10.77-2.72-4.73-4.45-9.84-5.2-15.29-1.23-8.84-.09-17.35,3.42-25.49,2.82-6.55,6.9-12.27,12.31-16.99,4.58-3.99,9.71-7.03,15.53-8.83,3.67-1.14,7.4-1.96,11.25-2.11,7.82-.32,15.24,1.14,22.11,5.03,7.34,4.15,12.85,10.02,16.37,17.69,1.63,3.57,2.92,7.28,3.4,11.18.32,2.55.76,5.12.56,7.72ZM100.42,107.21c2-.27,3.95.11,5.87-.24,1.35-.25,1.91-.91,1.96-2.29.03-.89.03-1.78.04-2.67.01-2.48-.79-3.13-3.31-3.03-2.98.12-5.96.09-8.94.12-.91,0-1.32-.55-1.43-1.36-.06-.42.01-.85,0-1.27-.06-1.88.32-2.26,2.16-2.28,3.11-.04,6.22-.07,9.33-.14,1.54-.04,2.4-.96,2.41-2.49,0-.85.01-1.71,0-2.56-.03-2.21-.81-2.98-3.03-2.93-1.85.04-3.69.19-5.53.2-1.53,0-1.87-.67-1.07-1.96,1.61-2.58,3.26-5.13,4.83-7.73,2.09-3.49,4.15-7,6.16-10.53.75-1.31.16-2.38-1.35-2.54-2.52-.27-5.05-.22-7.58-.05-1,.07-1.75.59-2.26,1.55-2.67,4.94-5.31,9.89-7.82,14.92-.27.55-.64.88-1.21.92-.62.04-.96-.35-1.2-.9-.42-.95-.89-1.87-1.33-2.81-1.78-3.79-3.58-7.57-5.32-11.38-.71-1.56-1.86-2.27-3.55-2.23-1.32.03-2.64.07-3.95-.01-3.28-.21-4.03,1.16-2.47,4.16,2.9,5.58,5.69,11.22,8.51,16.84.67,1.34.39,1.8-1.15,1.85-2.18.07-4.37.05-6.55.17-1.31.07-2,.91-2.01,2.21-.01.97-.01,1.93,0,2.9.03,1.86.78,2.65,2.64,2.78.46.03.93,0,1.39,0,2.55-.06,5.1-.14,7.65-.17,1.42-.02,1.82.43,1.82,1.87,0,.27,0,.54-.01.81-.01,1.89-.29,2.15-2.2,2.18-2.9.04-5.8.09-8.7.17-2.05.06-2.84.89-2.86,2.94,0,.78-.02,1.55-.02,2.33,0,2.06.7,2.8,2.78,2.78,2.85-.02,5.69-.07,8.54-.08,1.88,0,2.17.27,2.15,2.11-.02,1.74-.11,3.48-.15,5.22-.03,1.01.41,1.8,1.44,1.94,2.48.34,4.99.32,7.47-.01,1-.13,1.58-.85,1.55-1.97-.04-1.82-.02-3.64-.01-5.46,0-1.36.45-1.82,1.76-1.83,1.55-.02,3.1,0,4.56,0Z"/>
  <path class="cls-2" d="M129.88,118.43c-.87-.15-1.62-.65-2.39-1.06-.5-.26.04-.7.21-.97.67-1.07,1.4-2.11,2.13-3.14.93-1.32,1.82-2.68,2.47-4.16.31-.71.77-.84,1.47-.68,2.47.58,2.46.56,1.35,2.84-1.15,2.36-2.68,4.48-4.17,6.63-.27.38-.56.64-1.07.54Z"/>
  <path class="cls-2" d="M137.66,94.43c.18.04.22.04.26.06.75.35,1.88-.22,2.27.46.3.51-.15,1.45-.25,2.2-.35,2.52-1.19,4.92-1.89,7.35-.16.57-.5.6-1.04.46-2.79-.71-2.57-.23-1.83-2.92.61-2.21,1.16-4.45,1.68-6.68.13-.58.33-.91.81-.93Z"/>
  <path class="cls-2" d="M127.11,122.23c-.14.19-.3.46-.51.67-2.02,2.08-4.28,3.89-6.57,5.66-.58.45-2.58-.04-3.03-.67-.22-.3.05-.39.22-.52,2.49-1.85,4.71-4,6.78-6.31.21-.23.41-.46.79-.26.68.36,1.37.68,2.06,1.02.14.07.28.13.27.41Z"/>
  <path class="cls-2" d="M140.86,88.38c0,.12,0,.23,0,.35.02,1.83-.19,2.01-1.97,1.73-.78-.12-1.13-.41-1.1-1.32.09-2.77.12-5.56-.21-8.32-.07-.62.11-.79.72-.81,1.97-.08,1.96-.1,2.1,1.94.15,2.15.34,4.29.51,6.43-.02,0-.04,0-.06,0Z"/>
  <path class="cls-2" d="M137.84,75.58c-1.1.35-1.27-.54-1.37-1.21-.37-2.56-1.31-4.94-2.21-7.33-.17-.45-.68-1.03.07-1.37.7-.32,1.13-.01,1.47.74,1.18,2.58,2.04,5.28,2.96,7.95.33.96.29,1.49-.92,1.21Z"/>
  <path class="cls-2" d="M104.57,134.53c1.47-.65,2.9-1.28,4.33-1.92.77-.35,1.62-.62,2.26-1.13,1.39-1.12,2.61-.9,3.92.26-1.88,1.17-3.95,1.87-5.94,2.7-.6.25-1.25.41-1.83.69-1.06.51-1.91.26-2.74-.6Z"/>
  <path class="cls-2" d="M127.85,55.37c1.77,1.73,3.3,3.52,4.67,5.46.16.23.39.56.03.64-.45.09-.92.02-1.26-.52-.96-1.52-1.99-3-3-4.49-.21-.3-.59-.51-.44-1.09Z"/>
  <path class="cls-1" d="M100.42,107.21c-1.47,0-3.01-.01-4.56,0-1.32.01-1.76.48-1.76,1.83,0,1.82-.02,3.64.01,5.46.02,1.12-.55,1.84-1.55,1.97-2.48.33-4.99.35-7.47.01-1.03-.14-1.46-.93-1.44-1.94.04-1.74.13-3.48.15-5.22.02-1.84-.27-2.12-2.15-2.11-2.85.01-5.69.07-8.54.08-2.07.01-2.79-.72-2.78-2.78,0-.78.01-1.55.02-2.33.03-2.05.81-2.88,2.86-2.94,2.9-.08,5.8-.13,8.7-.17,1.91-.03,2.19-.29,2.2-2.18,0-.27,0-.54.01-.81,0-1.43-.4-1.88-1.82-1.87-2.55.03-5.1.11-7.65.17-.46.01-.93.04-1.39,0-1.86-.13-2.61-.92-2.64-2.78-.02-.97-.02-1.93,0-2.9.02-1.31.7-2.14,2.01-2.21,2.18-.12,4.37-.1,6.55-.17,1.54-.05,1.83-.51,1.15-1.85-2.82-5.62-5.6-11.26-8.51-16.84-1.56-3-.81-4.37,2.47-4.16,1.31.08,2.63.04,3.95.01,1.69-.04,2.84.68,3.55,2.23,1.75,3.81,3.54,7.59,5.32,11.38.44.94.92,1.86,1.33,2.81.24.55.57.94,1.2.9.58-.04.94-.37,1.21-.92,2.51-5.02,5.15-9.98,7.82-14.92.52-.96,1.27-1.48,2.26-1.55,2.52-.17,5.06-.22,7.58.05,1.5.16,2.09,1.23,1.35,2.54-2.01,3.53-4.07,7.05-6.16,10.53-1.56,2.6-3.22,5.15-4.83,7.73-.8,1.29-.46,1.97,1.07,1.96,1.84,0,3.69-.15,5.53-.2,2.22-.05,3,.72,3.03,2.93.01.85,0,1.71,0,2.56,0,1.53-.87,2.45-2.41,2.49-3.11.07-6.22.11-9.33.14-1.84.02-2.21.41-2.16,2.28.01.42-.06.86,0,1.27.12.81.52,1.37,1.43,1.36,2.98-.03,5.96,0,8.94-.12,2.52-.1,3.33.55,3.31,3.03,0,.89,0,1.78-.04,2.67-.05,1.38-.62,2.05-1.96,2.29-1.92.35-3.87-.03-5.87.24Z"/>
</svg>