<?xml version="1.0" encoding="UTF-8"?>
<svg id="Layer_1" data-name="Layer 1" xmlns="http://www.w3.org/2000/svg" viewBox="0 0 185.27 157.94">
  <defs>
    <style>
      .cls-1 {
        fill: #70574b;
      }

      .cls-2 {
        fill: #f5d43c;
      }
    </style>
  </defs>
  <path class="cls-1" d="M93.02,157.85c-11.25,0-22.5,0-33.75,0-3.79,0-7.57.03-11.36.05-.71,0-1.41-.05-2.1-.22-1.54-.4-2.28-1.35-2.29-2.95-.03-3.27.64-6.47,1.01-9.71.41-3.62.93-7.23,1.47-10.84.52-3.48.87-7,1.9-10.39,1.97-6.51,6.04-10.95,12.6-13,3.71-1.16,7.37-2.47,11.15-3.4,1.03-.25,1.88-.83,2.63-1.57.77-.76,1.55-1.5,2.3-2.27.48-.49.94-.82,1.65-.44.41.22.58.02.6-.43.03-.63.06-1.27.23-1.87.46-1.69-.05-2.99-1.22-4.29-2.14-2.4-3.34-5.33-4.19-8.41-.1-.37-.15-.8-.61-.98-2.59-1.04-3.95-3.15-4.62-5.7-.77-2.9-.9-5.84.13-8.74.52-1.48,1.52-2.56,3.05-2.95.78-.2.76-.51.66-1.17-.73-4.65-.76-9.28,1-13.74,1.77-4.49,5.1-7.53,9.41-9.51,4.14-1.9,8.53-2.53,13.05-2.01,3.49.4,6.78,1.36,9.48,3.76.11.1.23.19.33.3,1.4,1.68,2.95,3.02,5.03,3.98,2.64,1.21,3.54,3.92,4,6.66.6,3.57.68,7.14.04,10.72-.05.28-.37.73.2.94,2.69.98,3.62,3.21,3.89,5.77.37,3.57-.06,7-2.52,9.87-.52.6-1.09,1.16-1.82,1.43-.96.36-1.28,1.09-1.53,1.96-.95,3.39-2.56,6.42-4.94,9.02-.69.75-.44,1.59-.44,2.41,0,.55.13,1.1.25,1.64.15.67-.02,1.72,1.29,1.19.31-.13.52.19.74.4.72.69,1.52,1.31,2.18,2.04,1.67,1.84,4.03,2.17,6.2,2.89,3.2,1.06,6.47,1.89,9.63,3.04,5.58,2.03,8.82,6.29,10.73,11.74,1.14,3.26,1.52,6.67,2,10.06.61,4.3,1.27,8.6,1.75,12.92.33,2.94.89,5.86.93,8.82.02,1.32-.69,2.19-1.95,2.6-2.17.71-4.41.41-6.62.41-10.84.04-21.67.01-32.51.01-3.02,0-6.05,0-9.07,0v-.04ZM93.2,154.56c9.38,0,18.75,0,28.13,0,2.89,0,2.84,0,2.58-2.97-.26-3.11-.44-6.22-.61-9.34-.05-1,.51-1.57,1.44-1.6.98-.03,1.56.46,1.66,1.42.18,1.84.33,3.69.46,5.53.16,2.11.3,4.21.42,6.32.03.48.17.63.65.63,3.76-.02,7.52,0,11.28,0,.56,0,.74-.18.65-.8-.24-1.73-.36-3.47-.58-5.2-.55-4.4-1.09-8.8-1.72-13.19-.5-3.54-.9-7.11-1.98-10.55-1.55-4.93-4.41-8.69-9.39-10.53-3.84-1.42-7.87-2.24-11.69-3.72-.62-.24-.72.26-.79.61-.33,1.6-.91,3.11-1.4,4.66-.95,3.02-1.61,6.13-2.78,9.07-.6,1.49-1.75,1.78-2.99.74-2.39-2.01-4.72-4.08-7.07-6.13-1.69-1.48-1.65-1.44-3.29.09-.94.87-1.34,1.79-1.3,3.1.1,2.9,0,5.8.02,8.7,0,.89-.3,1.55-1.23,1.69-.94.14-1.63-.18-1.95-1.2-.12-.37-.16-.71-.15-1.07.04-2.4-.03-4.81.2-7.19.2-2.06-.46-3.5-2.02-4.82-.85-.73-1.27-.61-1.97.05-2.47,2.31-4.98,4.58-7.49,6.84-1.27,1.15-3.01.65-3.5-.99-1.34-4.52-2.68-9.05-4-13.58-.14-.48-.27-.64-.85-.46-3.44,1.11-6.91,2.1-10.34,3.22-4.72,1.54-8.15,4.51-9.99,9.23-1.12,2.88-1.59,5.9-2.06,8.93-1.12,7.17-2,14.37-2.88,21.57-.09.71.17.94.84.93,3.72-.01,7.44-.01,11.17,0,.53,0,.69-.16.72-.69.13-2.51.27-5.03.47-7.54.11-1.33.16-2.67.23-4,.06-1.06.91-1.82,1.8-1.72.87.09,1.52.96,1.46,1.93-.24,3.7-.42,7.41-.74,11.1-.08.87.16.93.88.93,9.9-.02,19.79-.01,29.69-.02ZM80.71,64.06c-2.57-.05-2.61-.06-3.18,1.89-.43,1.48-.81,2.99-1.15,4.5-.37,1.67-1.05,2.29-2.73,2.33-1.49.04-2.1.42-2.41,1.89-.54,2.6-.33,5.16.98,7.54.44.79,1.06,1.51,1.95,1.73,1.53.38,2.07,1.45,2.43,2.82,1.18,4.55,3.35,8.5,7.05,11.54,3.91,3.22,8.34,4.41,13.25,3.24,3.89-.93,6.88-3.29,9.27-6.49,2.01-2.69,3.16-5.75,4.11-8.9.27-.91.73-1.54,1.67-1.89,1.68-.61,2.71-1.87,3.18-3.6.48-1.74.62-3.53.3-5.29-.39-2.2-1.45-2.71-2.68-2.63-1.62.11-2.2-.33-2.46-2-.3-1.9-1.17-3.46-2.29-4.96-1.77-2.37-3.6-4.73-4.73-7.49-.44-1.07-.84-.84-1.54-.4-6.6,4.14-13.91,5.79-21.05,6.18ZM104.36,101.29c-3.37,2.57-7.14,3.77-11.12,3.78-3.99,0-7.68-1.39-10.97-3.86-.18,1.22-.32,2.21-.49,3.19-.23,1.34-.07,2.41,1.08,3.44,3.34,3.01,6.54,6.16,9.78,9.28.49.47.8.56,1.35.02,2.96-2.92,5.89-5.88,8.99-8.67,1.58-1.43,2.43-2.87,1.77-5-.19-.63-.23-1.3-.38-2.19ZM110.83,109.44c0-.97-.99-1.08-1.46-1.62-.39-.45-.74-.42-1.19,0-2.64,2.4-5.07,5.01-7.64,7.49-.4.39-.23.6.09.88,2.02,1.75,4.03,3.51,6.04,5.28.52.46.66.33.83-.3.62-2.31,1.31-4.61,1.96-6.91.46-1.6.91-3.19,1.38-4.81ZM86.42,115.79c-.03-.37-.34-.44-.51-.61-2.43-2.34-4.88-4.67-7.33-7-.32-.31-.64-.9-1.18-.37-.63.62-1.95.86-1.61,2.09,1.05,3.79,2.19,7.56,3.3,11.33.15.5.3.86.92.33,2.03-1.74,4.06-3.47,5.98-5.33.16-.15.3-.31.42-.44Z"/>
  <path class="cls-1" d="M162.53,12.54c-.27.92.28,1.18,1.15,1.26,1.17.11,2.34.27,3.51.46,2.26.36,3.73,1.81,4.11,4.13.09.54.21.71.78.79,3.32.47,6.64.97,9.94,1.53,2.29.39,3.57,2.42,3.18,4.69-1.44,8.27-3.06,16.5-4.67,24.74-1.43,7.34-2.86,14.67-4.23,22.02-.88,4.74-1.7,9.49-2.74,14.21-.79,3.6-3.96,5.45-7.23,4.81-5.63-1.1-11.31-1.96-16.97-2.94-6.21-1.07-12.44-2.11-18.68-3-2.4-.34-4.82-.68-7.18-1.28-1.37-.35-2.04-1.35-1.78-2.81.16-.91,1.04-1.43,2.35-1.23,3.02.45,6.02.99,9.04,1.43,4.11.6,8.25,1.05,12.35,1.72,3.71.61,7.44,1.1,11.17,1.64,3.52.51,7.03,1.11,10.55,1.65.89.14,1.64-.45,1.87-1.51.41-1.91.77-3.82,1.14-5.74.94-4.84,1.88-9.68,2.82-14.52,1.15-5.97,2.3-11.94,3.46-17.91.84-4.3,1.71-8.59,2.55-12.88.55-2.81,1.1-5.61,1.64-8.42.12-.62.15-1.03-.78-1.14-2.78-.34-5.54-.84-8.29-1.34-.69-.13-.9.05-.95.71-.07.88-.1,1.79-.36,2.63-.65,2.12-2.63,3.09-5.04,2.68-4.83-.82-9.67-1.59-14.51-2.4-4.26-.71-8.51-1.44-12.76-2.2-2.03-.36-3.08-2.23-2.49-4.26.53-1.81.52-1.8-1.35-2.05-2.34-.31-4.69-.6-7.02-1-.98-.17-1.38.04-1.58,1.05-1.01,5.17-2.09,10.32-3.15,15.48-1.18,5.73-2.21,11.5-3.59,17.19-.09.39-.25.77-.39,1.16-.24.65-.78.67-1.29.5-.66-.21-1.49-1.98-1.35-2.7,1.3-6.83,2.6-13.67,3.91-20.5.8-4.19,1.44-8.42,2.48-12.56.62-2.46,2.38-3.67,4.92-3.35,3.04.39,6.07.78,9.1,1.25.53.08.59-.06.74-.46,1.01-2.76,3.02-3.85,5.92-3.28,1.16.23,2.34.34,3.5.54.51.09.54-.18.68-.58.87-2.54,2.28-4.6,4.99-5.47,4.89-1.59,10.44,1.5,10.5,7.27ZM141.78,13.96c-1.23-.12-1.58.73-1.7,1.65-.2,1.5-.53,2.98-.97,4.41-.3.96.1,1.18.85,1.3,3.24.54,6.47,1.1,9.71,1.62,5.39.86,10.79,1.68,16.18,2.56.77.13,1.1-.19,1.22-.8.33-1.78.63-3.57.89-5.36.15-1.07-.36-1.63-1.45-1.79-1.65-.23-3.3-.46-4.95-.72-2.1-.33-3.13-1.56-2.63-3.53.19-.74,0-1.48-.24-2.17-.61-1.8-2.47-2.92-4.48-2.73-1.94.19-3.67,1.76-3.82,3.87-.18,2.49-1.77,2.87-3.7,2.54-1.63-.28-3.27-.57-4.9-.86Z"/>
  <path class="cls-1" d="M42.61,78.63c0-2.73,0-5.31,0-7.9,0-1.59-.06-3.18.03-4.77.08-1.28.89-1.87,2.15-1.87,5.94,0,11.89,0,17.83,0,.41,0,.82,0,1.22.06,1.12.18,1.84.92,1.79,1.77-.05.89-.79,1.46-2,1.47-2.34.02-4.69,0-7.03,0-3.27,0-6.53.04-9.8-.02-.91-.01-1.02.34-.97,1.11.29,4.53.11,9.06.17,13.59.01.79-.42,1.24-1.07,1.51-.87.35-1.69.19-2.36-.43-1.36-1.26-2.68-2.56-4.01-3.85-3.87-3.79-7.73-7.59-11.58-11.39-.37-.36-.74-.53-1.26-.53-4.46.02-8.92.01-13.38.04-5.81.04-11.08-4.18-12.09-9.88-.44-2.48-.2-5.03-.23-7.55-.06-3.76-.02-7.52,0-11.28.02-4.91.07-9.81.07-14.72,0-3.89-.12-7.79-.09-11.68C.07,5.53,4.83,1.5,10.33.4c2.75-.55,5.56-.21,8.34-.23,7.17-.05,14.34-.03,21.51-.06,5.77-.02,11.54-.2,17.3-.06,3.61.09,7.23.09,10.83-.01,3.87-.11,7.73.17,11.6.04,6.36-.22,10.66,5.29,11.22,9.57.36,2.77.05,5.54.11,8.3.07,3.34.08,6.67.1,10.01,0,2.6.03,5.21,0,7.81-.01.89-.14,1.81-1.34,1.94-1.29.14-1.98-.48-1.99-1.88-.02-3.16,0-6.32,0-9.48,0-4.51.05-9.03-.02-13.54-.05-3.05-.82-5.86-3.49-7.76-1.35-.96-2.83-1.55-4.54-1.55-20.11.01-40.23,0-60.34,0-2.31,0-4.62-.11-6.92.03-3.23.2-6.02,1.41-7.89,4.21-.81,1.22-1.22,2.63-1.23,4.06-.04,11.63-.03,23.25-.03,34.88,0,2.7,0,5.39,0,8.09,0,3.43,1.4,6.14,4.26,8.06,1.74,1.17,3.74,1.3,5.75,1.29,4.17-.02,8.34-.02,12.51-.09,1.52-.02,2.7.49,3.75,1.58,4.19,4.33,8.3,8.73,12.8,13Z"/>
  <path class="cls-1" d="M23.11,33.73c.12-12.7,9.93-22.17,21.77-22.52,13.79-.42,23.16,9.9,23.7,21.34.66,14.14-10.63,24.16-22.69,24.08-12.92-.08-22.7-10.41-22.77-22.9ZM45.89,53.2c11.05-.1,19.75-8.85,19.48-20.02-.25-10.58-9.02-18.8-19.85-18.63-10.07.16-19.32,8.13-19.11,19.45.2,10.97,8.85,19.1,19.48,19.19Z"/>
  <path class="cls-1" d="M171.04,124.1c.1,7.75-2.15,14.71-6.96,20.82-.39.49-.77.99-1.21,1.44-.61.63-1.35.78-2.09.25-.79-.57-.77-1.35-.47-2.18.22-.61.71-1.03,1.1-1.52,3.66-4.59,5.63-9.78,6.18-15.65.77-8.24-1.82-15.37-6.51-21.93-.19-.26-.42-.56-.45-.86-.08-.73-.25-1.63.67-1.91.92-.27,1.82-.1,2.45.81,1.39,2.04,2.67,4.13,3.82,6.32,2.15,4.08,3.18,8.41,3.32,12.99.01.48.1.95.15,1.42Z"/>
  <path class="cls-1" d="M134.74,55.63c-1.89-.3-3.8-.54-5.68-.91-.98-.2-1.35.12-1.53,1.05-.52,2.6-1.09,5.19-1.7,7.77-.15.65-.13.89.64.99,2.81.36,5.62.81,8.42,1.27.58.1.81-.05.91-.61.11-.65.27-1.3.45-1.93.27-.93,1.2-1.51,2.03-1.21.91.34.98,1.11.78,1.93-.29,1.22-.58,2.43-.91,3.64-.32,1.16-1.02,1.57-2.15,1.34-3.61-.75-7.28-1.21-10.92-1.76-1.93-.29-2.6-1.07-2.23-2.94.72-3.65,1.48-7.3,2.26-10.94.32-1.52,1.08-1.9,2.67-1.64,2.77.45,5.55.82,8.33,1.21.45.06.88.15,1.23.45.21.18.41.44.15.66-.82.68-1.4,1.79-2.74,1.65Z"/>
  <path class="cls-1" d="M159.94,124.73c0,5.86-1.63,11.12-5.67,15.5-.27.29-.5.67-.96.69-.68.03-1.47.33-1.88-.49-.38-.77-.43-1.58.22-2.27,2.67-2.86,4.28-6.29,4.87-10.09.96-6.23-.56-11.92-4.38-16.96-.18-.23-.34-.48-.52-.71-.59-.78-.65-1.59.07-2.29.56-.55,1.91-.36,2.5.34,2.68,3.17,4.49,6.78,5.29,10.87.35,1.78.59,3.58.47,5.41Z"/>
  <path class="cls-1" d="M139.26,34.86c-1.97-.31-3.94-.6-5.9-.93-.84-.14-1.33-.02-1.52.96-.51,2.71-1.1,5.41-1.71,8.1-.13.56,0,.68.54.76,2.78.41,5.55.88,8.32,1.32.6.09,1.06.04,1.14-.76.06-.65.31-1.28.51-1.91.3-.92,1.34-1.59,2.05-1.27.9.4,1.03,1.13.75,2.04-.37,1.23-.64,2.49-.95,3.73-.23.91-.97,1.43-1.91,1.29-3.79-.58-7.58-1.17-11.36-1.79-1.46-.24-2.37-1.62-2.06-3.02.79-3.58,1.58-7.17,2.38-10.75.38-1.7.91-2,2.66-1.72,2.37.38,4.75.67,7.13,1,.22.03.44.08.64.17.65.29,1.52.42,1.56,1.31.02.54-1.62,1.49-2.26,1.48Z"/>
  <path class="cls-1" d="M21.54,143.61c-.91-.04-1.11-.71-1.25-1.42-.17-.91-.29-1.82-.48-2.73-.31-1.47-1.12-2.53-2.59-3.04-.45-.15-.9-.33-1.32-.54-.44-.22-.8-.54-.76-1.11.03-.5.29-.82.74-1.01.1-.04.19-.13.3-.15,2.77-.56,3.63-2.57,3.89-5.06.07-.62.23-1.23.37-1.84.14-.64.63-.95,1.21-.92.61.03.96.5,1.08,1.08.24,1.15.44,2.31.69,3.46.3,1.36,1.08,2.3,2.42,2.77.52.18,1,.45,1.51.66.5.2.77.58.75,1.1-.02.49-.34.8-.79.96-.03.01-.06.06-.09.06-3.07.6-3.8,2.98-4.24,5.58-.07.43-.12.88-.27,1.28-.19.5-.54.88-1.16.85Z"/>
  <path class="cls-1" d="M147.67,32.87c.07.52-.34,1.03-.78,1.46-2.99,2.94-5.99,5.86-9.02,8.76-1.06,1.01-2.18.89-2.86-.33-.72-1.31-1.32-2.7-1.94-4.07-.37-.82-.21-1.52.64-1.94.89-.44,1.48,0,1.92.75.04.06.08.13.12.19.4.59.48,1.66,1.11,1.72.48.04,1.05-.82,1.55-1.32,2.13-2.17,4.47-4.13,6.48-6.44.5-.57,1.12-.67,1.79-.42.66.24.96.76.99,1.64Z"/>
  <path class="cls-1" d="M132.18,64.5c-.7.09-1.18-.25-1.48-.8-.75-1.38-1.4-2.82-1.95-4.29-.3-.8.03-1.44.71-1.76.68-.31,1.42-.18,1.85.53.34.56.59,1.18.84,1.78.18.45.33.6.75.18,2.45-2.44,4.98-4.79,7.34-7.31.88-.93,1.87-1.05,2.56-.43.8.71.83,1.7-.07,2.63-1.46,1.52-3,2.98-4.52,4.45-1.52,1.47-3.06,2.92-4.58,4.39-.42.41-.87.68-1.46.61Z"/>
  <path class="cls-1" d="M164.44,64.1c-3.43-.49-6.87-.96-10.3-1.46-2.8-.41-5.6-.84-8.4-1.25-1.36-.2-2.03-1.28-1.34-2.22.32-.44.73-.63,1.34-.54,4.63.71,9.27,1.38,13.9,2.06,1.65.24,3.29.47,4.94.69,1.2.15,1.99.79,1.81,1.61-.22,1.05-.99,1.28-1.96,1.12Z"/>
  <path class="cls-1" d="M169.34,43.73c-1.82-.25-3.64-.49-5.46-.75-3.39-.49-6.78-.98-10.17-1.48-1.49-.22-2.98-.4-4.46-.69-.77-.15-1.06-.8-.92-1.53.16-.82.75-1.13,1.56-1.01,2.09.29,4.17.58,6.26.86,4.16.57,8.32,1.13,12.47,1.72.57.08,1.21.09,1.63.58.34.4.79.76.47,1.44-.3.62-.71.91-1.39.86Z"/>
  <path class="cls-1" d="M144.23,65.41c1.61.2,3.2.52,4.82.72,2.74.34,5.46.85,8.2,1.27.29.04.56.12.85.21.89.29,1.13.96.93,1.74-.21.82-1.01,1.03-1.68.91-4.28-.77-8.6-1.34-12.91-1.96-1.16-.17-1.56-.63-1.48-1.65.06-.73.56-1.21,1.28-1.24Z"/>
  <path class="cls-1" d="M148.39,44.99c2.85.43,5.8.87,8.75,1.31.83.12,1.67.22,2.5.33,1.42.19,2.18,1.28,1.51,2.2-.45.62-1.15.68-1.8.58-3.75-.53-7.49-1.11-11.24-1.67-.94-.14-1.41-.72-1.32-1.59.08-.79.67-1.19,1.6-1.16Z"/>
  <path class="cls-2" d="M93.2,154.56c-9.9,0-19.79,0-29.69.01-.73,0-.96-.05-.88-.93.32-3.7.5-7.4.74-11.1.06-.97-.59-1.83-1.46-1.93-.89-.1-1.75.66-1.8,1.72-.07,1.33-.12,2.67-.23,4-.21,2.51-.34,5.02-.47,7.54-.03.53-.19.69-.72.69-3.72-.02-7.44-.02-11.17,0-.67,0-.93-.22-.84-.93.88-7.2,1.76-14.4,2.88-21.57.47-3.03.94-6.05,2.06-8.93,1.84-4.71,5.27-7.68,9.99-9.23,3.43-1.12,6.9-2.12,10.34-3.22.58-.19.71-.02.85.46,1.33,4.53,2.66,9.05,4,13.58.49,1.64,2.23,2.13,3.5.99,2.51-2.27,5.02-4.54,7.49-6.84.7-.66,1.12-.77,1.97-.05,1.55,1.32,2.21,2.76,2.02,4.82-.23,2.38-.16,4.79-.2,7.19,0,.36.03.7.15,1.07.32,1.02,1.02,1.33,1.95,1.2.93-.13,1.23-.79,1.23-1.69-.01-2.9.07-5.8-.02-8.7-.04-1.31.36-2.23,1.3-3.1,1.64-1.52,1.59-1.56,3.29-.09,2.35,2.05,4.68,4.13,7.07,6.13,1.24,1.04,2.39.75,2.99-.74,1.18-2.94,1.83-6.05,2.78-9.07.49-1.54,1.07-3.06,1.4-4.66.07-.35.17-.85.79-.61,3.82,1.48,7.85,2.3,11.69,3.72,4.98,1.85,7.85,5.6,9.39,10.53,1.08,3.44,1.48,7.01,1.98,10.55.62,4.39,1.16,8.79,1.72,13.19.22,1.73.34,3.47.58,5.2.09.62-.09.8-.65.8-3.76,0-7.52,0-11.28,0-.48,0-.62-.15-.65-.63-.11-2.11-.26-4.22-.42-6.32-.14-1.85-.28-3.69-.46-5.53-.1-.96-.68-1.45-1.66-1.42-.93.03-1.49.6-1.44,1.6.17,3.11.34,6.23.61,9.34.25,2.97.3,2.97-2.58,2.97-9.38,0-18.75,0-28.13,0Z"/>
  <path class="cls-2" d="M80.71,64.06c7.13-.39,14.45-2.04,21.05-6.18.7-.44,1.1-.67,1.54.4,1.13,2.76,2.96,5.12,4.73,7.49,1.12,1.5,1.99,3.06,2.29,4.96.26,1.67.84,2.11,2.46,2,1.23-.09,2.29.43,2.68,2.63.31,1.76.17,3.55-.3,5.29-.47,1.72-1.5,2.98-3.18,3.6-.95.35-1.4.98-1.67,1.89-.96,3.16-2.1,6.22-4.11,8.9-2.39,3.2-5.38,5.56-9.27,6.49-4.91,1.17-9.34-.02-13.25-3.24-3.7-3.04-5.87-6.98-7.05-11.54-.36-1.37-.9-2.45-2.43-2.82-.89-.22-1.51-.94-1.95-1.73-1.31-2.38-1.52-4.93-.98-7.54.3-1.47.92-1.85,2.41-1.89,1.68-.04,2.36-.66,2.73-2.33.34-1.51.71-3.01,1.15-4.5.57-1.95.6-1.94,3.18-1.89Z"/>
  <path class="cls-2" d="M104.36,101.29c.15.88.19,1.56.38,2.19.65,2.13-.19,3.57-1.77,5-3.09,2.78-6.03,5.74-8.99,8.67-.55.54-.86.45-1.35-.02-3.24-3.12-6.44-6.27-9.78-9.28-1.15-1.03-1.3-2.11-1.08-3.44.17-.98.3-1.97.49-3.19,3.3,2.48,6.99,3.87,10.97,3.86,3.99,0,7.75-1.21,11.12-3.78Z"/>
  <path class="cls-2" d="M110.83,109.44c-.46,1.62-.92,3.22-1.38,4.81-.66,2.3-1.35,4.6-1.96,6.91-.17.63-.31.76-.83.3-2-1.77-4.02-3.53-6.04-5.28-.32-.28-.5-.49-.09-.88,2.56-2.48,5-5.09,7.64-7.49.46-.42.8-.45,1.19,0,.48.54,1.46.65,1.46,1.62Z"/>
  <path class="cls-2" d="M86.42,115.79c-.12.13-.27.29-.42.44-1.92,1.86-3.95,3.59-5.98,5.33-.62.53-.77.17-.92-.33-1.11-3.77-2.26-7.54-3.3-11.33-.34-1.24.98-1.47,1.61-2.09.54-.53.86.06,1.18.37,2.45,2.32,4.9,4.65,7.33,7,.17.17.48.24.51.61Z"/>
  <path class="cls-2" d="M141.78,13.96c1.63.29,3.27.58,4.9.86,1.94.34,3.53-.05,3.7-2.54.15-2.11,1.88-3.68,3.82-3.87,2.01-.19,3.87.93,4.48,2.73.24.7.43,1.43.24,2.17-.5,1.97.53,3.2,2.63,3.53,1.65.26,3.3.49,4.95.72,1.09.15,1.61.72,1.45,1.79-.26,1.79-.56,3.58-.89,5.36-.11.61-.45.92-1.22.8-5.39-.88-10.79-1.7-16.18-2.56-3.24-.52-6.47-1.08-9.71-1.62-.75-.13-1.15-.34-.85-1.3.45-1.43.77-2.91.97-4.41.12-.92.47-1.77,1.7-1.65Z"/>
  <path class="cls-2" d="M45.89,53.2c-10.63-.1-19.27-8.22-19.48-19.19-.21-11.33,9.04-19.29,19.11-19.45,10.83-.17,19.6,8.05,19.85,18.63.26,11.17-8.43,19.91-19.48,20.02ZM44.75,46.7c4.98-.03,8.23-1.42,11-3.96,1.59-1.46,2.59-3.31,3.19-5.38.22-.78.15-1.53-.73-1.86-.92-.34-1.62.03-2.03.98-.29.67-.52,1.39-.89,2.02-2.3,3.9-7.13,5.91-11.69,4.9-3.82-.85-6.58-2.9-7.76-6.79-.31-1.04-1.08-1.42-2.06-1.13-.8.24-1.14,1-.85,1.99,1.45,5.01,6.77,9.38,11.82,9.21ZM54.02,28.68c-.02-.96-.17-1.9-.66-2.76-.87-1.53-2.49-1.57-3.3-.03-.92,1.74-.85,3.57-.03,5.33.34.74.98,1.16,1.88,1.11.87-.05,1.34-.58,1.63-1.29.3-.75.54-1.53.48-2.37ZM39.68,24.73c-.63.15-1.19.51-1.54,1.19-.89,1.74-.8,3.5-.01,5.23.32.71.88,1.18,1.73,1.18.86,0,1.39-.5,1.7-1.21.78-1.75.73-3.51-.12-5.23-.33-.66-.9-1.06-1.76-1.17Z"/>
  <path class="cls-1" d="M44.75,46.7c-5.05.17-10.37-4.2-11.82-9.21-.29-.99.05-1.76.85-1.99.98-.29,1.75.09,2.06,1.13,1.18,3.88,3.94,5.94,7.76,6.79,4.56,1.01,9.39-1.01,11.69-4.9.37-.63.6-1.34.89-2.02.41-.95,1.12-1.33,2.03-.98.88.33.95,1.08.73,1.86-.59,2.07-1.59,3.92-3.19,5.38-2.77,2.53-6.02,3.93-11,3.96Z"/>
  <path class="cls-1" d="M54.02,28.68c.07.84-.17,1.62-.48,2.37-.29.71-.76,1.24-1.63,1.29-.9.05-1.54-.37-1.88-1.11-.82-1.76-.89-3.59.03-5.33.81-1.54,2.43-1.5,3.3.03.49.85.64,1.79.66,2.76Z"/>
  <path class="cls-1" d="M39.68,24.73c.86.11,1.43.51,1.76,1.17.85,1.71.9,3.48.12,5.23-.32.71-.84,1.22-1.7,1.21-.85,0-1.41-.47-1.73-1.18-.78-1.74-.87-3.49.01-5.23.35-.68.91-1.04,1.54-1.19Z"/>
  <path class="cls-1" d="M38.78,100.91c0-.68-.04-1.36.01-2.03.05-.62.33-1.13,1.08-1.05.65.07,1.02.4,1.02,1.13,0,1.28.12,2.57.07,3.85-.03.7.32.9.85.93.74.04,1.49.02,2.23-.03,1.06-.06,1.69.31,1.71,1.06.02.85-.46,1.25-1.56,1.27-.78.02-1.56.08-2.33,0-.86-.09-1.09.28-.99,1.05.12.94.19,1.88.07,2.82-.1.73-.01,1.63-1.16,1.63-.84,0-1.19-.48-1.19-1.61,0-1.02-.04-2.03.01-3.05.04-.69-.22-.88-.88-.84-.81.05-1.63.04-2.44,0-.94-.04-1.46-.58-1.38-1.36.07-.73.69-1.18,1.54-1.07.43.05.85.14,1.28.02.66-.19,1.58.35,1.96-.32.29-.52.08-1.32.1-2,0-.14,0-.27,0-.41h0Z"/>
</svg>