<?xml version="1.0" encoding="UTF-8"?>
<svg id="Layer_1" data-name="Layer 1" xmlns="http://www.w3.org/2000/svg" viewBox="0 0 185.27 157.94">
  <defs>
    <style>
      .cls-1 {
        fill: #70574b;
      }

      .cls-2 {
        fill: #f5d43c;
      }
    </style>
  </defs>
  <path class="cls-1" d="M58.01,160.97c-3.9-.32-7.54-1.71-10.74-4.13-1.97-1.5-3.61-3.34-4.08-5.93-.32-1.76.1-3.5.24-5.25.21-2.66.53-5.3.75-7.96.32-3.95.8-7.88,1.2-11.83.17-1.71.31-3.43.48-5.15.05-.5-.05-.68-.65-.74-2.72-.24-5.44-.61-7.88-1.95-3.89-2.13-6.46-5.46-8.25-9.42-2.11-4.68-2.65-9.66-2.3-14.71.39-5.56,1.94-10.79,5.33-15.34,1.89-2.54,4.39-4.22,7.36-5.19.83-.27,1.06-.66,1.09-1.47.11-3.27.13-6.55.47-9.8.35-3.37.71-6.73,1.62-10.03,1.73-6.28,4.2-12.18,7.86-17.59,3.68-5.44,8.13-10.11,13.69-13.6,4.36-2.74,9.11-4.65,14.15-5.83,4.75-1.11,9.55-1.66,14.42-1.39,7.94.44,15.11,3.05,21.42,7.93,6.5,5.02,11.14,11.4,14.08,19.04,1.85,4.81,3.13,9.75,3.53,14.91.09,1.13.21,2.24.17,3.37-.02.5.13.7.68.84,5.52,1.37,8.98,5,11.01,10.17,1.83,4.64,2.46,9.5,2.24,14.43-.26,5.76-1.72,11.2-5.23,15.94-3.24,4.37-7.52,7-12.94,7.68-.66.08-.85.33-.87,1-.18,4.97-.35,9.93-.65,14.89-.16,2.67-.29,5.34-.45,8.01-.22,3.62-.55,7.22-.64,10.85-.03,1.18-.08,2.39-.18,3.58-.16,1.89-.91,3.48-4.42,4.01-4.77.72-9.5,1.73-14.26,2.5-4.5.73-8.96,1.69-13.46,2.4-4.05.64-8.03,1.63-12.08,2.25-4.6.71-9.16,1.68-13.76,2.4-2.48.39-4.91,1.07-7.44,1.14-.46.01-.91,0-1.49,0ZM62.39,109.88c-.12.1-.23.14-.27.22-2.5,5.18-6.53,8.37-12.22,9.39-.52.09-.66.32-.71.84-.52,5.64-.92,11.3-1.58,16.93-.43,3.7-.58,7.45-1.09,11.15-.2,1.41.01,2.76,1,3.87,3.45,3.85,7.83,5.58,12.9,5.2,3.03-.23,6.03-.94,9.03-1.48,5.39-.97,10.77-1.97,16.16-2.95,5.08-.92,10.17-1.82,15.24-2.76,2.62-.48,5.23-1.02,7.85-1.44,4.09-.66,8.13-1.5,12.21-2.19.37-.06.6-.22.64-.68.18-2.49.38-4.98.44-7.48.08-3.21.37-6.41.63-9.61.1-1.28-.17-2.56,0-3.81.34-2.39.38-4.81.54-7.21.23-3.4.3-6.81.46-10.22.14-2.89.29-5.78.38-8.67.13-3.92.25-7.84.46-11.76.25-4.54.34-9.09.51-13.64.05-1.37.18-2.74.25-4.12.12-2.4.23-4.8.34-7.19.02-.5-.03-.95-.74-.82-2.44.46-4.89.89-7.33,1.36-6.34,1.23-12.67,2.54-19.02,3.68-7.19,1.28-14.34,2.75-21.49,4.23-3.3.68-6.63,1.23-10.04.7-2.95-.46-5.6-1.53-7.98-3.33-1.17-.89-2.08-2.03-3.19-3.25-.36,2.56-.66,4.89-1.02,7.2-.12.77.07,1.23.78,1.58.46.23.85.62,1.25.98,3.37,3.02,5.15,6.97,6.48,11.17.35,1.11.6,2.25.89,3.38.1-3.76.63-7.46.65-11.19,0-.84.06-1.69.19-2.53.13-.8.49-1.57,1.48-1.44.91.12,1.27.82,1.24,1.69-.02.74-.1,1.47-.15,2.21-.28,4.11-.62,8.21-.82,12.32-.14,2.98-.48,5.95-.59,8.94-.14,3.86-.66,7.71-.97,11.57-.33,4.14-.59,8.29-.91,12.43-.46,6.04-.97,12.08-1.42,18.12-.26,3.51-.45,7.03-.68,10.55-.03.49-.1.97-.35,1.42-.46.82-1.22.78-1.95.64-.71-.13-.92-.68-.87-1.36.08-1.13.14-2.25.18-3.38.1-2.62.25-5.24.51-7.85.36-3.71.71-7.42,1.03-11.13.24-2.79.34-5.6.66-8.39.45-3.93.61-7.89.99-11.89ZM47.77,68.11c0,.5,0,.99,0,1.49q0,1.73,1.71,1.81c.21,0,.42.03.63.06,1.48.25,1.47.25,1.69-1.17.57-3.67,1.13-7.35,1.71-11.02.73-4.59,3.33-7.63,7.85-8.68,3.88-.91,7.84-1.46,11.77-2.17,4.63-.83,9.25-1.64,13.88-2.47,4.06-.73,8.11-1.49,12.18-2.2,4.08-.72,8.16-1.37,12.24-2.11,3.02-.54,4.21.33,4.38,3.39.09,1.49-.1,2.99.26,4.46.97,3.88,3.69,6.36,6.85,8.48.19.13.46.17.69.21.65.11.98-.02.96-.85-.08-2.65-.56-5.24-1.19-7.79-1.74-7.11-5.23-13.31-10.17-18.69-3.36-3.66-7.26-6.6-11.8-8.71-4.03-1.87-8.23-3.12-12.65-3.46-3.65-.28-7.3-.16-10.94.56-5.55,1.08-10.35,3.54-14.48,7.34-5.53,5.09-8.68,11.67-11.3,18.51-1.71,4.47-2.91,9.1-3.47,13.89-.36,3.03-.81,6.04-.8,9.1ZM119.38,59.29c-1.02-.82-1.88-1.51-2.74-2.21-.23-.18-.44-.12-.69-.07-2.73.58-5.47,1.17-8.21,1.71-5.36,1.05-10.72,2.09-16.08,3.1-4.46.84-8.93,1.64-13.39,2.46-.66.12-1.34.24-1.56-.59-.21-.82.48-1.07,1.07-1.32.16-.07.34-.09.51-.12,3.74-.74,7.49-1.42,11.21-2.23,6.63-1.44,13.3-2.68,19.96-3.95,1.83-.35,3.65-.79,5.48-1.18-.45-.83-.9-1.55-1.21-2.32-.23-.59-.59-.6-1.07-.5-2.27.46-4.54.92-6.81,1.37-4.89.96-9.78,1.92-14.67,2.86-5.81,1.12-11.63,2.22-17.45,3.3-1.62.3-3.27.5-4.9.74-.68.1-1.11-.29-1.23-.89-.12-.58.19-1.03.76-1.23.26-.09.53-.16.8-.21,3.5-.68,7-1.35,10.5-2.04,5.18-1.02,10.35-2.05,15.53-3.06,5.58-1.08,11.16-2.14,16.74-3.21.46-.09.73-.29.69-.84-.06-.81-.05-1.63-.03-2.44.03-1.57.04-1.56-1.55-1.38-.28.03-.57.03-.84.08-4.66.82-9.31,1.69-13.98,2.45-5.78.94-11.53,2.08-17.3,3.09-4.85.85-9.7,1.79-14.54,2.7-1.72.32-3.43.66-4.92,1.69-1.52,1.05-2.4,2.91-2.05,4.55.68,3.18,2.59,5.42,5.4,6.9,3.36,1.77,6.91,2.01,10.63,1.3,7.23-1.37,14.5-2.54,21.73-3.9,5.26-.99,10.51-2.07,15.79-2.94,2.76-.46,5.5-1.08,8.44-1.67Z"/>
  <path class="cls-1" d="M161.92,20.95c.08-6.07-2.12-11.14-6.63-15.2-2.95-2.65-6.41-4.44-10.28-5.05-3.71-.58-7.36.13-10.72,1.95-5.8,3.15-9.11,8.15-10.49,14.48-.48,2.2-.27,4.45.39,6.62.18.59.31,1.16-.34,1.46-.59.27-1.18.09-1.6-.45-.8-1.04-.9-2.32-1.12-3.55-1.06-6.11,1.43-11.11,5-15.72,3.16-4.07,7.29-6.74,12.32-7.93,2.87-.68,5.77-.77,8.72-.39,3.69.48,7.2,1.48,10.27,3.58,4.78,3.26,7.78,7.89,9.13,13.46,1.5,6.17.45,12.06-2.64,17.6-1.9,3.4-4.37,6.35-7.6,8.48-6.1,4.03-12.64,5.21-19.62,2.4-1.16-.47-1.51-1.22-1.13-2.2.27-.69,1.2-1.01,2.21-.71,4.42,1.32,8.77,1.12,12.88-.96,6.06-3.07,9.84-7.97,11.06-14.73.09-.51.16-1.03.19-1.55.03-.53,0-1.06,0-1.59Z"/>
  <path class="cls-1" d="M153.15,103.69c-.4-.04-.65-.05-.89-.09-.63-.11-1.19-.31-1.16-1.1.02-.82.62-1.05,1.27-1.12,2.06-.22,4.12-.46,6.05-1.29.45-.2,1.06-.4,1.08-.9.02-.41-.56-.66-.92-.92-.97-.69-2.06-1.21-2.94-2.04-2.11-1.99-1.7-4.65.91-5.92,1.62-.78,3.39-1.03,5.09-1.54.91-.28,1.81-.53,2.58-1.13.5-.38.56-.71.15-1.22-.72-.89-1.67-1.51-2.64-2.03-2.98-1.61-2.55-4.85-.73-6.54,2.54-2.35,5.56-3.88,8.72-5.16.73-.3,1.37,0,1.7.64.35.67-.16,1.13-.67,1.47-2.02,1.32-4.16,2.44-6.1,3.89-2.58,1.94-2.58,2.2.1,3.98.58.39,1.12.86,1.63,1.34,2.39,2.3,1.89,5.11-1.16,6.51-1.79.83-3.77,1.05-5.62,1.69-.82.28-2.02.42-2.17,1.22-.15.79.97,1.26,1.64,1.75.62.45,1.29.86,1.91,1.3,2.21,1.58,2.11,3.87-.21,5.35-1.34.85-2.86,1.1-4.36,1.42-1.12.24-2.28.31-3.28.44Z"/>
  <path class="cls-1" d="M144.72,9.38c0,2.56,0,5.11,0,7.67,0,.37-.21.9.15,1.08.4.2.6-.36.85-.61,2.02-1.92,4.02-3.87,6.04-5.8,1.05-.99,2.32-.73,2.65.52.19.72-.27,1.19-.72,1.62-2.33,2.26-4.67,4.52-7.01,6.77-.45.43-.72.84-.66,1.55.12,1.62-.96,2.86-2.68,3.25-1.49.34-2.82-.4-3.57-1.97-.72-1.51-.43-3.03.88-3.92.56-.38.68-.77.68-1.38.05-4.12.11-8.24.21-12.36.04-1.7,1.37-2.66,2.6-1.96.63.36.77.96.79,1.61.02.67,0,1.34,0,2.02,0,.64,0,1.27,0,1.91-.07,0-.14,0-.2,0Z"/>
  <path class="cls-1" d="M20.79,72.47c-1.07.07-1.22-.66-1.3-1.44-.18-1.88-.84-3.58-1.95-5.11-.75-1.02-1.7-1.75-2.88-2.2-.5-.19-.94-.42-.93-1.11,0-.64.39-.86.87-1.04,2.9-1.09,3.99-3.53,4.67-6.26.14-.54.12-1.12.24-1.67.14-.63.38-1.19,1.22-1.18.77,0,1.02.41,1.16,1.09.22,1.05.3,2.13.67,3.15.83,2.28,2.18,4.05,4.52,4.93.54.2.72.61.72,1.16,0,.51-.33.77-.74.92-3.21,1.2-4.39,3.84-5.01,6.92-.15.77-.07,1.76-1.25,1.84Z"/>
  <path class="cls-1" d="M144.73,127.95c3.5-.15,5.88,1.32,7.34,4.4.96,2.02,1.54,2.2,3.57,1.24,1.52-.72,3.1-1.22,4.74-1.58,2.6-.56,6.18,2.2,6.23,4.83.01.69-.03,1.31-.9,1.55-.87.24-1.29-.27-1.62-.84-1.41-2.43-2.86-2.94-5.46-1.87-1.35.56-2.65,1.21-4.13,1.44-1.75.27-3.12-.28-4.17-1.62-.47-.6-.85-1.3-1.15-2-.91-2.09-2.55-2.95-4.74-3.02-1.14-.04-2.24.16-3.36.28-.62.06-1.26-.02-1.43-.75-.18-.76.28-1.23.95-1.43,1.38-.41,2.78-.77,4.14-.64Z"/>
  <path class="cls-1" d="M148.03,115.59c2.03-.11,3.63.82,5.03,2.12,1.83,1.69,2.41,1.78,4.49.38,1.91-1.29,3.89-2.37,6.3-2.26,1.68.08,3.12.77,4.31,1.92.46.44.56,1.02.15,1.61-.45.65-1.12.76-1.66.37-2.6-1.88-4.91-1.06-7.24.56-1.38.96-2.86,1.7-4.68,1.52-1.16-.12-2.16-.57-2.89-1.36-3.13-3.4-5.91-2.17-8.77.08-.17.13-.31.3-.47.43-.5.42-1.08.64-1.61.15-.54-.5-.51-1.22-.07-1.72,1.89-2.14,4.15-3.65,7.11-3.8Z"/>
  <path class="cls-1" d="M159.36,154.23c.12.43-.05.95-.26,1.41-.23.5-.67.83-1.27.75-.54-.07-.95-.41-.98-.94-.26-3.92-2.97-4.56-6.16-3.99-2.46.44-4.47-.15-5.66-1.84-.59-.84-.78-1.82-.87-2.77-.25-2.62-1.75-4.28-3.93-5.48-.52-.29-1.04-.57-1.58-.82-.61-.28-.71-.76-.53-1.31.18-.55.65-.79,1.18-.63,3.35,1,6.8,2.57,7.72,7.11.08.41,0,.85.08,1.27.25,1.35.97,1.79,2.42,1.65,1.74-.18,3.51-.62,5.24-.06,2.58.84,4.43,2.4,4.61,5.65Z"/>
  <path class="cls-1" d="M22.48,132.36c0-.71-.05-1.42.01-2.12.05-.64.35-1.18,1.13-1.1.68.07,1.06.42,1.06,1.18,0,1.34.13,2.69.07,4.02-.03.74.34.94.88.97.77.04,1.55.02,2.33-.03,1.1-.07,1.76.32,1.78,1.11.02.88-.48,1.3-1.63,1.33-.81.02-1.63.08-2.44,0-.9-.09-1.13.29-1.04,1.09.12.98.2,1.96.07,2.94-.1.77-.01,1.71-1.21,1.7-.88,0-1.24-.5-1.25-1.68,0-1.06-.04-2.13.01-3.18.04-.73-.23-.92-.92-.88-.85.05-1.7.04-2.55,0-.98-.04-1.52-.6-1.44-1.42.08-.76.72-1.23,1.61-1.12.45.05.89.15,1.34.02.69-.2,1.65.37,2.05-.34.3-.54.09-1.38.1-2.08,0-.14,0-.28,0-.42h0Z"/>
  <path class="cls-2" d="M62.39,109.88c-.38,4-.53,7.95-.99,11.89-.32,2.78-.42,5.59-.66,8.39-.32,3.71-.67,7.42-1.03,11.13-.26,2.61-.41,5.23-.51,7.85-.04,1.13-.1,2.26-.18,3.38-.05.69.16,1.23.87,1.36.73.14,1.49.18,1.95-.64.25-.45.32-.93.35-1.42.23-3.52.42-7.03.68-10.55.45-6.04.96-12.08,1.42-18.12.32-4.14.58-8.29.91-12.43.31-3.86.83-7.71.97-11.57.11-2.99.44-5.96.59-8.94.2-4.11.54-8.21.82-12.32.05-.74.13-1.47.15-2.21.02-.87-.34-1.57-1.24-1.69-1-.13-1.35.64-1.48,1.44-.13.83-.18,1.68-.19,2.53-.03,3.73-.55,7.43-.65,11.19-.29-1.13-.54-2.27-.89-3.38-1.33-4.2-3.11-8.15-6.48-11.17-.39-.35-.78-.75-1.25-.98-.7-.35-.9-.81-.78-1.58.37-2.32.66-4.64,1.02-7.2,1.1,1.22,2.01,2.36,3.19,3.25,2.38,1.81,5.04,2.87,7.98,3.33,3.41.54,6.73-.01,10.04-.7,7.15-1.48,14.3-2.94,21.49-4.23,6.36-1.14,12.68-2.45,19.02-3.68,2.44-.47,4.88-.91,7.33-1.36.7-.13.76.31.74.82-.11,2.4-.22,4.8-.34,7.19-.07,1.37-.19,2.74-.25,4.12-.17,4.55-.26,9.09-.51,13.64-.22,3.92-.34,7.84-.46,11.76-.09,2.89-.24,5.78-.38,8.67-.16,3.41-.23,6.82-.46,10.22-.16,2.4-.2,4.81-.54,7.21-.18,1.25.1,2.53,0,3.81-.26,3.2-.54,6.41-.63,9.61-.07,2.5-.26,4.99-.44,7.48-.03.47-.27.62-.64.68-4.08.69-8.13,1.54-12.21,2.19-2.62.42-5.23.96-7.85,1.44-5.08.94-10.16,1.83-15.24,2.76-5.39.98-10.77,1.98-16.16,2.95-3,.54-6,1.25-9.03,1.48-5.08.38-9.46-1.35-12.9-5.2-.99-1.11-1.2-2.46-1-3.87.52-3.7.66-7.44,1.09-11.15.66-5.63,1.06-11.29,1.58-16.93.05-.52.19-.74.71-.84,5.69-1.03,9.72-4.21,12.22-9.39.04-.08.15-.12.27-.22ZM111.96,94.67c-.6-.34-.65-.8-.82-1.15-2.16-4.36-4.3-8.74-6.45-13.11-.39-.79-.92-1.44-1.93-1.33-.55.06-1.1.29-1.65.31-2.01.07-2.43,1.24-2.48,2.98-.08,2.83-.16,5.65-.28,8.47-.21,4.84-.45,9.69-.67,14.53-.03.64-.07,1.31.65,1.65,1.6.75,3.73-.47,3.85-2.21.09-1.34.14-2.67.19-4.01.17-4.05.33-8.1.49-12.15.01-.36.08-.7.32-1.01,2.42,5.41,4.83,10.79,7.22,16.17.33.74.82,1.43,1.6,1.31,1.23-.19,2.69.16,3.56-1.16.11-.17.19-.39.22-.59.08-.62.19-1.25.19-1.88.03-2.93.3-5.84.4-8.76.16-4.37.38-8.75.62-13.12.14-2.56-.48-3.04-3-2.51-.93.2-1.35.62-1.38,1.53-.14,3.71-.27,7.42-.46,11.12-.08,1.59-.2,3.19-.19,4.92ZM77.62,107.97c-.3,2.75.7,2.95,2.11,2.71,3.91-.66,7.8-1.36,11.7-2.06,2.24-.41,2.5-.76,2.47-2.98-.03-1.51-.51-1.88-1.97-1.59-2.8.54-5.6,1.05-8.4,1.57-.59.11-.99.04-.91-.77.17-1.68.35-3.38.33-5.06-.02-1.4.78-1.49,1.82-1.62,2.26-.29,4.52-.66,6.77-1.04.9-.15,1.3-.77,1.23-1.68-.03-.39-.06-.78-.1-1.16-.14-1.31-.58-1.67-1.87-1.48-2.23.33-4.46.63-6.67,1.04-.7.13-.68-.12-.67-.61.04-1.87-.02-3.74.17-5.61.06-.58.27-.85.89-.94,2.92-.46,5.83-.98,8.74-1.47.81-.14,1.44-.49,1.47-1.39.04-1.11.26-2.3-.93-3.05-.32-.2-.65-.14-1.02-.08-3.99.68-7.98,1.33-11.97,1.99-1.41.23-1.92.83-2,2.26-.05,1.06-.15,2.11-.2,3.17-.35,6.79-.69,13.58-1,19.87ZM90.7,142.38c5.47.04,9.3-1.24,12.71-3.88,3.14-2.43,5.34-5.56,6.52-9.37.28-.89.28-1.76-.64-2.34-.99-.63-2.31.01-2.79,1.36-2.25,6.33-6.55,10.08-13.37,10.68-4.86.43-10.06-1.94-12.45-6.53-.19-.37-.35-.77-.57-1.12-.55-.84-1.42-1.09-2.3-.63-.84.44-1.09,1.19-.81,2.06.19.6.44,1.19.77,1.72,3.3,5.38,8.27,7.79,12.93,8.06ZM83.93,122.9c.03.44.03,1.06.13,1.69.18,1.12.82,1.77,1.82,2.04,1.02.28,1.94-.19,2.49-1.33.77-1.61,1.04-3.33.74-5.12-.09-.52-.25-1.02-.56-1.46-.96-1.37-2.81-1.37-3.71.03-.77,1.19-.95,2.55-.9,4.14ZM98.16,121.21c0,.28,0,.56,0,.85.02,1.34.86,2.61,1.9,2.86.85.21,1.94-.44,2.61-1.61.89-1.56.98-3.27.77-4.98-.14-1.13-1.07-2.04-2.12-2.19-1.15-.17-1.79.58-2.34,1.44-.72,1.12-.84,2.36-.82,3.64Z"/>
  <path class="cls-1" d="M111.96,94.67c0-1.74.11-3.33.19-4.92.19-3.71.31-7.41.46-11.12.03-.91.45-1.33,1.38-1.53,2.52-.53,3.15-.05,3,2.51-.24,4.37-.46,8.74-.62,13.12-.1,2.92-.37,5.83-.4,8.76,0,.63-.11,1.26-.19,1.88-.03.2-.1.42-.22.59-.87,1.32-2.34.97-3.56,1.16-.78.12-1.28-.57-1.6-1.31-2.39-5.38-4.8-10.75-7.22-16.17-.25.32-.31.65-.32,1.01-.16,4.05-.32,8.1-.49,12.15-.05,1.34-.1,2.68-.19,4.01-.12,1.74-2.24,2.96-3.85,2.21-.72-.34-.68-1-.65-1.65.22-4.84.47-9.69.67-14.53.12-2.82.2-5.65.28-8.47.05-1.74.47-2.9,2.48-2.98.55-.02,1.09-.25,1.65-.31,1.01-.12,1.54.53,1.93,1.33,2.15,4.37,4.29,8.74,6.45,13.11.17.35.22.81.82,1.15Z"/>
  <path class="cls-1" d="M77.62,107.97c.32-6.29.66-13.08,1-19.87.05-1.06.15-2.11.2-3.17.07-1.43.58-2.03,2-2.26,3.99-.66,7.98-1.31,11.97-1.99.37-.06.7-.12,1.02.08,1.19.74.96,1.94.93,3.05-.03.9-.66,1.25-1.47,1.39-2.91.49-5.82,1.01-8.74,1.47-.61.1-.83.36-.89.94-.18,1.87-.13,3.74-.17,5.61,0,.49-.02.74.67.61,2.21-.41,4.44-.71,6.67-1.04,1.29-.19,1.73.17,1.87,1.48.04.39.07.78.1,1.16.07.91-.33,1.52-1.23,1.68-2.25.38-4.51.76-6.77,1.04-1.05.13-1.84.22-1.82,1.62.02,1.69-.17,3.38-.33,5.06-.08.81.32.88.91.77,2.8-.51,5.61-1.02,8.4-1.57,1.46-.28,1.94.08,1.97,1.59.04,2.23-.23,2.58-2.47,2.98-3.9.71-7.8,1.4-11.7,2.06-1.41.24-2.41.04-2.11-2.71Z"/>
  <path class="cls-1" d="M90.7,142.38c-4.66-.27-9.63-2.67-12.93-8.06-.33-.53-.58-1.13-.77-1.72-.28-.87-.03-1.62.81-2.06.88-.46,1.75-.21,2.3.63.23.35.38.75.57,1.12,2.39,4.58,7.59,6.95,12.45,6.53,6.82-.6,11.12-4.35,13.37-10.68.48-1.35,1.79-1.99,2.79-1.36.91.58.92,1.45.64,2.34-1.18,3.81-3.38,6.94-6.52,9.37-3.41,2.64-7.24,3.92-12.71,3.88Z"/>
  <path class="cls-1" d="M83.93,122.9c-.05-1.59.14-2.95.9-4.14.9-1.4,2.75-1.4,3.71-.03.31.44.48.94.56,1.46.3,1.78.03,3.51-.74,5.12-.54,1.14-1.46,1.61-2.49,1.33-1-.27-1.64-.92-1.82-2.04-.1-.63-.11-1.26-.13-1.69Z"/>
  <path class="cls-1" d="M98.16,121.21c-.02-1.28.1-2.52.82-3.64.55-.86,1.19-1.61,2.34-1.44,1.05.15,1.99,1.07,2.12,2.19.21,1.72.11,3.43-.77,4.98-.67,1.17-1.75,1.82-2.61,1.61-1.04-.25-1.89-1.52-1.9-2.86,0-.28,0-.56,0-.85Z"/>
</svg>