<?xml version="1.0" encoding="UTF-8"?>
<svg id="Layer_1" data-name="Layer 1" xmlns="http://www.w3.org/2000/svg" viewBox="0 0 185.27 157.94">
  <defs>
    <style>
      .cls-1 {
        fill: #70574b;
      }

      .cls-2 {
        fill: #f5d43c;
      }
    </style>
  </defs>
  <path class="cls-1" d="M97.78,132.14c-2.15,0-4.3.03-6.45,0-2.66-.04-5.33.02-7.97-.24-4.86-.49-9.74-.8-14.52-1.89-.85-.19-1.56-.02-2.23.68-4.29,4.52-9.2,8.26-14.65,11.29-3.58,1.99-7.29,3.68-11.33,4.52-1.09.23-2.24.47-2.97-.61-.73-1.07-.3-2.15.37-3.13,2.48-3.63,4.25-7.61,5.6-11.78.67-2.07,1.15-4.18,1.66-6.29.13-.55-.05-.84-.56-1.06-5.76-2.53-11.14-5.7-16.06-9.63-7.19-5.73-12.78-12.65-15.95-21.38-1.81-4.98-2.59-10.14-2.31-15.41.35-6.6,2.24-12.8,5.67-18.47,3.3-5.43,7.54-10.04,12.52-14.01,3.88-3.09,7.96-5.83,12.29-8.22,2.09-1.15,4.19-2.31,6.36-3.27,4.18-1.86,8.47-3.46,12.86-4.78,3.66-1.1,7.37-2.04,11.12-2.71,3.31-.59,6.62-1.17,9.98-1.5,3.03-.3,6.08-.67,9.1-.66,4.16.01,8.33-.34,12.5.16,1.72.2,3.49.12,5.22.33,2.62.32,5.23.63,7.84,1,4.17.6,8.23,1.6,12.28,2.69,3.76,1.01,7.4,2.38,10.98,3.92,5.31,2.27,10.27,5.13,14.9,8.57,2.61,1.94,5.11,4.01,7.4,6.32,3.27,3.3,6.02,6.98,8.21,11.07,2.5,4.66,4.07,9.61,4.82,14.85.34,2.38.54,4.77.37,7.15-.31,4.23-1,8.41-2.5,12.42-2.37,6.31-6.09,11.71-10.83,16.46-3.65,3.66-7.79,6.66-12.15,9.37-5.04,3.14-10.41,5.64-16.01,7.58-6.25,2.17-12.65,3.8-19.23,4.77-2.87.42-5.75.77-8.62,1.2-2.55.38-5.16.36-7.74.51,0,.06,0,.12,0,.18ZM44.36,140.38c5.08-1.97,9.3-4.78,13.34-7.88,2.64-2.02,5.08-4.27,7.32-6.75.51-.56,1.07-1,1.9-.85.64.11,1.3.15,1.93.29,4.01.88,8.07,1.33,12.15,1.65,4.54.36,9.1.43,13.66.33,3.31-.07,6.61-.26,9.91-.48,2.61-.17,5.21-.52,7.78-.93,5.09-.81,10.15-1.83,15.08-3.32,5.18-1.57,10.24-3.51,15.03-6.08,6.5-3.49,12.43-7.71,17.46-13.18,3.75-4.07,6.53-8.69,8.25-13.87,1.67-5,2.15-10.2,1.49-15.48-.61-4.81-2-9.36-4.29-13.62-3.25-6.06-7.91-10.89-13.31-15.04-5.78-4.44-12.13-7.81-18.95-10.39-4.46-1.69-9.04-2.91-13.69-3.91-3.24-.7-6.5-1.2-9.8-1.55-3.19-.33-6.38-.74-9.58-.79-3.23-.06-6.46-.16-9.7.13-1.9.17-3.84.08-5.76.27-5.56.55-11.09,1.38-16.52,2.69-5.34,1.29-10.61,2.87-15.7,4.98-5.38,2.23-10.64,4.72-15.44,8-4.09,2.8-7.99,5.9-11.35,9.61-3.25,3.59-5.99,7.5-7.79,12.02-2.31,5.79-3.06,11.76-2.1,17.93.55,3.52,1.6,6.87,3.12,10.12,2.58,5.48,6.27,10.09,10.77,14.03,5.67,4.97,12.14,8.72,19.05,11.72.87.38,1.32,1.01,1.28,1.95-.05.98-.09,1.97-.26,2.94-.96,5.33-2.25,10.55-5.27,15.48Z"/>
  <path class="cls-1" d="M28.4,32.89c-.97-.02-1.7-.93-1.78-2.21-.07-1.12-.22-2.23-.55-3.31-.77-2.53-2.37-4.17-5.05-4.63-.34-.06-.69-.23-.99-.42-1.24-.76-1.2-2.2.1-2.83.77-.37,1.64-.54,2.43-.86,2.38-.98,3.16-3.15,3.81-5.35.28-.96.32-1.99.46-3,.12-.82.48-1.45,1.36-1.58.88-.13,1.45.29,1.72,1.13.11.34.23.68.22,1.06-.07,1.72.59,3.25,1.26,4.78.88,2.01,2.52,3.01,4.61,3.33.41.06.79.16,1.12.38.59.4.81.96.73,1.7-.08.78-.64,1.14-1.23,1.2-3.09.31-5.9,3.8-6.29,7.02-.1.83-.25,1.65-.43,2.46-.17.78-.72,1.14-1.51,1.12ZM28.5,24.97c.46-1.91,1.78-3.01,3.19-4.12-1.65-.83-2.52-2.19-3.21-3.77-.68,1.75-1.8,2.98-3.49,3.81,1.82.81,2.8,2.25,3.51,4.08Z"/>
  <path class="cls-1" d="M170.7,20.35c.78-.12,1.39.18,1.69.89.28.68.13,1.38-.4,1.91-2.97,2.97-5.93,5.95-8.93,8.89-.8.79-1.93.81-2.57.2-.68-.65-.66-1.81.16-2.65,1.59-1.61,3.09-3.31,4.75-4.85,1.25-1.16,2.4-2.44,3.58-3.67.47-.49.99-.85,1.72-.73Z"/>
  <path class="cls-1" d="M158.2,13.63c.05.79-.37,1.36-.64,1.99-1.25,2.99-2.5,5.97-3.72,8.97-.24.59-.57,1.09-1.04,1.5-.63.55-1.35.52-2.01.11-.64-.41-.89-1-.61-1.79.91-2.62,2.02-5.15,3.09-7.7.41-.96.79-1.94,1.19-2.91.32-.76.8-1.35,1.64-1.61,1.19-.37,2.11.26,2.11,1.44Z"/>
  <path class="cls-2" d="M44.36,140.38c3.02-4.93,4.31-10.15,5.27-15.48.17-.96.21-1.96.26-2.94.05-.94-.41-1.57-1.28-1.95-6.91-3-13.38-6.75-19.05-11.72-4.5-3.95-8.19-8.56-10.77-14.03-1.53-3.24-2.58-6.59-3.12-10.12-.96-6.17-.21-12.14,2.1-17.93,1.81-4.52,4.55-8.43,7.79-12.02,3.36-3.71,7.25-6.81,11.35-9.61,4.8-3.28,10.06-5.77,15.44-8,5.09-2.12,10.36-3.69,15.7-4.98,5.43-1.32,10.95-2.14,16.52-2.69,1.92-.19,3.86-.1,5.76-.27,3.24-.29,6.47-.18,9.7-.13,3.2.06,6.39.46,9.58.79,3.3.35,6.56.85,9.8,1.55,4.65,1,9.23,2.22,13.69,3.91,6.81,2.58,13.17,5.95,18.95,10.39,5.41,4.15,10.06,8.98,13.31,15.04,2.29,4.27,3.68,8.81,4.29,13.62.67,5.29.18,10.48-1.49,15.48-1.73,5.18-4.51,9.79-8.25,13.87-5.04,5.48-10.96,9.69-17.46,13.18-4.78,2.57-9.84,4.51-15.03,6.08-4.93,1.5-9.99,2.52-15.08,3.32-2.58.41-5.17.76-7.78.93-3.3.22-6.6.41-9.91.48-4.56.1-9.12.03-13.66-.33-4.07-.32-8.14-.78-12.15-1.65-.63-.14-1.29-.18-1.93-.29-.83-.14-1.39.29-1.9.85-2.23,2.47-4.68,4.72-7.32,6.75-4.04,3.1-8.26,5.91-13.34,7.88ZM52.98,75.35c.23.3.31.37.35.46,2.38,5.84,5.26,11.47,7.57,17.34.37.93.98,1.54,2,1.6.91.06,1.83.07,2.74,0,.76-.06,1.43-.39,1.59-1.25.11-.61.19-1.23.18-1.85-.01-3.33-.18-6.66-.06-9.98.13-3.66,0-7.32.06-10.97.03-2.03-.06-4.07.04-6.11.03-.62-.05-1.25-.44-1.75-.65-.84-2.48-1.07-3.9-.54-1.08.4-1.09,1.36-1.1,2.27-.02,3.59,0,7.17,0,10.76,0,2.34,0,4.69,0,7.03-2.71-5.83-5.17-11.7-7.46-17.65-.8-2.08-1.55-2.77-4.01-2.63-.43.03-.86.15-1.29.2-1.08.13-1.56.67-1.56,1.81.02,5.12-.01,10.24-.05,15.36-.02,2.72-.08,5.44-.13,8.17-.03,1.53.12,3.05.07,4.58-.03.93.05,1.99,1.03,2.5,1.09.56,2.3.51,3.38.02.95-.44.99-1.41.99-2.37-.02-5.59,0-11.18,0-17.01ZM138.65,78.22h0c0,4.83.02,9.66-.01,14.49,0,.95.4,1.61,1.24,1.82,2.44.62,4.49.06,4.24-3.08-.25-3.2.18-6.41-.15-9.6-.06-.55.12-.8.72-.79,1.97.04,3.95.05,5.92.05.38,0,.63.02.6.51-.09,1.27.28,2.51.23,3.79-.09,2.45-.02,4.9-.05,7.35-.01.92.4,1.43,1.25,1.67.86.24,1.74.25,2.59.03.79-.2,1.28-.7,1.48-1.57.17-.71,0-1.37,0-2.06.03-4.43.06-8.86.05-13.29,0-4.58-.05-9.17-.09-13.75-.01-1.6-.91-2.32-2.87-2.37-1.52-.03-2.39.77-2.39,2.32-.02,3.51-.02,7.02.03,10.53.01.89-.11,1.33-1.16,1.24-1.35-.11-2.71-.03-4.06-.03-2.05,0-2.12,0-2.16-2.02-.07-3.01-.08-6.03,0-9.04.04-1.71-.73-2.69-2.44-2.79-1.94-.11-3.01.83-2.97,2.54.1,4.68.04,9.36.04,14.04ZM89.67,82.24c0-.48,0-.95,0-1.43-.01-.47-.02-.95-.06-1.42-.16-1.71-.95-2.55-2.33-2.31-.84.15-1.67.08-2.5.09-1.13.02-2.26.02-3.39.05-1.05.03-1.4.8-1.34,1.64.09,1.2-.71,2.74,1.07,3.39.33.12.73.05,1.09.05.55,0,1.1,0,1.65-.01.32,0,.6.05.6.45-.01,2.09-.11,4.18-1.37,5.97-1.25,1.77-3.29,1.82-4.73.18-.84-.95-1.32-2.1-1.64-3.28-1.29-4.73-1.22-9.48-.09-14.23.36-1.53.84-3.02,2.06-4.13,1.48-1.35,3.71-.93,4.59.86.32.66.51,1.36.55,2.1.06,1.02.69,1.53,1.64,1.51,1.22-.02,2.63.44,3.39-1.07.06-.13.13-.27.13-.41.01-3.19-1.06-5.9-3.8-7.66-2.56-1.64-5.35-1.82-8.09-.48-3.53,1.72-4.91,5.01-5.83,8.53-1.02,3.89-.95,7.88-.63,11.84.23,2.83.81,5.61,2.37,8.07,1.92,3.04,4.54,4.92,8.3,4.68,3.5-.23,5.69-2.31,7.09-5.34,1.12-2.42,1.38-5.02,1.31-7.66ZM121.47,84.5c-2.03-.03-2.92.61-2.98,2.2-.01.43.1.86.18,1.29.34,1.91,1.16,3.57,2.56,4.95,1.54,1.51,3.55,1.97,5.51,2.53.73.21,1.38-.27,2.08-.41,1.82-.37,3.34-1.28,4.51-2.67,3.26-3.89,2.97-10.31-.48-14.02-1.49-1.6-3.24-2.81-5.02-4.02-1.73-1.17-3.36-2.46-3.01-4.9.28-2.03,1.18-3.3,2.73-3.19,1.62.11,2.54.87,2.97,2.79.17.76.48,1.23,1.27,1.43,1.17.29,2.33.26,3.21-.53.86-.78.66-1.92.46-2.99-.69-3.77-5.12-6.39-8.89-5.8-5.23.82-7.44,5.39-7.16,9.57.19,2.88,1.77,5.12,4,6.89,1.28,1.01,2.61,1.97,3.92,2.96,2.1,1.59,3.23,3.6,2.79,6.33-.34,2.1-1.23,3.12-2.84,3.11-1.72-.01-2.89-1.16-3.33-3.29-.4-1.91-.71-2.19-2.46-2.21ZM28.78,86.3c0,2.51-.02,4.48,0,6.44.02,1.72.57,2.26,2.31,2.27,3.15.01,6.29,0,9.44,0,3.05,0,3.31-.27,3.22-3.31-.04-1.43-.57-1.93-2.03-1.94-2.27-.02-4.54-.07-6.8-.04-.71,0-.85-.21-.84-.87.04-2.25.05-4.5-.01-6.75-.02-.82.28-.95,1-.93,1.61.05,3.22.02,4.83.01,1.86-.01,2.39-.57,2.35-2.43,0-.36-.03-.73-.03-1.09-.02-1.43-.52-1.94-1.99-1.94-1.79,0-3.58-.02-5.37.02-.62.01-.8-.18-.78-.8.04-2.16.04-4.31,0-6.47-.01-.71.18-.94.91-.92,2.36.05,4.73.02,7.09.03.84,0,1.58-.23,1.76-1.14.2-1,.21-2.03.03-3.05-.1-.58-.44-.93-1.04-1.13-.58-.19-1.15-.16-1.73-.16-3.29,0-6.58-.02-9.88,0-1.7.01-2.62.89-2.6,2.3.05,3.41.17,6.83.09,10.24-.1,4.07.28,8.14.07,11.66ZM98.67,76.27c0-4.05,0-8.11,0-12.16,0-.61-.06-1.17-.58-1.58-1.17-.93-2.52-.74-3.74-.32-1.04.36-1.18,1.45-1.18,2.47,0,2.81.03,5.62,0,8.43-.06,6.42.29,12.84.14,19.27-.03,1.53.77,2.29,2.27,2.29,3,0,5.99-.01,8.99-.06,2.91-.05,3.11-.27,3.08-3.15-.02-1.52-.6-2.12-2.11-2.13-1.98-.01-3.95-.05-5.93,0-.8.02-.98-.25-.97-1,.03-4.02.02-8.04.01-12.06ZM115.79,66.81c.02-1.13-.14-2.08-.14-3.01,0-1.54-1.21-2.05-3.04-1.93-1.32.09-2.06.9-2.07,2.3-.03,3.09-.03,6.17-.06,9.26-.01,1.24-.12,2.47-.11,3.71.02,2.74.16,5.49.13,8.23-.03,2.52-.08,5.04.02,7.56.04,1.06.59,1.7,1.56,1.79,2.46.22,3.89-.16,3.6-3.06-.03-.29-.02-.58-.01-.87.05-3.87.08-7.74.15-11.61.07-4.18-.29-8.36-.01-12.36Z"/>
  <path class="cls-1" d="M52.98,75.35c0,5.83,0,11.42,0,17.01,0,.95-.03,1.93-.99,2.37-1.08.5-2.3.54-3.38-.02-.98-.5-1.06-1.57-1.03-2.5.06-1.53-.09-3.05-.07-4.58.05-2.72.11-5.44.13-8.17.04-5.12.07-10.24.05-15.36,0-1.15.47-1.68,1.56-1.81.43-.05.86-.18,1.29-.2,2.46-.14,3.21.55,4.01,2.63,2.29,5.94,4.75,11.82,7.46,17.65,0-2.34,0-4.69,0-7.03,0-3.59-.01-7.17,0-10.76,0-.91.01-1.86,1.1-2.27,1.42-.53,3.25-.3,3.9.54.39.5.47,1.14.44,1.75-.1,2.04-.01,4.07-.04,6.11-.05,3.66.07,7.31-.06,10.97-.12,3.32.05,6.65.06,9.98,0,.62-.07,1.24-.18,1.85-.16.85-.83,1.19-1.59,1.25-.91.07-1.83.05-2.74,0-1.01-.06-1.63-.67-2-1.6-2.31-5.87-5.19-11.5-7.57-17.34-.04-.09-.12-.16-.35-.46Z"/>
  <path class="cls-1" d="M138.65,78.22c0-4.68.07-9.36-.04-14.04-.04-1.7,1.03-2.64,2.97-2.54,1.7.1,2.48,1.07,2.44,2.79-.07,3.01-.06,6.03,0,9.04.04,2.02.11,2.02,2.16,2.02,1.35,0,2.71-.08,4.06.03,1.05.09,1.18-.35,1.16-1.24-.05-3.51-.04-7.02-.03-10.53,0-1.55.87-2.36,2.39-2.32,1.96.04,2.86.77,2.87,2.37.04,4.58.08,9.17.09,13.75,0,4.43-.02,8.86-.05,13.29,0,.68.16,1.35,0,2.06-.21.87-.7,1.37-1.48,1.57-.85.21-1.73.21-2.59-.03-.85-.23-1.26-.75-1.25-1.67.03-2.45-.04-4.9.05-7.35.05-1.28-.32-2.52-.23-3.79.04-.49-.21-.51-.6-.51-1.97,0-3.95,0-5.92-.05-.6-.01-.77.24-.72.79.34,3.2-.1,6.4.15,9.6.25,3.15-1.8,3.7-4.24,3.08-.84-.21-1.24-.88-1.24-1.82.03-4.83.01-9.66.01-14.49h0Z"/>
  <path class="cls-1" d="M89.67,82.23c.07,2.64-.19,5.23-1.31,7.66-1.4,3.03-3.59,5.11-7.09,5.34-3.76.25-6.38-1.63-8.3-4.68-1.55-2.46-2.14-5.25-2.37-8.07-.32-3.96-.39-7.95.63-11.84.92-3.52,2.3-6.81,5.83-8.53,2.75-1.34,5.54-1.17,8.09.48,2.74,1.76,3.82,4.47,3.8,7.66,0,.14-.06.28-.13.41-.76,1.51-2.17,1.04-3.39,1.07-.96.02-1.59-.49-1.64-1.51-.04-.74-.22-1.44-.55-2.1-.88-1.79-3.11-2.21-4.59-.86-1.21,1.11-1.69,2.6-2.06,4.13-1.13,4.75-1.2,9.5.09,14.23.32,1.18.8,2.33,1.64,3.28,1.44,1.64,3.49,1.59,4.73-.18,1.25-1.78,1.35-3.88,1.37-5.97,0-.4-.28-.46-.6-.45-.55.01-1.1.02-1.65.01-.37,0-.76.07-1.09-.05-1.79-.65-.98-2.2-1.07-3.39-.07-.85.28-1.61,1.34-1.64,1.13-.04,2.26-.03,3.39-.05.83-.02,1.66.05,2.5-.09,1.38-.24,2.17.61,2.33,2.31.04.47.05.95.06,1.42.01.48,0,.95,0,1.43Z"/>
  <path class="cls-1" d="M121.47,84.5c1.75.03,2.06.31,2.46,2.21.44,2.12,1.61,3.27,3.33,3.29,1.61.01,2.5-1.01,2.84-3.11.44-2.73-.69-4.74-2.79-6.33-1.31-.99-2.63-1.95-3.92-2.96-2.24-1.76-3.81-4.01-4-6.89-.28-4.18,1.93-8.76,7.16-9.57,3.77-.59,8.2,2.03,8.89,5.8.2,1.07.4,2.21-.46,2.99-.88.79-2.04.83-3.21.53-.79-.2-1.1-.67-1.27-1.43-.43-1.92-1.34-2.68-2.97-2.79-1.55-.11-2.44,1.17-2.73,3.19-.34,2.44,1.28,3.73,3.01,4.9,1.78,1.21,3.54,2.42,5.02,4.02,3.45,3.72,3.74,10.13.48,14.02-1.17,1.4-2.68,2.3-4.51,2.67-.69.14-1.34.62-2.08.41-1.96-.56-3.97-1.02-5.51-2.53-1.4-1.37-2.21-3.04-2.56-4.95-.08-.43-.19-.86-.18-1.29.05-1.58.95-2.23,2.98-2.2Z"/>
  <path class="cls-1" d="M28.78,86.3c.22-3.52-.16-7.59-.07-11.66.08-3.41-.04-6.82-.09-10.24-.02-1.41.9-2.28,2.6-2.3,3.29-.03,6.58-.01,9.88,0,.58,0,1.14-.03,1.73.16.6.2.94.54,1.04,1.13.18,1.01.16,2.05-.03,3.05-.18.9-.92,1.14-1.76,1.14-2.36,0-4.73.02-7.09-.03-.74-.02-.93.21-.91.92.04,2.16.04,4.31,0,6.47-.01.62.17.81.78.8,1.79-.04,3.58-.03,5.37-.02,1.47,0,1.97.51,1.99,1.94,0,.36.02.73.03,1.09.04,1.86-.49,2.42-2.35,2.43-1.61.01-3.22.04-4.83-.01-.72-.02-1.02.11-1,.93.06,2.25.05,4.5.01,6.75-.01.66.14.88.84.87,2.27-.03,4.53.03,6.8.04,1.46.01,1.99.51,2.03,1.94.09,3.04-.17,3.31-3.22,3.31-3.15,0-6.29.01-9.44,0-1.74,0-2.3-.55-2.31-2.27-.02-1.96,0-3.93,0-6.44Z"/>
  <path class="cls-1" d="M98.67,76.27c0,4.02.02,8.04-.02,12.06,0,.75.17,1.02.97,1,1.97-.05,3.95-.02,5.93,0,1.52.01,2.1.6,2.11,2.13.04,2.88-.16,3.1-3.08,3.15-3,.05-5.99.05-8.99.06-1.51,0-2.31-.75-2.27-2.29.14-6.42-.21-12.84-.14-19.27.03-2.81,0-5.62,0-8.43,0-1.02.14-2.11,1.18-2.47,1.22-.42,2.57-.6,3.74.32.51.4.58.97.58,1.58-.01,4.05,0,8.11,0,12.16Z"/>
  <path class="cls-1" d="M115.79,66.81c-.28,3.99.08,8.18.01,12.36-.07,3.87-.1,7.74-.15,11.61,0,.29-.02.58.01.87.29,2.9-1.14,3.28-3.6,3.06-.97-.09-1.52-.74-1.56-1.79-.1-2.52-.05-5.04-.02-7.56.03-2.74-.1-5.48-.13-8.23-.01-1.24.1-2.47.11-3.71.03-3.09.04-6.17.06-9.26.01-1.4.75-2.21,2.07-2.3,1.83-.12,3.03.39,3.04,1.93,0,.93.16,1.88.14,3.01Z"/>
  <path class="cls-1" d="M156.24,129.05c0-1.29-.08-2.58.02-3.86.1-1.17.63-2.14,2.05-2,1.24.13,1.93.77,1.93,2.14,0,2.44.23,4.88.13,7.32-.06,1.34.61,1.71,1.61,1.77,1.41.08,2.83.03,4.24-.05,2.01-.12,3.21.59,3.24,2.02.04,1.61-.88,2.37-2.96,2.42-1.48.03-2.97.15-4.44,0-1.64-.16-2.06.53-1.88,1.99.22,1.78.36,3.57.13,5.35-.18,1.4-.03,3.11-2.2,3.1-1.6,0-2.26-.91-2.27-3.06,0-1.93-.08-3.87.03-5.79.07-1.32-.42-1.68-1.67-1.6-1.54.1-3.09.07-4.63,0-1.78-.07-2.77-1.09-2.62-2.58.14-1.38,1.31-2.24,2.93-2.04.82.1,1.62.27,2.43.04,1.26-.36,3.01.67,3.73-.62.55-.99.16-2.51.18-3.79,0-.26,0-.51,0-.77h0Z"/>
</svg>