<?xml version="1.0" encoding="UTF-8"?>
<svg id="Layer_1" data-name="Layer 1" xmlns="http://www.w3.org/2000/svg" viewBox="0 0 267.3 37.93">
  <defs>
    <style>
      .cls-1 {
        fill: #70574b;
      }

      .cls-2 {
        fill: #f5d43c;
      }
    </style>
  </defs>
  <path class="cls-1" d="M26.08,22.53c1.76-5.94,3.44-11.5,5.06-17.08,1.09-3.77,1.06-3.78,4.43-1.73q3.6,2.18,2.25,6.19c-2.83,8.39-5.47,16.84-8.7,25.1-.26.67-.34,1.68-1.04,1.82-.79.15-1.04-.89-1.44-1.45-2.19-3.07-4.37-6.15-6.49-9.27-.72-1.06-1.15-1.11-1.83.03-1.99,3.33-3.99,6.66-6.34,9.75-.27.36-.45.98-.96.94-.54-.04-.57-.68-.72-1.1C6.93,26.32,3.56,16.89.17,7.48c-.32-.89-.2-1.47.61-1.99,1.19-.76,2.37-1.55,3.51-2.39,1.07-.78,1.59-.73,2.01.71,1.73,5.88,3.58,11.72,5.4,17.57.15.48.13,1.23.69,1.3.61.08.7-.68.91-1.12,1.69-3.49,3.35-7,5.04-10.49.26-.54.32-1.45.98-1.49.72-.04.73.89.99,1.42,1.71,3.48,3.4,6.97,5.1,10.45.13.27.32.51.68,1.06Z"/>
  <path class="cls-1" d="M56.42,1.59c2.72.01,5.45-.15,8.17.11,1.13.11,1.71.45,1.45,1.78-.27,1.38-.1,2.81-.29,4.23-.14,1.07-.69,1.43-1.62,1.52-2.45.24-4.89.54-7.35.68-1.12.07-1.57.41-1.57,1.58-.02,3.46-.06,3.46,3.31,3.34,1.47-.05,2.94-.02,4.4-.14,1.02-.08,1.47.24,1.44,1.28-.04,1.73-.06,3.46-.05,5.19,0,1-.42,1.43-1.43,1.36-1.99-.13-3.97-.2-5.96-.33-1.01-.07-1.42.3-1.39,1.35.16,5.77-.59,4.74,4.73,4.73,1.56,0,3.12-.33,4.66-.6.93-.17,1.39-.03,1.32,1.03-.15,2.35-.25,4.71-.36,7.06-.04.83-.44,1.23-1.29,1.23-5.13-.05-10.27.28-15.39-.29-.92-.1-1.39-.42-1.43-1.45-.46-10.73-.51-21.47-.31-32.2.02-1.14.58-1.46,1.56-1.45,2.46,0,4.93,0,7.39,0Z"/>
  <path class="cls-1" d="M174.99,20.96c-.51-6.14.14-12.01-.01-17.88-.03-1.11.49-1.5,1.51-1.5,5.03.02,10.07.02,15.1.05,1.48,0,2.32.49,1.93,2.27-.28,1.26-.13,2.6-.3,3.91-.13,1.01-.64,1.33-1.53,1.41-2.45.23-4.9.53-7.35.67-1.23.07-1.63.55-1.62,1.74.02,3.29-.02,3.28,3.2,3.19,1.57-.05,3.15-.03,4.72-.1.88-.04,1.24.3,1.22,1.18-.04,1.78-.05,3.57-.05,5.35,0,.95-.48,1.3-1.39,1.24-1.88-.12-3.77-.18-5.65-.33-1.25-.11-1.81.26-1.75,1.64.24,5.48-.69,4.45,4.64,4.44,1.61,0,3.23-.34,4.82-.61.86-.15,1.31,0,1.25.96-.14,2.41-.25,4.82-.37,7.22-.04.77-.45,1.14-1.2,1.14-5.19-.03-10.38.29-15.56-.28-1-.11-1.29-.6-1.33-1.55-.18-4.82-.37-9.63-.29-14.18Z"/>
  <path class="cls-1" d="M252.67,13.21c2.8-3.18,5.62-6.34,8.39-9.54,1.76-2.02,1.74-2.05,2.77.34.72,1.68,1.37,3.4,2.14,5.07.43.94.24,1.5-.57,2.12-2.29,1.75-4.49,3.62-6.78,5.36-1.01.77-1.28,1.35-.44,2.52,2.92,4.04,5.68,8.18,8.56,12.24.69.97.82,1.65-.13,2.54-1.14,1.07-2.17,2.28-3.19,3.47-.79.91-1.29.75-1.87-.23-2.24-3.79-4.52-7.56-6.8-11.32-.29-.48-.41-1.42-1.23-1.09-.74.29-1.39.8-1.32,1.89.2,2.93.23,5.86.4,8.79.07,1.22-.33,1.73-1.59,1.66-1.31-.08-2.62-.09-3.93-.02-1.32.07-1.79-.51-1.76-1.76.08-3.2.17-6.39.18-9.59.03-7.45.04-14.89-.02-22.34-.01-1.48.41-2.14,1.94-2.04,1.15.07,2.31.02,3.46-.05,1.1-.07,1.48.41,1.46,1.48-.04,3.45-.01,6.91-.01,10.36.12.05.23.1.35.16Z"/>
  <path class="cls-1" d="M227.33,37.73c-1.06.37-1.63-.43-1.92-1.86-.39-1.95-.96-3.86-1.43-5.79-.22-.89-.67-1.31-1.65-1.27-1.99.08-3.97.08-5.96.09-.79,0-1.08.45-1.27,1.12-.55,1.91-1.22,3.79-1.67,5.73-.31,1.33-.98,1.54-2.13,1.21-1.11-.32-2.22-.63-3.35-.84-1.27-.25-1.59-.82-1.17-2.09,3.46-10.33,6.9-20.67,11.05-30.76.32-.78.61-1.56.94-2.33.16-.36.16-.93.69-.93.51,0,.56.56.71.93,1.48,3.58,2.98,7.16,4.41,10.76,3.09,7.79,6.07,15.62,8.88,23.52.51,1.42.15,1.89-1.24,2-1.46.11-2.91.3-4.89.52ZM219.34,13.09c-.12.01-.23.03-.35.04-.41,1.29-.84,2.58-1.23,3.88q-1.03,3.4,2.56,3.12c.1,0,.21-.01.31-.02.79-.01,1.01-.38.75-1.12-.69-1.96-1.36-3.94-2.03-5.91Z"/>
  <path class="cls-1" d="M145.52,37.26c-2.85.09-2.92.08-2.82-2.74.36-10.27.11-20.54.17-30.82,0-1.29.44-1.87,1.68-2.17,4.35-1.04,8.52-1.01,12.3,1.79,1.97,1.46,3.24,3.46,3.95,5.74,1.35,4.31,1.43,8.68-.24,12.94-1.71,4.36-5.01,6.75-9.68,7.1-1.44.11-2.1.58-2.03,2.08.06,1.3-.09,2.62-.12,3.93-.05,2.09-.04,2.09-2.12,2.14-.37,0-.73,0-1.1,0ZM154.85,15.51c.1-1.05-.09-2.18-.42-3.29-.67-2.3-2.45-3.59-4.75-3.58-.86,0-1.26.24-1.17,1.17.37,3.6.16,7.22.25,10.83.05,2.14.72,2.57,2.7,1.73.95-.4,1.68-1.04,2.21-1.93.88-1.48,1.27-3.09,1.17-4.92Z"/>
  <path class="cls-2" d="M89.78,36.98c-2.25,0-4.51-.02-6.76,0-1.27.01-1.87-.42-1.88-1.83-.07-10.79-.19-21.58-.34-32.36-.01-1.07.38-1.37,1.37-1.32,1.52.07,3.04.07,4.56.04.92-.02,1.33.27,1.29,1.26-.22,6.07-.4,12.13-.58,18.2-.05,1.68-.07,3.35-.09,5.03-.02,2.04.21,2.19,2.29,1.91,2.59-.36,5.19-.63,7.78-1,.92-.13,1.28.21,1.26,1.08-.06,2.51.05,5.02-.23,7.53-.12,1.1-.62,1.44-1.6,1.44-2.36,0-4.71,0-7.07,0,0,0,0,.01,0,.02Z"/>
  <path class="cls-2" d="M120.31,36.98c-2.15,0-4.3.02-6.45,0-2.05-.03-2.14-.14-2.16-2.14-.12-10.74-.23-21.49-.38-32.23-.01-.82.19-1.15,1.03-1.12,1.62.05,3.25.06,4.88.04.93-.01,1.33.37,1.31,1.31-.16,5.71-.29,11.42-.44,17.13-.05,2.04-.17,4.08-.21,6.12-.04,1.96.2,2.12,2.21,1.84,2.59-.35,5.2-.63,7.79-1.01.99-.15,1.38.18,1.34,1.14-.1,2.46.03,4.92-.19,7.38-.12,1.31-.71,1.55-1.8,1.53-2.31-.03-4.61,0-6.92,0,0,0,0,.01,0,.02Z"/>
</svg>