<?xml version="1.0" encoding="UTF-8"?>
<svg id="Layer_1" data-name="Layer 1" xmlns="http://www.w3.org/2000/svg" viewBox="0 0 41.07 41.06">
  <defs>
    <style>
      .cls-1 {
        fill: #fff;
      }
    </style>
  </defs>
  <g id="FwPFPe">
    <path class="cls-1" d="M41.06,3.68v33.57c-1.44,3.7-4.56,4.52-9.78,3.18-7.75-1.99-15.88-2.05-23.53.29-5.15,1.58-8.55-2.74-7.58-6.62,1.95-7.84,2.45-15.93.49-23.77C-.69,4.95-.04,1.59,3.81,0h33.57c1.79.66,3.04,1.87,3.68,3.68ZM21.41,16s0,0,.01,0c0,3.04.03,6.07-.01,9.11-.03,2.06-1.31,3.69-3.14,4.2-1.75.49-3.64-.25-4.63-1.81-1.01-1.58-.89-3.5.33-4.94.84-.99,1.91-1.54,3.23-1.47.89.05,1.17-.36,1.06-1.32-.08-.72-.03-1.46.02-2.18.07-.96-.3-1.29-1.25-1.28-5.62.03-9.85,5.44-8.56,10.99,1,4.29,5.15,7.32,9.41,6.87,4.75-.5,8.13-4.12,8.17-8.79.02-2.97,0-5.93,0-8.9,0-1.21.07-1.25,1.08-.67,1.47.84,3.05,1.32,4.73,1.53.88.11,1.12-.23,1.08-1.06s-.05-1.61,0-2.42-.21-1.13-1.02-1.28c-2.53-.45-4.28-1.93-5.36-4.28-.36-.78,0-1.99-.98-2.32-.8-.27-1.75-.08-2.64-.1-.1,0-.21.01-.31,0-.93-.11-1.27.29-1.26,1.23.04,2.97.01,5.93.01,8.9Z"/>
  </g>
</svg>