<?xml version="1.0" encoding="UTF-8"?>
<svg id="Layer_1" data-name="Layer 1" xmlns="http://www.w3.org/2000/svg" viewBox="0 0 41.07 41.06">
  <defs>
    <style>
      .cls-1 {
        fill: #fff;
      }
    </style>
  </defs>
  <g id="XxYepp">
    <path class="cls-1" d="M30.61,34.98H10.55c-1.29-.12-2.57-.25-3.86-.36-3.76-.33-5.46-1.85-6.08-5.55C-.06,25.09-.05,21.07.11,17.06c.08-2.04.23-4.08.71-6.07.54-2.21,2.38-3.87,4.63-4.25,1.09-.18,2.18-.31,3.28-.38,6.82-.42,13.64-.28,20.46-.17,2.14.03,4.29.18,6.42.52,2.76.43,4.38,1.97,4.9,4.74.22,1.17.36,2.35.54,3.52v11.21c-.18,1.21-.33,2.43-.55,3.63-.51,2.67-2.15,4.26-4.83,4.63-1.68.23-3.37.36-5.05.54ZM27.1,20.4c-.14-.17-.19-.27-.27-.31-3.01-1.73-6.03-3.44-9.04-5.17-.76-.44-.78.06-.78.6,0,3.2.01,6.39,0,9.59,0,.86.28.92.96.52,2.21-1.28,4.44-2.53,6.65-3.8.82-.47,1.64-.94,2.49-1.43Z"/>
  </g>
</svg>