<?xml version="1.0" encoding="UTF-8"?>
<svg id="Layer_1" data-name="Layer 1" xmlns="http://www.w3.org/2000/svg" viewBox="0 0 41.07 41.06">
  <defs>
    <style>
      .cls-1 {
        fill: #fff;
      }
    </style>
  </defs>
  <g id="wHUsjl">
    <g>
      <path class="cls-1" d="M0,28.04c0-5.05,0-10.1,0-15.15.05-.54.12-1.08.14-1.62C.35,5.87,3.6,1.77,8.75.44c.75-.19,1.53-.3,2.3-.44,6.21,0,12.42,0,18.63,0,.2.04.4.1.6.12,6.34.62,10.53,4.87,10.68,11.2.15,6.07.14,12.14,0,18.21-.14,6.01-3.86,10.17-9.69,11.19-2.3.4-4.62.3-6.94.28-4.57-.05-9.14.24-13.7-.2-5.36-.52-9.14-3.88-10.19-9.1C.2,30.49.14,29.26,0,28.04ZM20.76,3.62c-2.83,0-5.66-.05-8.49.01-4.6.1-7.63,2.72-7.89,6.93-.4,6.37-.4,12.74,0,19.11.22,3.54,2.37,5.95,5.75,6.67.7.15,1.42.25,2.13.27,5.66.15,11.32.13,16.98,0,4.8-.12,7.67-2.79,7.94-7.22.38-6.17.3-12.34,0-18.5-.2-4.06-2.58-6.57-6.59-7.09-3.26-.42-6.54-.17-9.81-.17Z"/>
      <path class="cls-1" d="M31.38,20.18c0,5.82-4.85,10.64-10.65,10.62-5.86-.03-10.6-4.86-10.58-10.78.02-5.77,4.8-10.53,10.6-10.55,5.86-.02,10.64,4.81,10.63,10.72ZM27.38,20.16c.02-3.72-2.85-6.67-6.53-6.71-3.72-.04-6.7,2.9-6.72,6.63-.01,3.75,2.93,6.74,6.63,6.73,3.66,0,6.6-2.96,6.61-6.65Z"/>
      <path class="cls-1" d="M34.23,9.2c0,1.4-1.13,2.57-2.5,2.59-1.4.02-2.64-1.18-2.65-2.58-.01-1.38,1.24-2.62,2.64-2.6,1.38.02,2.52,1.19,2.52,2.58Z"/>
    </g>
  </g>
</svg>