<?xml version="1.0" encoding="UTF-8"?>
<svg id="Layer_1" data-name="Layer 1" xmlns="http://www.w3.org/2000/svg" viewBox="0 0 41.07 41.06">
  <defs>
    <style>
      .cls-1 {
        fill: #fff;
      }
    </style>
  </defs>
  <g id="FwPFPe">
    <path class="cls-1" d="M40.03,4.53v31.89c-.97,2.5-2.75,3.62-5.48,3.6-9.37-.07-18.73-.11-28.1.02-3.3.04-5.45-2.6-5.42-5.39.1-9.3.09-18.6,0-27.9-.02-2.78,1.05-4.66,3.6-5.71h31.89c1.7.63,2.89,1.78,3.5,3.5ZM21.4,16.34s0,0,.01,0c0,2.88.03,5.77-.01,8.65-.03,1.96-1.24,3.5-2.98,3.99-1.67.46-3.45-.24-4.4-1.71-.96-1.5-.85-3.33.32-4.69.8-.94,1.82-1.46,3.07-1.4.77.04,1.06-.28,1.03-1.02-.03-.78-.04-1.56,0-2.33.05-.89-.3-1.19-1.19-1.19-5.34.03-9.36,5.17-8.13,10.44.95,4.08,4.89,6.95,8.94,6.53,4.52-.48,7.72-3.91,7.76-8.35.02-2.82,0-5.64,0-8.46,0-1.15.06-1.19,1.02-.64,1.4.8,2.9,1.26,4.5,1.45.82.1,1.06-.2,1.03-.94-.02-.81-.03-1.62,0-2.43.03-.71-.23-1.01-.97-1.14-2.41-.43-4.07-1.84-5.09-4.06-.34-.74,0-1.89-.93-2.2-.76-.26-1.67-.08-2.51-.1-.1,0-.2.01-.29,0-.88-.1-1.21.27-1.2,1.17.04,2.82.01,5.64.01,8.46Z"/>
  </g>
</svg>