<?xml version="1.0" encoding="UTF-8"?>
<svg id="Layer_1" data-name="Layer 1" xmlns="http://www.w3.org/2000/svg" viewBox="0 0 860 239">
  <defs>
    <style>
      .cls-1 {
        fill: #5c5b52;
      }

      .cls-2 {
        fill: #577d8f;
      }

      .cls-3 {
        fill: #737166;
      }

      .cls-4 {
        fill: #d3ddf5;
      }

      .cls-5 {
        fill: #fff;
      }

      .cls-6 {
        fill: #4a4942;
      }

      .cls-7 {
        fill: #70574b;
      }

      .cls-8 {
        stroke: #fff;
        stroke-width: 3.65px;
      }

      .cls-8, .cls-9 {
        fill: none;
        stroke-linecap: round;
        stroke-miterlimit: 10;
      }

      .cls-10 {
        fill: #f5d43c;
      }

      .cls-11 {
        fill: #446a7d;
      }

      .cls-9 {
        stroke: #d6d6d6;
        stroke-width: 6.85px;
      }

      .cls-12 {
        fill: #ffe67b;
      }
    </style>
  </defs>
  <g>
    <path class="cls-7" d="M43.51,68.18c-1.26,1.18-2.44,2.27-3.7,3.18-2.44-2.45-7.67-6.64-10.74-8.64,7.58-4.73,14.71-12.73,18.5-20.82l12.9,3.82c-.9,1.82-1.8,3.55-2.89,5.27h54.92v12h-9v10h12v11h-12v10h10v12H32.51v-12h11v-10h-12v-12h12v-3.82h0ZM30.16,124.66c3.89-3.89,7.87-11.2,9.9-17.95l13.14,3.15c-1.94,7.22-5.74,14.9-9.99,19.99l-13.05-5.18h0ZM55.51,73h5v-10h-5v10ZM55.51,94h5v-10h-5v10ZM69.49,108.93c1.2,5.74,2.31,13.23,2.41,17.86l-13.23,1.94c0-4.63-.65-12.4-1.67-18.32,0,0,12.49-1.48,12.49-1.48ZM75.51,73v-10h-5v10h5ZM70.51,84v10h5v-10h-5ZM87.82,108.65c2.22,5.55,4.44,12.86,5.18,17.58l-13.51,2.59c-.46-4.63-2.41-12.22-4.35-18.05l12.68-2.13h0ZM91.51,63h-5v10h5v-10ZM91.51,84h-5v10h5v-10ZM106.24,106.33c3.98,5.74,9.07,13.6,11.38,18.88l-13.88,4.53c-1.85-5.09-6.57-13.33-10.46-19.43l12.96-3.98Z"/>
    <path class="cls-7" d="M200.51,105.36v24.64h-13v-22.3l-24.33,4.35-1.86-11.57-7.61,9.81c-1.21-2.68-3.16-6.2-5.2-9.72v28.43h-12v-28.88c-2.78,8.28-6.14,16.18-9.78,21.76-1.15-4.33-4.12-10.69-6.14-14.64,4.41-5.39,8.63-14.44,11.41-22.24h-9.49v-13h14v-30h12v26.91c1.68-5.87,3.55-14.58,4.4-20.8l11.32,2.22c-2.43,7.47-5.14,16-7.39,21.42l-8.32-2.13v3.38h13v12h-13v.37c2.79,2.31,10.49,10.74,12.91,13.6l26.09-4.63v-52.35h13v50.48l8.99-1.57,2.01,12.51-10.99,1.95h-.02ZM125.76,71.81c-.09-6.02-1.67-15.27-3.7-22.21l9.25-2.41c2.31,6.94,3.98,15.92,4.35,21.93l-9.9,2.68h0ZM167.78,68.76c5.28,2.87,12.31,7.4,15.64,10.83l-6.76,10.74c-3.05-3.52-9.9-8.61-15.18-11.94l6.29-9.62h0ZM179.72,67.19c-2.78-3.61-9.25-8.7-14.34-12.12l6.48-9.07c5.09,3.05,11.75,7.68,14.81,11.11l-6.94,10.09h0Z"/>
    <path class="cls-7" d="M238.51,107.06c3.39,5.74,9.61,8.05,18.58,8.42,11.17.46,32.04.19,45.23-1.02-1.47,3.24-3.57,9.72-4.21,13.7-11.63.65-29.85.83-41.29.28-10.89-.46-18.13-2.78-24.17-9.9-3.75,3.33-7.6,6.66-12.54,10.64l-6.41-14.07c3.75-2.13,7.96-4.72,11.81-7.5v-17.61h-10v-12h23v29.06h0ZM229.97,66.63c-2.68-4.26-9.16-10.46-14.44-14.62l9.99-8.05c5.28,3.79,12.03,9.53,15.18,13.79l-10.74,8.88h0ZM279.6,88c4.09,7.16,11.09,12.47,21.18,14.79-2.82,2.7-6.55,7.91-8.27,11.35-9.64-3.16-16.27-8.93-21-17.02-3.91,6.33-10.45,12.37-21.09,17.02-1.73-2.79-5.82-7.35-8.82-9.77,12.64-4.37,18-10.42,20.18-16.37h-20.27v-12h22v-7h-19v-12h8.05c-1.47-3.59-3.68-7.75-5.99-11.15l11.33-4.72c3.22,4.16,6.63,9.92,7.83,13.98l-4.33,1.89h17.96l-4.24-1.51c2.58-4.06,5.62-10.02,7.18-14.55l13.72,4.25c-2.76,4.35-5.62,8.5-8.1,11.81h9.58v12h-21v7h24v12h-20.91.01Z"/>
    <path class="cls-7" d="M328.51,107.35c3.35,5.92,9.27,8.42,18.06,8.79,12.03.56,35.35.28,49.42-.93-1.39,2.96-3.33,8.79-3.98,12.49-12.49.65-33.22.83-45.44.28-10.74-.46-17.77-2.96-23.23-10.09-3.24,3.52-6.66,6.85-11.01,10.92l-6.2-12.86c3.15-2.13,10.38-7.5,10.38-7.5v-18.46h-9v-12h21v29.35h0ZM317.98,66.45c-1.94-4.44-7.13-11.2-11.57-16.01l10.64-6.66c4.53,4.44,10.09,10.64,12.4,15.18l-11.48,7.5h.01ZM329.33,94.04c1.56-.29,3.32-.59,5.18-.98v-44.86l6.16,1.57c3.95-2.22,8-5.09,10.75-7.68l8.09,9.07v-4.16h32v46.76c0,5.18-.82,8.22-4,10.17-3.09,1.85-7,2.03-12.18,2.03-.36-2.68-1.55-6.65-2.82-9.61v17.65h-12v-61.36c-4.21,2.31-8.79,4.35-13,6.02v31.58c3.42-.78,6.94-1.66,10.46-2.44l1.56,12.02c-8.89,2.35-18.67,4.79-26.59,6.74l-3.62-12.51h.01ZM372.51,58v36.65c2.3.09,4.79.09,5.62.09,1.01,0,1.38-.37,1.38-1.39v-35.35h-7Z"/>
  </g>
  <line class="cls-9" x1="416.01" y1="205.5" x2="826.01" y2="205.5"/>
  <g>
    <path class="cls-6" d="M510.76,172.57c0,17.67-12.23,30-27.1,32-16.04,2.15-22.3-2.89-22.3-20.56s7.34-43.43,22.3-43.43,27.1,14.33,27.1,32h0Z"/>
    <path class="cls-6" d="M732.54,172.91c0,17.49-12.1,29.69-26.82,31.66-15.88,2.13-20.51-2.01-20.51-19.5s5.7-43.83,20.51-43.83,26.82,14.18,26.82,31.66h0Z"/>
  </g>
  <g>
    <ellipse class="cls-3" cx="556.2" cy="172.38" rx="25.83" ry="30.5"/>
    <ellipse class="cls-3" cx="780.04" cy="171.98" rx="25.83" ry="30.5"/>
  </g>
  <path class="cls-10" d="M783.54,183h-251.39c-12.5,0-22.64-10.14-22.64-22.64v-55.08c0-2.93.57-5.83,1.68-8.55l16.98-43.69c3.47-8.51,11.75-23.04,20.94-23.04h141.46c12.01,0,28.15,13.02,37.58,20.47l54.39,47.73,3.5.09c4.43,0,39.11,14.28,41.25,30.51l3.47,33.02c1.48,11.22-7.25,21.17-18.56,21.17h-28.66Z"/>
  <path class="cls-12" d="M701.02,183h-274.52c-8.31,0-14.98-6.88-14.72-15.19l1.88-60.55c0-3.77.29-7.53.88-11.26l8.18-51.74c1.3-8.22,8.38-14.27,16.7-14.27h194.52c12.72,0,24.52,15.61,31.12,26.49l30.58,39.47,5.86.31c16.34.96,41.12,16.31,43.26,32.54l3.47,33.02c1.48,11.22-7.25,21.17-18.56,21.17h-28.66,0Z"/>
  <g>
    <g>
      <ellipse class="cls-1" cx="475.51" cy="173" rx="27" ry="32"/>
      <ellipse class="cls-4" cx="475.51" cy="173" rx="17" ry="20"/>
      <ellipse class="cls-5" cx="476.01" cy="173" rx="5.5" ry="6"/>
    </g>
    <g>
      <ellipse class="cls-1" cx="696.51" cy="173.5" rx="27" ry="31.5"/>
      <ellipse class="cls-4" cx="697.01" cy="173.5" rx="16.5" ry="19.5"/>
      <ellipse class="cls-5" cx="696.51" cy="174" rx="5" ry="6"/>
    </g>
  </g>
  <g>
    <path class="cls-11" d="M608.7,101h178.03l-27.42-27.8c-13.43-14.9-31.23-23.2-49.74-23.2h-67.34c-3.95,0-8.23,1.54-12.48,4.41-5.68,3.84-10.33,9.46-13.55,16.15-5.94,12.35-17.37,30.44-7.5,30.44Z"/>
    <path class="cls-2" d="M435.95,101h265.9l-30.65-39.36c-4.91-7.59-12-11.64-20.41-11.64h-211.14c-4.38,0-8.1,3.77-8.72,8.85l-3.7,30.39c-.76,6.21,3.36,11.76,8.72,11.76h0Z"/>
  </g>
  <g>
    <path class="cls-5" d="M752.94,125h-22.81c-.94,0-1.82-.46-2.35-1.24l-4.73-6.9c-1.41-2.06.06-4.87,2.56-4.87h14.85c5.61,0,10.86,2.76,14.03,7.39l.79,1.15c1.3,1.89-.06,4.46-2.35,4.46h0Z"/>
    <path class="cls-5" d="M826.35,125h-13.42c-.94,0-1.82-.46-2.35-1.24l-1.9-2.78c-2.61-3.81.12-8.99,4.73-8.99h-.3,1.3c1.17.26,5.62,2.77,9.44,7.84,1.16,1.54,2.01,3.29,2.5,5.16h0Z"/>
    <rect class="cls-5" x="752.51" y="122" width="69" height="4"/>
  </g>
  <rect class="cls-7" x="669.51" y="120" width="22" height="5" rx="2.44" ry="2.44"/>
  <line class="cls-8" x1="514.51" y1="162" x2="658.51" y2="162"/>
  <line class="cls-8" x1="761.51" y1="159" x2="819.51" y2="159"/>
  <line class="cls-8" x1="438.51" y1="162" x2="424.51" y2="162"/>
  <path class="cls-5" d="M474.49,124.99c1.37-4.63,2.68-8.96,3.94-13.31.85-2.94.82-2.94,3.45-1.35,1.87,1.13,2.45,2.74,1.76,4.83-2.2,6.54-4.26,13.13-6.78,19.55-.2.52-.26,1.31-.81,1.42-.61.12-.81-.69-1.12-1.13-1.71-2.39-3.41-4.79-5.06-7.23-.56-.83-.89-.86-1.43.03-1.55,2.59-3.11,5.19-4.94,7.6-.21.28-.35.76-.75.73-.42-.03-.45-.53-.56-.85-2.64-7.34-5.26-14.68-7.91-22.01-.25-.7-.16-1.15.47-1.55.93-.59,1.85-1.21,2.74-1.86.83-.61,1.24-.57,1.57.55,1.35,4.58,2.79,9.13,4.21,13.69.12.37.1.96.54,1.01.48.06.54-.53.71-.87,1.32-2.72,2.61-5.45,3.92-8.17.21-.42.25-1.13.76-1.16.56-.03.57.69.77,1.11,1.34,2.71,2.65,5.43,3.98,8.14.1.21.25.4.53.83h0Z"/>
  <path class="cls-5" d="M498.13,108.67c2.12,0,4.25-.12,6.37.08.88.08,1.33.35,1.13,1.38-.21,1.08-.08,2.19-.22,3.29-.11.83-.54,1.11-1.26,1.18-1.91.19-3.81.42-5.72.53-.88.05-1.22.32-1.23,1.23-.01,2.7-.04,2.69,2.58,2.6,1.14-.04,2.29-.02,3.43-.11.79-.06,1.14.19,1.12,1-.03,1.35-.04,2.69-.04,4.04,0,.78-.33,1.11-1.12,1.06-1.55-.1-3.1-.15-4.64-.26-.79-.05-1.11.24-1.08,1.05.12,4.5-.46,3.69,3.69,3.69,1.21,0,2.43-.25,3.63-.47.72-.13,1.08-.03,1.03.81-.12,1.83-.19,3.67-.28,5.5-.03.65-.34.96-1,.96-4-.04-8,.22-11.99-.22-.72-.08-1.08-.33-1.11-1.13-.35-8.36-.39-16.73-.24-25.09.02-.89.45-1.13,1.21-1.13h5.76-.02Z"/>
  <path class="cls-5" d="M590.52,123.77c-.4-4.79.11-9.36-.01-13.93-.02-.87.38-1.17,1.17-1.17,3.92.01,7.85.02,11.77.04,1.16,0,1.81.38,1.5,1.77-.21.98-.1,2.03-.23,3.05-.1.79-.5,1.04-1.19,1.1-1.91.18-3.82.41-5.73.53-.96.06-1.27.43-1.26,1.36.02,2.56-.01,2.56,2.5,2.49,1.23-.04,2.45-.03,3.68-.08.68-.03.97.24.95.92-.03,1.39-.04,2.78-.04,4.17,0,.74-.38,1.01-1.08.97-1.47-.09-2.94-.14-4.4-.26-.98-.08-1.41.2-1.36,1.27.19,4.27-.54,3.47,3.62,3.46,1.25,0,2.51-.26,3.76-.48.67-.12,1.02,0,.97.75-.11,1.88-.2,3.75-.29,5.63-.03.6-.35.89-.94.89-4.04-.03-8.09.23-12.13-.22-.78-.09-1.01-.47-1.03-1.2-.14-3.75-.29-7.51-.23-11.05h0Z"/>
  <path class="cls-5" d="M651.05,117.73c2.18-2.48,4.38-4.94,6.54-7.43,1.37-1.58,1.36-1.6,2.16.27.56,1.31,1.07,2.65,1.67,3.95.34.73.19,1.17-.45,1.65-1.79,1.36-3.5,2.82-5.29,4.18-.79.6-1,1.05-.34,1.96,2.27,3.14,4.43,6.37,6.67,9.54.54.76.64,1.29-.1,1.98-.89.83-1.69,1.77-2.49,2.7-.61.71-1.01.58-1.46-.18-1.74-2.95-3.52-5.89-5.3-8.82-.23-.37-.32-1.11-.96-.85-.58.23-1.09.62-1.03,1.47.15,2.28.18,4.57.31,6.85.06.95-.26,1.35-1.24,1.29-1.02-.06-2.04-.07-3.06-.02-1.03.06-1.39-.4-1.37-1.37.06-2.49.13-4.98.14-7.47.02-5.8.03-11.6-.01-17.41,0-1.15.32-1.66,1.51-1.59.89.05,1.8.01,2.69-.04.86-.05,1.15.32,1.14,1.15-.03,2.69-.01,5.38-.01,8.07.09.04.18.08.27.12h.01Z"/>
  <path class="cls-5" d="M631.31,136.83c-.83.29-1.27-.33-1.49-1.45-.3-1.52-.75-3.01-1.12-4.51-.17-.69-.53-1.02-1.29-.99-1.55.06-3.1.07-4.65.07-.62,0-.84.35-.99.87-.43,1.49-.95,2.96-1.3,4.46-.24,1.04-.76,1.2-1.66.94-.86-.25-1.73-.49-2.61-.66-.99-.19-1.24-.64-.91-1.63,2.7-8.05,5.38-16.11,8.61-23.97.25-.6.47-1.22.73-1.82.12-.28.12-.73.53-.72.4,0,.44.44.56.72,1.15,2.79,2.32,5.58,3.43,8.39,2.41,6.07,4.73,12.17,6.92,18.33.39,1.11.12,1.48-.96,1.56-1.14.09-2.27.24-3.81.4h0ZM625.08,117.64c-.09.01-.18.02-.27.03-.32,1.01-.66,2.01-.96,3.02-.53,1.77.13,2.58,1.99,2.43.08,0,.16-.01.24-.01.62-.01.78-.3.58-.88-.54-1.53-1.06-3.07-1.59-4.6h.01Z"/>
  <path class="cls-5" d="M567.56,136.47c-2.22.07-2.27.07-2.2-2.13.28-8,.09-16.01.13-24.01,0-1.01.34-1.46,1.31-1.69,3.39-.81,6.64-.79,9.59,1.39,1.54,1.14,2.53,2.69,3.08,4.47,1.05,3.36,1.11,6.77-.18,10.08-1.33,3.4-3.9,5.26-7.54,5.53-1.12.08-1.64.45-1.58,1.62.05,1.02-.07,2.04-.09,3.06-.04,1.63-.03,1.63-1.65,1.67h-.87ZM574.83,119.52c.08-.82-.07-1.7-.32-2.56-.52-1.79-1.91-2.8-3.7-2.79-.67,0-.98.19-.91.91.29,2.81.13,5.62.2,8.44.04,1.67.56,2,2.11,1.35.74-.31,1.31-.81,1.72-1.5.68-1.16.99-2.4.91-3.84h0Z"/>
  <path class="cls-7" d="M524.51,136.25c-1.76,0-3.51,0-5.27,0-2.02.02-1.87-1.4-.05-7.82.67-2.35.82-4.82.43-7.24-2.02-12.36-3.54-13.06.07-12.48.47.08.95.08,1.42,0,1.44-.22,2.06-.2,2.02.87-.17,4.73-.31,9.46-.46,14.18-.04,1.31-.05,2.61-.07,3.92-.02,1.59.16,1.71,1.79,1.49,2.02-.28,4.05-.49,6.06-.78.72-.1,1,.16.98.84-.05,1.96.04,3.91-.18,5.87-.1.86-.48,1.12-1.25,1.12h-5.51v.02h.02Z"/>
  <path class="cls-7" d="M547.51,136.26c-1.68,0-3.35.02-5.03,0-1.6-.02-1.67-.11-1.69-1.67-.09-8.37-.18-16.74-.3-25.11-.01-.82.25-1.01,1.51-.79.87.15,1.75.11,2.62-.02,1.47-.21,1.77.36,1.26,2.27-.53,2.02-.64,4.13-.36,6.2.5,3.56.15,7.09.08,10.63-.03,1.52.16,1.65,1.72,1.44,2.02-.27,4.05-.49,6.07-.79.77-.11,1.08.14,1.05.89-.08,1.92.02,3.83-.15,5.75-.09,1.02-.55,1.21-1.4,1.2-1.8-.02-3.6,0-5.39,0v.02-.02Z"/>
  <g>
    <path class="cls-7" d="M44.29,182.33c.75-1.94,1.46-3.94,2.12-5.99s1.26-4.16,1.79-6.32c.53-2.16.99-4.34,1.39-6.55.4-2.2.68-4.41.86-6.61l11.71,2.45c-.18.71-.4,1.55-.66,2.55-.26.99-.5,1.95-.69,2.88-.2.93-.34,1.65-.43,2.18-.22,1.23-.53,2.67-.93,4.3s-.85,3.33-1.36,5.09c-.51,1.76-1.02,3.52-1.55,5.26-.53,1.74-1.06,3.34-1.59,4.8-.75,2.21-1.68,4.5-2.78,6.88s-2.26,4.65-3.47,6.81c-1.21,2.16-2.37,4.03-3.47,5.62l-11.31-4.76c2.07-2.69,4.03-5.71,5.89-9.06,1.85-3.35,3.35-6.53,4.5-9.52h-.02ZM76.96,181.61c-.62-1.76-1.33-3.66-2.15-5.69s-1.67-4.07-2.55-6.12c-.88-2.05-1.74-3.98-2.58-5.79-.84-1.81-1.61-3.35-2.31-4.63l10.71-3.44c.71,1.32,1.51,2.92,2.41,4.8.9,1.87,1.81,3.86,2.71,5.95s1.77,4.13,2.61,6.12c.84,1.98,1.54,3.73,2.12,5.23.53,1.41,1.13,3.1,1.82,5.06.68,1.96,1.38,4.02,2.08,6.18.71,2.16,1.38,4.29,2.02,6.38.64,2.09,1.18,4,1.62,5.72l-11.97,3.9c-.62-2.82-1.27-5.59-1.95-8.3s-1.4-5.36-2.15-7.94-1.57-5.06-2.45-7.44h0ZM84.64,149.86c.57.79,1.18,1.75,1.82,2.88.64,1.12,1.26,2.24,1.85,3.34.6,1.1,1.09,2.05,1.49,2.84l-6.28,2.65c-.71-1.37-1.51-2.92-2.41-4.66s-1.8-3.25-2.68-4.53l6.22-2.51h0ZM92.77,146.68c.57.84,1.19,1.82,1.85,2.94.66,1.12,1.3,2.23,1.92,3.31.62,1.08,1.1,2,1.46,2.74l-6.22,2.65c-.66-1.37-1.48-2.92-2.45-4.66-.97-1.74-1.9-3.23-2.78-4.46l6.22-2.51h0Z"/>
    <path class="cls-7" d="M152.17,158.13c-.31.44-.75,1.15-1.32,2.12s-1.04,1.87-1.39,2.71c-.93,2.03-2.06,4.31-3.41,6.85-1.35,2.54-2.87,5.1-4.56,7.71-1.7,2.6-3.52,5.05-5.46,7.34-2.47,2.87-5.21,5.68-8.23,8.43-3.02,2.76-6.2,5.29-9.52,7.61-3.33,2.31-6.69,4.29-10.09,5.92l-8.33-8.66c3.57-1.32,7.05-3.02,10.45-5.09,3.39-2.07,6.52-4.3,9.39-6.68,2.87-2.38,5.27-4.65,7.21-6.81,1.46-1.63,2.79-3.33,4-5.09,1.21-1.76,2.28-3.49,3.21-5.19.93-1.7,1.61-3.25,2.05-4.66h-20.57c-.97,0-2,.03-3.08.1s-2.09.14-3.04.23c-.95.09-1.73.16-2.35.2v-11.38c.79.09,1.73.18,2.81.26,1.08.09,2.14.16,3.17.2,1.04.04,1.86.07,2.48.07h22.09c1.68,0,3.23-.1,4.66-.3,1.43-.2,2.52-.43,3.27-.69l6.55,4.83v-.03ZM136.89,178.23c1.68,1.32,3.48,2.89,5.42,4.7s3.87,3.69,5.79,5.66c1.92,1.96,3.69,3.85,5.32,5.66s2.98,3.35,4.03,4.63l-9.19,8c-1.63-2.38-3.47-4.77-5.52-7.18-2.05-2.4-4.21-4.8-6.48-7.18-2.27-2.38-4.6-4.65-6.98-6.81l7.61-7.47h0Z"/>
    <path class="cls-7" d="M179.15,193.51c1.1,2.03,2.68,3.52,4.73,4.46,2.05.95,4.62,1.49,7.71,1.62,2.07.09,4.54.14,7.41.17,2.87.02,5.88,0,9.03-.03s6.26-.13,9.33-.26c3.06-.13,5.83-.31,8.3-.53-.35.71-.73,1.62-1.12,2.74-.4,1.12-.76,2.27-1.09,3.44s-.58,2.22-.76,3.14c-2.16.13-4.6.23-7.31.3-2.71.07-5.5.11-8.37.13s-5.64,0-8.33-.03-5.09-.11-7.21-.2c-3.75-.18-6.92-.77-9.52-1.79-2.6-1.01-4.87-2.78-6.81-5.29-1.23,1.23-2.54,2.46-3.9,3.67-1.37,1.21-2.89,2.52-4.56,3.94l-4.43-9.59c1.37-.84,2.8-1.75,4.3-2.74s2.93-2.04,4.3-3.14h8.33-.03ZM163.08,153.89l7.34-5.42c1.23.97,2.51,2.06,3.84,3.27,1.32,1.21,2.56,2.43,3.7,3.64,1.15,1.21,2.07,2.35,2.78,3.41l-7.94,6.08c-.57-1.06-1.4-2.24-2.48-3.54-1.08-1.3-2.26-2.6-3.54-3.9-1.28-1.3-2.51-2.48-3.7-3.54h0ZM179.15,172.35v24.94h-9.19v-16.07h-6.88v-8.86h16.07ZM181.33,188.22h42.93v6.81h-42.93v-6.81h0ZM181.6,148.67h42.2v9.39h-8.86v-2.71h-24.94v2.71h-8.4v-9.39ZM183.71,158.92h37.57v6.48h-37.57v-6.48h0ZM184.57,166.92h36.05v19.84h-36.05v-19.84ZM192.71,172.61v1.59h19.38v-1.59h-19.38ZM192.71,179.49v1.59h19.38v-1.59h-19.38ZM197.6,156.27h9.33v42h-9.33v-42Z"/>
    <path class="cls-7" d="M245.76,161.3l9.13,3.51c-1.72,3-3.74,6.02-6.05,9.06s-4.74,5.91-7.28,8.6-5.02,5.03-7.44,7.01c-.44-.7-1.05-1.59-1.82-2.65s-1.58-2.12-2.41-3.17c-.84-1.06-1.59-1.92-2.25-2.58,2.25-1.54,4.49-3.38,6.71-5.52,2.23-2.14,4.33-4.43,6.32-6.88,1.98-2.45,3.68-4.9,5.09-7.37h0ZM243.31,146.75l9.26,3.84c-1.68,2.16-3.56,4.35-5.66,6.58-2.09,2.23-4.28,4.33-6.55,6.32-2.27,1.98-4.51,3.73-6.71,5.23-.4-.75-.9-1.62-1.52-2.61-.62-.99-1.26-1.97-1.92-2.94s-1.28-1.76-1.85-2.38c1.85-1.15,3.73-2.52,5.62-4.13,1.9-1.61,3.67-3.28,5.32-5.03,1.65-1.74,2.99-3.36,4-4.86v-.02ZM238.35,178.1l8.4-8.47,1.26.46v39.49h-9.66v-31.48h0ZM254.16,168.77h36.64v9.13h-36.64v-9.13h0ZM256.93,150.39h32.21v9.13h-32.21v-9.13ZM272.28,171.49h9.85v27.32c0,2.43-.28,4.34-.83,5.75s-1.67,2.49-3.34,3.24c-1.59.7-3.48,1.15-5.69,1.32-2.21.18-4.72.26-7.54.26-.18-1.41-.54-3.07-1.09-4.96-.55-1.9-1.14-3.53-1.75-4.89,1.1.04,2.25.09,3.44.13,1.19.04,2.28.07,3.27.07h2.08c.62,0,1.04-.09,1.26-.26.22-.18.33-.48.33-.93v-27.05h.01Z"/>
    <path class="cls-7" d="M298.6,158.06h55.43v34.39h-10.12v-24.94h-35.65v25.27h-9.66v-34.72ZM303.56,179.89h45.9v9.46h-45.9v-9.46ZM320.96,146.75h10.19v62.83h-10.19v-62.83Z"/>
    <path class="cls-7" d="M375.79,204.09c-1.98,0-3.6-.64-4.86-1.92-1.26-1.28-1.89-2.89-1.89-4.83s.64-3.53,1.92-4.76,2.89-1.85,4.83-1.85,3.55.62,4.83,1.85c1.28,1.23,1.92,2.82,1.92,4.76s-.64,3.55-1.92,4.83-2.89,1.92-4.83,1.92ZM371.69,185.71l-1.98-20.9-.4-10.98h12.96l-.4,10.98-1.98,20.9h-8.2,0Z"/>
  </g>
</svg>
