<?xml version="1.0" encoding="UTF-8"?>
<svg id="Layer_1" data-name="Layer 1" xmlns="http://www.w3.org/2000/svg" viewBox="0 0 860 239">
  <defs>
    <style>
      .cls-1 {
        fill: #70574b;
      }

      .cls-2 {
        fill: #f5d43c;
      }

      .cls-3 {
        fill: #e9e6dd;
      }
    </style>
  </defs>
  <rect class="cls-3" width="860" height="239" rx="19.99" ry="19.99"/>
  <g>
    <path class="cls-1" d="M135.62,159c13.85,13.78,35.34,21.43,65.22,24.17-5.65,5.83-12.94,16.94-16.4,24.41-32.79-5.1-54.47-16.58-69.96-36.25-12.02,15.67-34.07,28.42-72.15,36.25-3.1-5.83-10.57-16.58-16.58-22.41,35.34-5.83,63.58-26.17,63.58-26.17H30v-24h17v-42h52v-17h27v17h55v42h15v24h-60.38ZM66,70h-34v-24h34v-12h26v12h41v-12h26v12h35v24h-35v15h-26v-15h-41v15h-26v-15ZM98,135v-19h-26v19h26ZM126,116v19h27v-19h-27Z"/>
    <path class="cls-1" d="M278,86h-69v-21h69v21ZM273,200h-34v7h-22v-63h56v56ZM271,112h-53v-20h53v20ZM218,118h53v20h-53v-20ZM272,59h-53v-20h53v20ZM239,165v15h11v-15h-11ZM383,107v23h-107v-23h21.07c.89-4.36,1.79-9.09,2.5-14h-13.57v-22h17.92l1.32-10h-22.25v-22h93v22h-47.17l-1.51,10h39.68v36h16ZM289,137h82v69h-26v-5h-31v6h-25v-70ZM314,161v17h31v-17h-31ZM325.45,93c-.91,4.91-1.64,9.64-2.55,14h19.09v-14h-16.55Z"/>
    <path class="cls-2" d="M440,128h-31v-19h31v-32h20v32h31v19h-31v32h-20v-32Z"/>
  </g>
  <g>
    <path class="cls-1" d="M531,56h-10v-18h24v-6h10v6h24v18h-9v-9h-39v9ZM580,77h-25v7.58c0,4.95-1.09,7.52-4.68,8.97-3.53,1.38-8.01,1.58-13.33,1.58-.58-2.9-2.44-7.25-3.97-9.89,3.65.2,8.91.26,10.26.2,1.35,0,1.73-.26,1.73-1.19v-7.25h-24v-9h24v-4h3.05c1.56-1.17,3.05-2.55,4.41-4h-19.46v-9h29.16l2.28-.48,6.43,4.98c-3.66,4.28-8.43,8.98-13.82,12.51h22.95v9Z"/>
    <path class="cls-1" d="M647,86v7h-61v-7h25l1-2h-21v-7h21v-1h-19v-20h47v20h-19v1h21v7h-21v2h26ZM646,54h-59v-8h13.06c-.33-.89-.79-2.07-1.25-3.06l.4.06h-8.21v-8h20v-3h10v3h21v8h-7.45c-.66,1.19-1.71,4-1.71,4h13.16v7ZM602,63h10v-2h-10v2ZM612,70v-2h-10v2h10ZM608.97,43c.53.99.99,2.24,1.25,3h12.53c.4-.82.86-2.01,1.12-3h-14.9ZM631,61h-10v2h10v-2ZM631,68h-10v2h10v-2Z"/>
    <path class="cls-1" d="M701.34,72c3.63,5.36,8.62,10.37,13.67,13.53-2.14,1.86-5.18,5.5-6.67,7.97-4.08-3.3-8.03-8.04-11.34-13.33v14.82h-10v-14.57c-3.59,4.95-7.84,9.17-12.42,12.2-1.46-2.31-4.45-5.74-6.58-7.58v9.96h-9v-33.39c-1.24,1.61-2.54,3.15-3.85,4.49-.78-2.35-3.33-7.71-4.89-10.13,5.8-5.83,11.48-15.09,14.74-24.34l8.8,2.95c-1.63,4.22-3.59,8.58-5.8,12.81v37.55c5.41-2.88,10.57-7.71,14.28-12.94h-11.28v-9h16v-4h-12v-24h35v24h-13v4h16v9h-11.66ZM684,50h16v-7h-16v7Z"/>
    <path class="cls-1" d="M769.38,60.11l-.38-.51v26.98c0,4.29-1.08,6.26-4.26,7.45-3.18,1.12-7.43,1.19-12.97,1.19-.47-2.31-1.76-5.47-2.91-7.58,2.91.2,7.5.2,8.51.13,1.22,0,1.62-.33,1.62-1.25v-1.52h-22v10h-10v-35h40.32c-.77-.96-1.73-1.92-2.76-3.01-15.83.64-32.5,1.09-43.72,1.35l-.26-8.33h9.31l2.44-5h-13.34v-8h24v-5h10v5h24v8h-10.46c4.09,3.24,8.5,6.98,10.96,9.97l-8.13,5.14ZM737,68v2h23v-2h-23ZM760,78v-2h-23v2h23ZM744.4,46c-1.12,1.38-2.31,2.7-3.43,4.02,5.27-.07,10.88-.13,16.48-.26-.92-.73-1.85-1.45-2.7-2.11l2.77-1.65h-13.12Z"/>
  </g>
  <path class="cls-1" d="M682.48,154h10.58c2.17,0,4.8-.33,6.5-.85l8.08,4.99c-.85,1.45-1.91,3.42-2.56,5.39-1.77,5.45-5.32,14.12-11.36,21.55-6.37,7.82-14.32,13.86-26.67,18.92l-9.46-8.41c14.19-4.34,21.02-9.92,26.61-16.16,4.14-4.6,7.82-12.15,8.67-16.42h-16.36c-4.66,5.85-10.51,11.5-16.55,15.7l-8.93-6.64c11.63-7.16,16.95-15.04,20.43-20.56,1.18-1.84,2.76-5.26,3.48-7.82l11.63,3.81c-1.51,2.1-3.09,4.8-4.07,6.5Z"/>
  <path class="cls-1" d="M761.25,170.44c-2.06,6-4.69,11.87-9.31,17.06-6.19,6.94-14.31,11.5-22.31,13.81l-7.56-8.56c9.75-2.06,17-6.19,21.5-10.69,3.06-3.06,4.75-6.19,5.81-9.06h-28.44c-1.56,0-5.12.06-7.94.31v-9.75c2.88.25,5.81.44,7.94.44h29.75c2.37,0,4.25-.31,5.25-.75l6.69,4.19c-.5.94-1.12,2.25-1.37,3ZM726.36,148h24.89c2.1,0,5.85-.14,7.75-.41v10.68c-1.84-.14-5.39-.27-7.88-.27h-24.76c-2.23,0-5.39.07-7.36.27v-10.68c1.84.27,5.06.41,7.36.41Z"/>
  <path class="cls-1" d="M817.03,158.4c-2.12,4.74-5.51,11.15-9.68,16.92,6.22,5.38,13.91,13.53,17.44,17.88l-8.91,7.76c-4.1-5.83-9.55-11.99-15.32-17.56-6.73,6.99-15.13,13.46-23.53,17.5l-8.08-8.4c10.38-3.78,20.51-11.67,26.22-18.01,4.17-4.74,7.63-10.38,8.97-14.49h-19.94c-2.88,0-6.41.38-8.21.51v-11.03c2.24.32,6.35.51,8.21.51h21.41c3.21,0,6.22-.45,7.69-.96l6.35,4.68c-.58.83-1.92,3.08-2.63,4.68Z"/>
  <rect class="cls-2" x="521" y="109" width="305" height="18"/>
  <path class="cls-1" d="M519.14,164.89l5.2-8.42c1.67,1.45,3.46,3.05,5.4,4.8,1.93,1.76,3.73,3.5,5.4,5.23,1.67,1.73,2.94,3.35,3.82,4.84l-5.72,9.67c-.88-1.58-2.11-3.31-3.69-5.2-1.58-1.89-3.29-3.78-5.13-5.69-1.84-1.91-3.6-3.65-5.26-5.23ZM519.14,191.01c2.28-.39,4.85-.87,7.7-1.41,2.85-.55,5.84-1.15,8.98-1.81,3.14-.66,6.24-1.32,9.31-1.97l.99,9.08c-4.26,1.01-8.6,2.01-13.03,2.99-4.43.99-8.47,1.9-12.11,2.73l-1.84-9.61ZM541.25,156.8l9.74,3.09c-1.49,3.12-3.1,6.26-4.84,9.44-1.73,3.18-3.5,6.28-5.3,9.31-1.8,3.03-3.6,5.9-5.4,8.62-1.8,2.72-3.53,5.18-5.2,7.37l-8.23-3.22c1.67-2.24,3.39-4.75,5.17-7.53,1.78-2.79,3.52-5.71,5.23-8.78,1.71-3.07,3.32-6.16,4.84-9.28,1.51-3.11,2.84-6.12,3.98-9.02ZM532.82,142.85l9.94,3.55c-1.14,2.46-2.34,4.92-3.59,7.4-1.25,2.48-2.51,4.84-3.78,7.07-1.27,2.24-2.48,4.23-3.62,5.99l-8.03-3.29c1.1-1.84,2.21-3.95,3.36-6.32,1.14-2.37,2.21-4.8,3.22-7.3,1.01-2.5,1.84-4.87,2.5-7.11ZM538.81,179.63l7.96-3.62c.96,1.93,1.89,3.98,2.76,6.15.88,2.17,1.63,4.29,2.27,6.35.64,2.06,1.04,3.93,1.22,5.59l-8.69,4.15c-.13-1.67-.47-3.56-1.02-5.69-.55-2.13-1.21-4.32-1.97-6.58-.77-2.26-1.61-4.38-2.53-6.35ZM557,143h10v20.93c0,3.55-.23,7.15-.68,10.79-.45,3.64-1.28,7.25-2.5,10.82-1.22,3.58-2.97,7.01-5.27,10.3-2.3,3.29-5.29,6.36-8.99,9.21-.9-1.14-2.09-2.31-3.58-3.52-1.49-1.21-2.88-2.23-4.19-3.06,3.38-2.59,6.07-5.33,8.07-8.23,2-2.9,3.52-5.83,4.56-8.82,1.04-2.98,1.72-5.96,2.06-8.92.34-2.96.51-5.82.51-8.59v-20.93ZM549,156h27v9h-27v-9ZM572,156h10v2.67c0,.68-.02,1.22-.07,1.61-.18,6.84-.39,12.69-.62,17.54-.23,4.85-.48,8.85-.76,12.01-.28,3.16-.63,5.64-1.07,7.44-.44,1.8-.95,3.11-1.55,3.95-.92,1.32-1.86,2.25-2.83,2.8-.97.55-2.12.95-3.45,1.22-1.15.22-2.54.35-4.17.39-1.63.04-3.32.04-5.07,0-.05-1.32-.34-2.87-.9-4.67-.55-1.8-1.24-3.36-2.07-4.67,1.47.13,2.83.21,4.07.23,1.24.02,2.23.03,2.97.03.55,0,1.02-.09,1.41-.26.39-.17.75-.5,1.07-.99.41-.48.78-1.51,1.1-3.09.32-1.58.6-3.83.83-6.74.23-2.92.44-6.62.62-11.12.18-4.5.34-9.92.48-16.29v-2.04Z"/>
  <path class="cls-1" d="M602.9,182h10.33c-.31,2.94-.79,5.66-1.45,8.16s-1.75,4.77-3.29,6.81c-1.54,2.04-3.71,3.85-6.51,5.43-2.81,1.58-6.49,2.94-11.05,4.08-.31-.88-.76-1.84-1.35-2.9s-1.25-2.1-1.97-3.13c-.72-1.03-1.41-1.88-2.07-2.53,3.82-.75,6.84-1.62,9.08-2.63,2.24-1.01,3.92-2.17,5.03-3.49s1.89-2.79,2.3-4.41c.42-1.62.73-3.42.95-5.4ZM593,145h9v36h-9v-36ZM608,146h34v34h-34v-34ZM617,154v5h15v-5h-15ZM617,167v5h15v-5h-15ZM620,181h10v12.57c0,1.1.13,1.77.39,2.04s.88.39,1.84.39h4.53c.61,0,1.08-.19,1.41-.56.33-.37.56-1.15.69-2.33.13-1.18.24-2.98.33-5.39.66.53,1.5,1.03,2.53,1.51,1.03.48,2.11.92,3.25,1.31,1.14.39,2.15.7,3.02.92-.31,3.55-.83,6.31-1.58,8.28-.75,1.97-1.82,3.34-3.22,4.11-1.4.77-3.24,1.15-5.52,1.15h-6.95c-2.91,0-5.13-.36-6.68-1.09-1.54-.73-2.61-1.93-3.19-3.6-.58-1.67-.87-3.9-.87-6.68v-12.63Z"/>
</svg>