<?xml version="1.0" encoding="UTF-8"?>
<svg xmlns="http://www.w3.org/2000/svg" version="1.1" viewBox="0 0 814.799 178.447">
  <defs>
    <style>
      .cls-1 {
        fill: #70574b;
      }

      .cls-2 {
        fill: #f5d43c;
      }
    </style>
  </defs>
  <!-- Generator: Adobe Illustrator 28.7.10, SVG Export Plug-In . SVG Version: 1.2.0 Build 236)  -->
  <g>
    <g id="Layer_1">
      <g id="Layer_1-2" data-name="Layer_1">
        <g id="Layer_1-2">
          <g>
            <g>
              <path class="cls-1" d="M109.858,130.169c13.846,13.482,35.344,21.133,65.222,23.866-5.648,5.83-12.935,16.943-16.396,24.413-32.793-5.101-54.473-16.579-69.959-36.255-12.025,15.668-34.069,28.421-72.145,36.255C13.482,172.618,6.013,161.869.001,156.039c35.344-5.83,54.109-14.757,63.583-25.87H4.19v-24.413h16.943v-41.538h51.558v-16.761h27.874v16.761h54.109v41.538h15.303v24.413h-60.121.002ZM39.899,41.08H5.83v-23.502h34.069V5.008h26.234v12.571h41.356V5.008h26.417v12.571h34.433v23.502h-34.433v14.757h-26.417v-14.757h-41.356v14.757h-26.234v-14.757h0ZM72.692,105.756v-18.765h-26.052v18.765h26.052ZM100.566,86.991v18.765h27.146v-18.765h-27.146Z"/>
              <path class="cls-1" d="M251.965,56.566h-69.048v-20.587h69.048v20.587ZM246.863,171.524h-33.704v6.559h-22.044v-63.218h55.748v56.659ZM245.224,82.436h-53.38v-19.676h53.38v19.676ZM191.844,88.63h53.38v19.676h-53.38v-19.676ZM245.588,29.967h-52.652V10.291h52.652v19.676h0ZM213.159,135.452v15.486h11.296v-15.486h-11.296ZM356.721,77.699v22.955h-106.76v-22.955h21.498c.911-4.373,1.822-9.109,2.551-14.028h-13.846v-22.227h17.307l1.275-9.656h-21.498V9.38h92.732v22.409h-45.546l-1.458,9.656h38.441v36.255h15.304ZM263.078,107.942h81.801v69.412h-25.871v-5.465h-31.153v6.194h-24.777v-70.141h0ZM287.855,131.444v16.943h31.153v-16.943h-31.153,0ZM299.515,63.671c-.911,4.919-1.64,9.656-2.55,14.028h19.129v-14.028s-16.579,0-16.579,0Z"/>
              <path class="cls-2" d="M413.807,98.917h-30.855v-19.284h30.855v-32.397h20.055v32.397h31.009v19.284h-31.009v32.243h-20.055s0-32.243,0-32.243Z"/>
            </g>
            <g>
              <g>
                <path class="cls-1" d="M668.139,125.279h10.616c2.176,0,4.814-.33,6.528-.857l8.11,5.011c-.857,1.451-1.912,3.429-2.572,5.407-1.78,5.473-5.341,14.177-11.407,21.628-6.396,7.847-14.375,13.913-26.771,18.991l-9.495-8.44c14.243-4.352,21.101-9.957,26.705-16.221,4.154-4.616,7.847-12.199,8.704-16.485h-16.419c-4.682,5.869-10.55,11.539-16.617,15.759l-8.968-6.66c11.671-7.187,17.012-15.1,20.507-20.639,1.187-1.846,2.77-5.275,3.495-7.847l11.671,3.824c-1.517,2.11-3.099,4.814-4.088,6.528h0Z"/>
                <path class="cls-1" d="M753.468,141.813c-2.176,6.33-4.946,12.528-9.825,18.001-6.528,7.319-15.1,12.133-23.54,14.573l-7.978-9.034c10.287-2.176,17.935-6.528,22.683-11.276,3.231-3.231,5.011-6.528,6.132-9.561h-30.002c-1.649,0-5.407.066-8.374.33v-10.286c3.033.264,6.132.462,8.374.462h31.387c2.505,0,4.484-.33,5.539-.791l7.056,4.418c-.527.989-1.187,2.374-1.451,3.165h-.001ZM716.146,118.866h24.991c2.11,0,5.868-.132,7.781-.396v10.287c-1.846-.132-5.407-.264-7.913-.264h-24.859c-2.242,0-5.407.066-7.385.264v-10.287c1.846.264,5.077.396,7.385.396Z"/>
                <path class="cls-1" d="M806.821,129.68c-2.176,4.879-5.671,11.473-9.957,17.408,6.396,5.539,14.309,13.913,17.936,18.397l-9.166,7.979c-4.22-6.001-9.825-12.331-15.759-18.067-6.924,7.187-15.562,13.847-24.2,18.001l-8.309-8.638c10.682-3.89,21.101-12.001,26.969-18.529,4.286-4.879,7.847-10.682,9.231-14.902h-20.507c-2.967,0-6.594.396-8.44.528v-11.342c2.308.33,6.528.528,8.44.528h22.024c3.297,0,6.396-.462,7.913-.989l6.528,4.814c-.593.857-1.978,3.165-2.703,4.814v-.002h0Z"/>
              </g>
              <rect class="cls-2" x="495.638" y="79.967" width="319.161" height="18.462"/>
            </g>
            <g>
              <path class="cls-1" d="M555.991,38.96v9.043h-25.633v6.799c0,7.683-2.652,10.267-18.494,10.267-.612-2.788-2.448-7.003-3.944-9.587,3.808.204,9.179.204,10.539.204s1.768-.272,1.768-1.224v-6.459h-25.498v-9.043h25.498v-4.08l4.419.204c1.088-.884,2.108-1.836,3.127-2.788h-20.466v-8.499h29.101l1.564-.476,7.479,4.42c-.34.544-1.02.884-1.768,1.088-2.856,3.06-6.731,6.935-11.015,10.131h23.323,0ZM504.997,19.65v8.771h-9.247V10.947h8.159c-1.156-2.108-2.72-4.352-4.148-6.187l8.431-3.74c2.448,2.72,5.235,6.459,6.392,9.179l-1.632.748h7.683c-1.02-2.448-2.516-5.371-3.944-7.683l8.771-3.264c2.176,3.06,4.556,7.139,5.439,10.063l-2.312.884h7.479c2.04-3.128,4.147-7.003,5.439-10.063l11.491,4.012c-.408.68-1.292.884-2.176.816-.952,1.632-2.244,3.468-3.672,5.235h8.295v17.474h-9.723v-8.771h-40.728.003Z"/>
              <path class="cls-1" d="M609.577,14.143c-.272.544-.952.816-1.972.816-.476.884-1.156,1.972-1.768,2.992h15.502v7.683h-62.758v-7.683h15.707c-.34-1.292-.816-2.652-1.36-3.808l2.176-.544h-11.831v-7.615h21.146V.408l12.579.68c-.068.748-.612,1.224-2.107,1.496v3.4h21.961v7.615h-9.179l1.904.544ZM594.55,54.667v1.564h26.518v7.479h-62.418v-7.479h26.177v-1.564h-21.078v-6.459h21.078v-1.428h-17.61v-19.718h45.759v19.718h-18.426v1.428h21.554v6.459h-21.554ZM576.464,32.841v1.36h8.363v-1.36h-8.363ZM576.464,41h8.363v-1.36h-8.363v1.36ZM595.91,17.61c.476-1.224,1.02-2.652,1.428-4.012h-14.55c.68,1.36,1.156,2.856,1.36,4.012l-1.224.34h14.006l-1.02-.34h0ZM603.253,34.201v-1.36h-8.703v1.36h8.703ZM603.253,41v-1.36h-8.703v1.36h8.703Z"/>
              <path class="cls-1" d="M659.286,54.734h26.177v9.111h-62.146v-9.111h25.769v-4.148h-18.698v-8.907h18.698v-2.38h-6.935v-13.531h-3.944c-.952,5.915-3.536,11.899-9.723,15.774-1.224-1.836-4.691-5.439-6.527-6.731,4.216-2.516,6.188-5.711,7.003-9.043h-5.439v-8.635h6.12v-5.915h-4.556V2.652h30.665v8.567h-4.42v5.915h5.848v8.635h-5.848v10.131l9.995.544c-.068.748-.612,1.224-2.04,1.428v3.808h19.174v8.907h-19.174v4.148h.001ZM638.684,17.134h3.468v-5.915h-3.468v5.915ZM670.233,4.76c-.068.748-.612,1.156-1.972,1.36v23.118h-9.247V4.148s11.219.612,11.219.612ZM684.58,1.564c-.136.68-.612,1.224-1.972,1.428v27.945c0,6.935-1.904,9.519-14.687,9.519-.408-2.516-1.7-6.255-2.924-8.703,2.651.136,5.983.136,6.935.136s1.292-.272,1.292-1.088V1.088l11.355.476h.001Z"/>
              <path class="cls-1" d="M750.743,41.816h-12.17c3.808,5.303,9.043,10.267,14.346,13.395-2.244,1.836-5.439,5.439-7.003,7.887-4.284-3.264-8.431-7.955-11.899-13.191v15.094h-9.927v-14.687c-3.671,5.099-8.023,9.451-12.714,12.579-1.496-2.38-4.556-5.915-6.731-7.819v9.927h-9.587v-32.909c-1.564,2.108-3.128,4.148-4.76,5.915-.884-2.448-3.264-7.683-4.555-10.131,5.643-5.983,11.491-16.862,14.958-27.333l10.811,3.74c-.408.68-1.156.952-2.108.884-1.632,4.148-3.535,8.431-5.643,12.511l2.855.748c-.136.68-.748,1.224-1.972,1.36v35.152c5.576-2.924,11.015-7.819,14.891-13.123h-12.239v-8.907h16.794v-5.167h-12.579V3.264h36.172v24.478h-13.667v5.167h16.726v8.907h0ZM720.826,11.899v7.207h16.999v-7.207s-16.999,0-16.999,0Z"/>
              <path class="cls-1" d="M814.799,6.119v8.567h-11.967c4.419,3.4,9.043,7.411,11.694,10.539l-8.771,5.507c-.884-1.156-2.04-2.516-3.467-3.944-15.639.816-31.549,1.496-42.428,1.836-.204.68-.748,1.088-1.36,1.156l-3.671-10.199c2.583,0,5.644,0,8.975-.068,1.088-1.496,2.108-3.196,3.06-4.828h-14.21V6.119h25.837V.34l12.239.68c-.068.748-.612,1.224-2.04,1.428v3.672h26.109ZM804.464,30.393v25.769c0,7.615-3.4,8.975-17.338,8.839-.476-2.38-1.768-5.643-2.924-7.751,1.768.136,4.147.136,5.983.136h2.583c1.632-.068,1.632-.476,1.632-2.176h-21.758v9.859h-9.927V30.393h41.749ZM794.401,38.28h-21.758v1.768h21.758v-1.768ZM772.643,48.547h21.758v-1.904h-21.758v1.904ZM793.042,14.687h-12.375c-.34.544-1.02.748-2.04.748-.952,1.224-2.107,2.584-3.399,4.012,5.983-.068,12.375-.204,18.766-.272-1.224-1.088-2.448-2.04-3.604-2.924,0,0,2.652-1.564,2.652-1.564Z"/>
            </g>
          </g>
        </g>
        <path class="cls-1" d="M594.702,153.339c-.136.68-.815,1.224-1.972,1.36-1.836,9.995-4.283,18.086-22.71,22.709-.951-2.651-3.535-6.731-5.575-8.839,15.774-2.991,17.066-8.295,17.95-16.454l12.307,1.224ZM571.856,114.243l11.56.611c-.068.748-.612,1.225-1.973,1.428v35.289h-9.587v-37.328ZM588.107,114.923h34.744v35.492h-34.744s0-35.492,0-35.492ZM597.626,123.354v5.371h15.163v-5.371s-15.163,0-15.163,0ZM597.626,136.477v5.508h15.163v-5.508h-15.163ZM600.346,151.979l12.171.611c-.068.816-.612,1.292-2.04,1.496v10.743c0,2.243.272,2.516,2.312,2.516h4.691c1.903,0,2.243-1.088,2.516-8.567,1.972,1.632,6.391,3.195,9.111,3.876-1.021,11.083-3.604,14.007-10.676,14.007h-7.207c-8.839,0-10.879-3.061-10.879-11.695v-12.986h0Z"/>
      </g>
      <path class="cls-1" d="M549.95,127.345l5.3.334-.2,3.111c-.728,27.348-1.456,37.216-3.71,40.392-2.782,4.109-6.093,4.572-14.898,4.373-.135-2.718-1.262-6.756-2.847-9.339,2.847.264,5.295.264,6.686.264,1.127,0,1.72-.264,2.448-1.192,1.391-1.785,2.119-9.468,2.583-28.54h-6.088c-.927,15.96-3.78,29.996-13.049,39.863-1.256-1.984-3.51-4.368-5.629-6.023l-3.111,1.321c-.065-1.386-.2-2.976-.528-4.632-7.419,1.256-14.833,2.383-19.87,3.111-.194.663-.793,1.057-1.321,1.192l-3.246-10.595,3.64-.329c2.653-3.51,5.43-7.684,8.083-12.057-3.181-4.238-8.147-9.334-12.121-13.108l5.23-8.476,2.319,1.984c2.453-4.702,4.901-10.331,6.427-15.098l10.989,4.502c-.329.599-1.192.927-2.248.863-2.054,5.031-5.43,11.259-8.476,16.025,1.256,1.192,2.383,2.383,3.375,3.575,1.79-3.51,3.445-6.95,4.837-10.196l6.487,2.319v-3.58h9.005c.07-4.368.07-8.87.07-13.636l11.652.593c-.065.793-.728,1.326-1.984,1.521,0,3.909-.07,7.748-.135,11.523h8.147l2.184-.065ZM514.989,158.667c-.663-2.319-1.391-4.637-2.189-6.751-1.655,2.577-3.375,5.16-5.095,7.549l7.285-.798ZM521.61,136.749c-2.319,4.567-5.166,9.404-8.083,14.041l7.355-2.982c1.655,3.909,3.241,8.347,4.303,12.45,2.982-6.621,4.173-14.504,4.567-23.509h-8.142Z"/>
    </g>
  </g>
</svg>